<?xml version="1.0" encoding="utf-8"?>
<!-- Generator: Adobe Illustrator 25.2.3, SVG Export Plug-In . SVG Version: 6.00 Build 0)  -->
<svg version="1.1" id="Layer_1" xmlns="http://www.w3.org/2000/svg" xmlns:xlink="http://www.w3.org/1999/xlink" x="0px" y="0px"
	 viewBox="0 0 80.9 80.9" style="enable-background:new 0 0 80.9 80.9;" xml:space="preserve">
<style type="text/css">
	.st0{fill:#A32B69;}
</style>
<path id="Path_1067" class="st0" d="M70.4,6.3h-7.3V2.5C63.1,1.1,62,0,60.6,0c-1.4,0-2.5,1.1-2.5,2.5v3.8H22.7V2.5
	c0-1.4-1.1-2.5-2.5-2.5s-2.5,1.1-2.5,2.5v3.8h-7.3C4.6,6.3,0,11,0,16.7v53.8c0,5.8,4.7,10.4,10.4,10.4h60.1
	c5.8,0,10.4-4.7,10.4-10.4V16.7C80.8,11,76.2,6.4,70.4,6.3z M75.8,70.6c0,3-2.4,5.4-5.4,5.4H10.3c-3,0-5.4-2.4-5.4-5.4V28.7
	c0-0.4,0.4-0.8,0.8-0.8l0,0H75c0.4,0,0.8,0.4,0.8,0.8l0,0L75.8,70.6L75.8,70.6z"/>
</svg>
