<svg id="Layer_1" data-name="Layer 1" xmlns="http://www.w3.org/2000/svg" viewBox="0 0 381.46 401.54">
  <defs>
    <style>
      .cls-1 {
        fill: #1d1d1b;
      }

      .cls-2 {
        fill: #fff7db;
      }

      .cls-3 {
        fill: #ffebbf;
      }

      .cls-4 {
        fill: #f5d2a0;
      }

      .cls-5 {
        fill: #fffdf4;
      }

      .cls-6 {
        fill: #fff;
      }
    </style>
  </defs>
  <g>
    <path class="cls-1" d="M170.16,358.3l3.35-.68a10,10,0,0,0-9.81-8,10.12,10.12,0,0,0-2.65.36c-4.43,1.21-9.65,2.69-14.61,3.84-2.48.58-4.89,1.08-7.09,1.43a36.44,36.44,0,0,1-5.7.54c-.55,0-1.05,0-1.47-.06h0l-.09,0h0a46.29,46.29,0,0,1-8.32-6.1,103.53,103.53,0,0,1-10.49-11.1c-1.34-1.63-2.42-3-3.16-4-.37-.49-.66-.88-.85-1.15l-.21-.29,0-.07v0l-2.33-3.31L93.52,342.71,94.76,345a78.55,78.55,0,0,0,6.71,9.78,82.29,82.29,0,0,0,19.13,17.85l0,0,0,0a16.15,16.15,0,0,0,5.58,2,35,35,0,0,0,6.45.53,96.8,96.8,0,0,0,18.05-2.13c6-1.2,11.65-2.67,15.67-3.8a10,10,0,0,0,7.29-9.63,10.51,10.51,0,0,0-.2-2l-3.35.68-3.34.68a3.55,3.55,0,0,1,.06.64,3.15,3.15,0,0,1-.63,1.91,3.19,3.19,0,0,1-1.68,1.15c-3.9,1.1-9.38,2.53-15.15,3.68a90.93,90.93,0,0,1-16.72,2,29.12,29.12,0,0,1-5.19-.41,9.74,9.74,0,0,1-3.25-1.12l-1.79,2.9,1.86-2.86a75.72,75.72,0,0,1-17.51-16.35c-2-2.56-3.55-4.8-4.58-6.39-.51-.79-.89-1.42-1.15-1.85l-.27-.47-.07-.11v0h0l-3,1.65,2.41,2.41,8.45-8.41-2.4-2.42-2.8,2a123,123,0,0,0,7.77,9.68,105.6,105.6,0,0,0,8,8.14,53.31,53.31,0,0,0,9.58,7h0a7.09,7.09,0,0,0,2.67.82h0a19.28,19.28,0,0,0,2.18.11,44.43,44.43,0,0,0,6.78-.63c3.62-.58,7.56-1.49,11.44-2.47s7.69-2.06,11-3a3.15,3.15,0,0,1,.84-.12,3.19,3.19,0,0,1,3.12,2.56Z" transform="translate(-19.41 -97.3)"/>
    <path class="cls-1" d="M262.05,358.3l3.34.68a3.19,3.19,0,0,1,3.12-2.56,3.15,3.15,0,0,1,.84.12c4.4,1.21,9.71,2.7,14.87,3.91,2.59.6,5.15,1.13,7.56,1.52a44.54,44.54,0,0,0,6.78.63,19.28,19.28,0,0,0,2.18-.11h0a7,7,0,0,0,2.67-.82h0a53.31,53.31,0,0,0,9.58-7,110.58,110.58,0,0,0,11.21-11.86c2.83-3.44,4.56-5.91,4.6-6l-2.79-2-2.41,2.42,8.45,8.41,2.41-2.41-3-1.65h0a73.93,73.93,0,0,1-6.27,9.09,75.56,75.56,0,0,1-17.32,16.11l1.87,2.86-1.8-2.9A9.74,9.74,0,0,1,304.7,368a29,29,0,0,1-5.19.41,90.93,90.93,0,0,1-16.72-2c-5.77-1.15-11.25-2.58-15.15-3.68a3.16,3.16,0,0,1-2.31-3.06,3.55,3.55,0,0,1,.06-.64l-3.34-.68-3.35-.68a10.51,10.51,0,0,0-.2,2,10,10,0,0,0,7.29,9.63c4,1.13,9.65,2.6,15.67,3.8a96.89,96.89,0,0,0,18.05,2.13,35,35,0,0,0,6.45-.53,16.15,16.15,0,0,0,5.58-2l0,0,0,0a82.29,82.29,0,0,0,19.13-17.85,78.55,78.55,0,0,0,6.71-9.78l1.24-2.25-13.14-13.08-2.33,3.31h0a117.19,117.19,0,0,1-7.49,9.3,92.87,92.87,0,0,1-7.41,7.46,46,46,0,0,1-8.18,6h0l-.09,0h0c-.42,0-.92.06-1.47.06a36.54,36.54,0,0,1-5.7-.54c-3.29-.52-7.07-1.39-10.84-2.34s-7.54-2-10.86-2.93a10.12,10.12,0,0,0-2.65-.36,10,10,0,0,0-9.81,8Z" transform="translate(-19.41 -97.3)"/>
    <path class="cls-1" d="M326.26,328.48l3.29-.91-1.41.39,1.41-.38h0l-1.41.39,1.41-.38a13.75,13.75,0,0,1-.36-3.1,8.91,8.91,0,0,1,.57-3.3,5.1,5.1,0,0,1,.78-1.3,4.69,4.69,0,0,1,1.25-1,47.29,47.29,0,0,0,4.42-2.81,21.39,21.39,0,0,0,4.87-4.86,26.81,26.81,0,0,0,3.17-6.26,3.45,3.45,0,0,1,1.25-1.7,2.59,2.59,0,0,1,1.47-.46,1.88,1.88,0,0,1,1,.27.7.7,0,0,1,.33.43,4,4,0,0,1,.13,1,9,9,0,0,1-1.11,3.89,13.52,13.52,0,0,1-1.09,1.75,7.59,7.59,0,0,1-.91,1.05L330.6,324.6,349,316.85l-.34-.81.34.81h0l-.34-.81.34.81a48.44,48.44,0,0,1,5.4-1.81,43.66,43.66,0,0,1,11.35-1.74,23.21,23.21,0,0,1,4.49.41,14.65,14.65,0,0,1,3,.92,3.58,3.58,0,0,1,1.53,1.09.5.5,0,0,1,.1.22l0,.19a1.5,1.5,0,0,1-.09.46l-.05.12h0l1.42.72-1.37-.81-.05.09,1.42.72-1.37-.81-2.15,3.63,4,1.35.56-1.65-.57,1.64h0l.56-1.65-.57,1.64.19.07a9.65,9.65,0,0,1,2.21,1.26,3.81,3.81,0,0,1,.76.82.83.83,0,0,1,.15.47l0,.2v.06h0l.37.15-.26-.3-.11.15.37.15-.26-.3.18.21-.16-.23,0,0,.18.21-.16-.23,0,.05,0-.05h0l0,.05,0-.05a1.89,1.89,0,0,1-.65.19,10.31,10.31,0,0,1-1.78.13c-.87,0-1.9-.06-3-.13s-2.26-.13-3.46-.13c-.53,0-1.07,0-1.62.05L348.11,326,369,331.14l.49-2-.5,2h0l.49-2-.5,2,.07,0a15.83,15.83,0,0,1,3.52,1.46,6,6,0,0,1,1.56,1.25,1.64,1.64,0,0,1,.27.42.55.55,0,0,1,.05.24,1.18,1.18,0,0,1-.05.31,1.05,1.05,0,0,1-.2.42.65.65,0,0,1-.19.16,2.46,2.46,0,0,1-.8.29,7.78,7.78,0,0,1-1.49.13,21.07,21.07,0,0,1-3.51-.37l-1.69-.33c-.54-.11-1-.21-1.52-.28a13.73,13.73,0,0,0-2.06-.13c-1.19,0-2.58.09-4.09.24a58.77,58.77,0,0,0-7.1,1.19,31,31,0,0,0-3.33,1,13.49,13.49,0,0,0-2.94,1.41,25.63,25.63,0,0,0-2.24,1.76,22.27,22.27,0,0,1-3.23,2.42,6.25,6.25,0,0,1-3.13.95,5.67,5.67,0,0,1-2.61-.67,14,14,0,0,1-3.81-2.91,17,17,0,0,1-3.18-4.14,5.07,5.07,0,0,1-.66-2.29,2.27,2.27,0,0,1,.19-.94,3,3,0,0,1,.74-1c.14-.12.26-.2.32-.25l.05,0-.77-1.31.71,1.34.06,0-.77-1.31.71,1.34,2.43-1.28-.73-2.64-3.29.91-1.59-3a9.23,9.23,0,0,0-2.48,2,9.38,9.38,0,0,0-1.64,2.53,9.14,9.14,0,0,0-.76,3.68,11.85,11.85,0,0,0,1.4,5.38,23.61,23.61,0,0,0,4.4,5.84,21,21,0,0,0,5.66,4.25,12.79,12.79,0,0,0,5.62,1.37,12.36,12.36,0,0,0,4.63-.93,19.62,19.62,0,0,0,4.95-3.07c.65-.52,1.22-1,1.7-1.42a13.56,13.56,0,0,1,1.09-.85,5.29,5.29,0,0,1,.83-.43,20.46,20.46,0,0,1,2.78-.89,45,45,0,0,1,5.43-1,38.51,38.51,0,0,1,4.65-.36,7.77,7.77,0,0,1,1,0c.25,0,.69.12,1.21.23.8.16,1.8.37,2.92.53a25.32,25.32,0,0,0,3.63.31,14.13,14.13,0,0,0,2.56-.22,9.17,9.17,0,0,0,4-1.67,7.69,7.69,0,0,0,1.67-1.78,8.26,8.26,0,0,0,1-2.32,7.91,7.91,0,0,0,.3-2.15,7.39,7.39,0,0,0-.63-3,9.48,9.48,0,0,0-2.84-3.57,18.25,18.25,0,0,0-4.72-2.63,23.71,23.71,0,0,0-2.45-.81l-.82,3.31.24,3.41c.35,0,.73,0,1.14,0,.92,0,2,.06,3.06.12s2.23.14,3.39.14a19.07,19.07,0,0,0,2.48-.15,8.61,8.61,0,0,0,3.89-1.42,6.49,6.49,0,0,0,1.7-1.76,6.68,6.68,0,0,0,.93-2.34,7.58,7.58,0,0,0,.16-1.56,7.73,7.73,0,0,0-.44-2.54,8.9,8.9,0,0,0-2.09-3.22,13.74,13.74,0,0,0-3.54-2.51,14.88,14.88,0,0,0-1.88-.81l-1.09,3.23,2.94,1.74a7.77,7.77,0,0,0,.56-1.24,8,8,0,0,0,.48-2.74,7.59,7.59,0,0,0-.53-2.8,8.65,8.65,0,0,0-3.36-3.94,17.6,17.6,0,0,0-6.27-2.36,29,29,0,0,0-5.84-.56,50.92,50.92,0,0,0-13.34,2,56.14,56.14,0,0,0-6.06,2.05l1.33,3.14,2.29,2.53a14.66,14.66,0,0,0,1.81-2,20,20,0,0,0,2.38-4.24,14.49,14.49,0,0,0,1.15-5.46,10.55,10.55,0,0,0-.36-2.8,7.55,7.55,0,0,0-3.15-4.34,8.82,8.82,0,0,0-4.81-1.41,9.38,9.38,0,0,0-5.31,1.65,10.25,10.25,0,0,0-3.8,5,24.85,24.85,0,0,1-1.53,3.4,12.83,12.83,0,0,1-2.82,3.52,29,29,0,0,1-5.09,3.46,11.33,11.33,0,0,0-3.09,2.56,12.14,12.14,0,0,0-2.41,4.65,16.71,16.71,0,0,0-.55,4.35,20,20,0,0,0,.6,4.91l3.29-.91-1.59-3Z" transform="translate(-19.41 -97.3)"/>
    <path class="cls-2" d="M326.26,328.48s-2.49-9,3.85-12.59,8.74-6.27,10.94-12.15,9.44-5.42,10.59-1.16-2.05,9.36-4,11.12c0,0,12.88-5.43,23.24-3.33s6.85,8,6.85,8,6.46,2.17,5.54,6.73-8.24,2.35-13.49,2.72c0,0,9.44,2.35,7.88,7.93s-9.91,3-12.84,2.51-14,.81-17.48,3.12-9.65,10.93-19.34,1.11S326.26,328.48,326.26,328.48Z" transform="translate(-19.41 -97.3)"/>
    <path class="cls-1" d="M351.59,320.84l.52-.12c2.37-.57,12.49-2.84,20.21-2.83a19.19,19.19,0,0,1,6.46.86l.6-1.6a20.75,20.75,0,0,0-7.06-1,83.38,83.38,0,0,0-14,1.5c-4.13.76-7.13,1.51-7.15,1.51l.42,1.65Z" transform="translate(-19.41 -97.3)"/>
    <path class="cls-1" d="M353.8,330.79l0,0,0,0h0l0,0,0,0c.1-.06,3.47-2.45,10.65-2.45a45.44,45.44,0,0,1,14.29,2.58l.53-1.62a46.89,46.89,0,0,0-14.82-2.67c-7.82,0-11.56,2.71-11.67,2.79l1,1.37Z" transform="translate(-19.41 -97.3)"/>
    <path class="cls-1" d="M331.8,330.9a10.47,10.47,0,0,1,1.4-4.25,12.17,12.17,0,0,1,2.94-3.46,13.57,13.57,0,0,1,1.92-1.27,10.77,10.77,0,0,1,2.15-.81,10.11,10.11,0,0,1,4.47-.21,31.45,31.45,0,0,0-4,1.46,15,15,0,0,0-3.46,2.15A24.91,24.91,0,0,0,331.8,330.9Z" transform="translate(-19.41 -97.3)"/>
    <path d="M256.52,498.83a7.81,7.81,0,0,1-7.79-7.77c-.32-53.58-7.45-73.92-7.75-74.76a4,4,0,0,1,.15-3.11,4,4,0,0,1,2.32-2.07l9.47-3.19a4.13,4.13,0,0,1,1.28-.21,4,4,0,0,1,3.79,2.72c.06.17,5.31,17.29,7.16,56.46,6.27-4.21,15.6-7.74,29.31-7.74,7.42,0,31.65,2.23,32,30.94a8.66,8.66,0,0,1-8.67,8.73Z" transform="translate(-19.41 -97.3)"/>
    <path class="cls-3" d="M294.46,463.16c-18.17,0-27.91,6.47-33,12.19-1.39-43.37-7-62.75-7.28-63.63l-9.47,3.2c.07.21,7.67,20.25,8,76.12a3.8,3.8,0,0,0,3.79,3.79h61.27a4.64,4.64,0,0,0,4.66-4.68C322.35,481.33,319.14,463.16,294.46,463.16Z" transform="translate(-19.41 -97.3)"/>
    <path class="cls-2" d="M304.28,484.52c12,0,14.06-6.08,14.21-9.9-3.72-6.22-10.78-11.46-24-11.46-18.17,0-27.91,6.47-33,12.19C261.48,485.82,286.83,484.52,304.28,484.52Z" transform="translate(-19.41 -97.3)"/>
    <path class="cls-4" d="M254.2,411.72l-9.47,3.2c0,.1,2,5.22,3.93,17.37,3.28-.57,6.35-1.21,9.19-1.91C256.08,418.14,254.36,412.2,254.2,411.72Z" transform="translate(-19.41 -97.3)"/>
    <path d="M124.84,498.83a8.66,8.66,0,0,1-8.67-8.73c.34-28.71,24.58-30.94,32-30.94,13.7,0,23,3.53,29.3,7.74,1.86-39.22,7.11-56.3,7.17-56.46a4,4,0,0,1,3.78-2.72,4,4,0,0,1,1.28.21l9.48,3.19a4,4,0,0,1,2.51,5.07c-.34.95-7.47,21.23-7.79,74.87a7.82,7.82,0,0,1-7.8,7.77Z" transform="translate(-19.41 -97.3)"/>
    <path class="cls-3" d="M148.17,463.16c18.16,0,27.9,6.47,33,12.19,1.39-43.37,7-62.75,7.28-63.63l9.48,3.2c-.07.21-7.67,20.25-8,76.12a3.8,3.8,0,0,1-3.8,3.79H124.84a4.65,4.65,0,0,1-4.67-4.68C120.28,481.33,123.49,463.16,148.17,463.16Z" transform="translate(-19.41 -97.3)"/>
    <path class="cls-2" d="M148.17,463.16c-13.26,0-20.31,5.24-24,11.46.15,3.82,2.25,9.9,14.21,9.9,17.44,0,42.79,1.3,42.79-9.17C176.07,469.63,166.33,463.16,148.17,463.16Z" transform="translate(-19.41 -97.3)"/>
    <path class="cls-4" d="M184.6,431.63q4.28.92,9.22,1.61c2-12.82,4-18.21,4.08-18.32l-9.48-3.2C188.26,412.21,186.42,418.53,184.6,431.63Z" transform="translate(-19.41 -97.3)"/>
    <path d="M219.1,429c-31.18.62-49.86-6.77-58.22-11.23a11.39,11.39,0,0,1-6-9.82l-1.56-78.87c-.48-24.57-37.54-72.94-37.92-73.43a4,4,0,0,1,1.27-6l38.06-20.55a4.12,4.12,0,0,1,1.82-.48,4,4,0,0,1,3.51,2c9.4,15.75,20.32,32.77,26.22,40.4.1-7.82-1.11-22.52-2.71-35.26a4,4,0,0,1,3.89-4.5L252,230a4,4,0,0,1,4.07,4.2c-.51,10.7-.53,23.11.16,29.64,5.13-6.07,14.63-19.35,22.52-31.19a4,4,0,0,1,3.25-1.78,3.9,3.9,0,0,1,1.57.29l35.8,14.43a4,4,0,0,1,1.77,6c-.36.5-35.49,50.3-35,74.87l1.55,78.87a11.36,11.36,0,0,1-5.63,10.05c-8.18,4.78-26.55,12.9-57.73,13.52Z" transform="translate(-19.41 -97.3)"/>
    <path class="cls-2" d="M252.1,234l-64.6,1.28s5.53,43.84.86,43.35-31.76-45.95-31.76-45.95l-38.06,20.55s38.24,49.6,38.75,75.79l1.56,78.88a7.37,7.37,0,0,0,3.91,6.36c7.34,3.92,25.47,11.37,56.26,10.76l5.25-.1c30.79-.61,48.61-8.77,55.79-13a7.37,7.37,0,0,0,3.65-6.52l-1.55-78.87c-.52-26.19,35.73-77.26,35.73-77.26L282.1,234.82s-22.62,33.92-27.24,35.75S252.1,234,252.1,234Z" transform="translate(-19.41 -97.3)"/>
    <path class="cls-4" d="M282.1,234.82s-11,16.49-19.23,27.1a21.09,21.09,0,0,0,2.76.2h.43a21.62,21.62,0,0,0,6.38-1.11,23.58,23.58,0,0,0,15.42,5.8h.47a23.35,23.35,0,0,0,8.19-1.64,17.55,17.55,0,0,0,8.51,4c7-11.59,12.86-19.87,12.86-19.87Z" transform="translate(-19.41 -97.3)"/>
    <path class="cls-4" d="M164.35,260.27a24.3,24.3,0,0,0,12.37,4.23c-9.18-13.51-20.12-31.87-20.12-31.87l-38.06,20.55s8.91,11.56,18.18,26.46a29.65,29.65,0,0,0,4-7.28A32,32,0,0,0,164.35,260.27Z" transform="translate(-19.41 -97.3)"/>
    <path class="cls-4" d="M233.46,270.52H234a26.33,26.33,0,0,0,18.16-7.5c-1-10.75-.08-29.06-.08-29.06l-64.6,1.28s2.47,19.62,2.71,32.47a27.3,27.3,0,0,0,16.85,5.81h.56A27.22,27.22,0,0,0,223,268.46,27.31,27.31,0,0,0,233.46,270.52Z" transform="translate(-19.41 -97.3)"/>
    <path class="cls-3" d="M283.71,405.38l-.4-20.51c-5.83,17.52-21.27,26.67-62.46,26.67-46.84,0-59.94-34.83-62.82-45.31l.82,41.62a7.37,7.37,0,0,0,3.91,6.36c7.34,3.92,25.47,11.37,56.26,10.76l5.25-.1c30.79-.61,48.61-8.77,55.79-13A7.37,7.37,0,0,0,283.71,405.38Z" transform="translate(-19.41 -97.3)"/>
    <path d="M138.6,256.74l17.11,26.15c1.06,1.61,3.62.06,2.56-1.56q-8.55-13.08-17.11-26.15C140.11,253.57,137.54,255.12,138.6,256.74Z" transform="translate(-19.41 -97.3)"/>
    <path d="M220.6,248l.51,25.61a1.5,1.5,0,0,0,3-.06l-.51-25.61A1.5,1.5,0,0,0,220.6,248Z" transform="translate(-19.41 -97.3)"/>
    <path d="M292.35,244.63q-8.21,12.52-16.39,25.06c-1.06,1.62,1.57,3.07,2.62,1.46q8.19-12.52,16.39-25.06C296,244.47,293.4,243,292.35,244.63Z" transform="translate(-19.41 -97.3)"/>
    <path d="M147.58,204.1a32.89,32.89,0,0,1-13.3-2.35,18.52,18.52,0,0,1-7.79,1.85c-8.38.17-15.46-5.13-16.87-12.19-8.21.08-15-7.23-15.19-16.38a19.41,19.41,0,0,1,.08-2.16,19.67,19.67,0,0,1,1-38.49c.1-10.46,8.93-19,20-19.26a19.69,19.69,0,0,1,3.44.21,20.71,20.71,0,0,1,19.86-18,20.31,20.31,0,0,1,16.72,8.37,12.38,12.38,0,0,1,6.72-2.18,12.87,12.87,0,0,1,9,3.58l.76,0a14.38,14.38,0,0,1,6.62,1.44,17.22,17.22,0,0,1,9.39-3,16.78,16.78,0,0,1,17.3,16.19,16.41,16.41,0,0,1-.21,3,17.68,17.68,0,0,1,11,15.9,17.45,17.45,0,0,1-5.81,13.37,12.76,12.76,0,0,1,1,4.59c.08,4.58-2.39,8.87-6.57,11.76a15.77,15.77,0,0,1,1.1,5.46c.16,8.27-6.09,15.12-13.93,15.27-.11,0-.21,0-.31,0a17,17,0,0,1-15.53,10.4,17.71,17.71,0,0,1-10.48-3.15C161.37,201.77,154.88,204,147.58,204.1Z" transform="translate(-19.41 -97.3)"/>
    <path class="cls-3" d="M212,140.64A13.63,13.63,0,0,0,200,127.43a12.06,12.06,0,0,0,1.3-5.67A12.77,12.77,0,0,0,188,109.49a13.15,13.15,0,0,0-9.19,4A9.86,9.86,0,0,0,172,111a11.69,11.69,0,0,0-2.32.32,9.27,9.27,0,0,0-7.42-3.86,9.5,9.5,0,0,0-7.71,4.83,16.53,16.53,0,0,0-15.73-11c-9.11.18-16.34,8-16.15,17.42a16.28,16.28,0,0,0,.14,1.87,17,17,0,0,0-7.29-1.47c-9,.17-16.2,7.22-16,15.74a14.42,14.42,0,0,0,.47,3.37,15.55,15.55,0,1,0-1.19,31.06c.24,0,.48,0,.72,0A14.14,14.14,0,0,0,98.43,175c.14,7,5.17,12.58,11.24,12.46a9.69,9.69,0,0,0,4-1,9.3,9.3,0,0,0-.33,2.59c.12,6,6,10.72,13,10.58a14.26,14.26,0,0,0,7.71-2.37,27.25,27.25,0,0,0,13.38,2.87c8.33-.16,15.32-3.35,17.62-7.6a13.25,13.25,0,0,0,10.74,4.91c6.73-.14,12.14-4.94,12.56-10.91a9.38,9.38,0,0,0,3.27.51c5.65-.11,10.13-5.12,10-11.19a11.45,11.45,0,0,0-2.63-7.13c4.86-1.86,8.18-5.7,8.1-10.09a9.12,9.12,0,0,0-2.33-5.77A13.54,13.54,0,0,0,212,140.64Z" transform="translate(-19.41 -97.3)"/>
    <path class="cls-5" d="M98.63,153.36c.11-10.46,8.94-19.05,20-19.27a21.85,21.85,0,0,1,3.44.21,20.7,20.7,0,0,1,19.86-18,20.35,20.35,0,0,1,16.72,8.36,12.45,12.45,0,0,1,6.72-2.17,12.89,12.89,0,0,1,9,3.58c.25,0,.51,0,.76,0a14.38,14.38,0,0,1,6.62,1.44,17.29,17.29,0,0,1,18.5-.58,12.06,12.06,0,0,0,1.06-5.11A12.77,12.77,0,0,0,188,109.49a13.15,13.15,0,0,0-9.19,4A9.86,9.86,0,0,0,172,111a11.69,11.69,0,0,0-2.32.32,9.27,9.27,0,0,0-7.42-3.86,9.5,9.5,0,0,0-7.71,4.83,16.53,16.53,0,0,0-15.73-11c-9.11.18-16.34,8-16.15,17.42a16.28,16.28,0,0,0,.14,1.87,17,17,0,0,0-7.29-1.47c-9,.17-16.2,7.22-16,15.74a14.42,14.42,0,0,0,.47,3.37A15.07,15.07,0,0,0,83.35,154a16,16,0,0,0,2.3,7.92A19.07,19.07,0,0,1,98.63,153.36Z" transform="translate(-19.41 -97.3)"/>
    <path d="M135.73,122.3a5.51,5.51,0,1,1,5.4-5.62A5.52,5.52,0,0,1,135.73,122.3Z" transform="translate(-19.41 -97.3)"/>
    <path class="cls-5" d="M139.13,116.72a3.51,3.51,0,1,1-3.58-3.44A3.51,3.51,0,0,1,139.13,116.72Z" transform="translate(-19.41 -97.3)"/>
    <path d="M183.48,127.16a4.6,4.6,0,1,1,4.51-4.68A4.6,4.6,0,0,1,183.48,127.16Z" transform="translate(-19.41 -97.3)"/>
    <path class="cls-5" d="M186,122.52a2.6,2.6,0,1,1-2.65-2.55A2.6,2.6,0,0,1,186,122.52Z" transform="translate(-19.41 -97.3)"/>
    <circle cx="151.18" cy="150.91" r="7.34" transform="translate(-81.8 58.02) rotate(-46.13)"/>
    <path class="cls-3" d="M156.52,150.81a5.35,5.35,0,1,1-5.45-5.24A5.33,5.33,0,0,1,156.52,150.81Z" transform="translate(-19.41 -97.3)"/>
    <path d="M167.6,150.69a4.14,4.14,0,1,1,4.06-4.22A4.14,4.14,0,0,1,167.6,150.69Z" transform="translate(-19.41 -97.3)"/>
    <path class="cls-3" d="M169.66,146.51a2.14,2.14,0,1,1-2.18-2.09A2.14,2.14,0,0,1,169.66,146.51Z" transform="translate(-19.41 -97.3)"/>
    <path d="M260.32,199.32A15.48,15.48,0,0,1,249,194.74a17.82,17.82,0,0,1-5.69,1,16.92,16.92,0,0,1-7.2-1.39,15.25,15.25,0,0,1-8.54,2.77,14.37,14.37,0,0,1-12.89-7,15.07,15.07,0,0,1-2.14.18c-8.35.17-15.27-6.07-15.43-13.91,0-.32,0-.63,0-.94a14.82,14.82,0,0,1-11.54-14.4,15.35,15.35,0,0,1,3.84-10.53,10.72,10.72,0,0,1,4.2-13.88c-1.55-7.31,1.87-15.71,9.08-21.06a23.78,23.78,0,0,1,13.51-4.77,19,19,0,0,1,7.12,1.19,21.89,21.89,0,0,1,19-11.38,22.59,22.59,0,0,1,13.29,4,15.08,15.08,0,0,1,12.11-6.64c7.52-.14,13.94,5.55,15.51,13.22a13,13,0,0,1,3.43-.53,11.34,11.34,0,0,1,7.85,2.83,11.2,11.2,0,0,1,3.51,6.56,17.29,17.29,0,0,1,3.52-.43c10-.2,18.26,8.11,18.46,18.53a19.08,19.08,0,0,1-9.1,16.75,13.51,13.51,0,0,1,.26,2.46,14.54,14.54,0,0,1-3.33,9.6,11,11,0,0,1,.93,4.27c.14,6.93-6.18,12.72-14.2,13.16-2.51,5-8.16,8.45-14.62,8.58a18.06,18.06,0,0,1-6.74-1.13A15.09,15.09,0,0,1,260.32,199.32Z" transform="translate(-19.41 -97.3)"/>
    <path class="cls-3" d="M316,138.31c-.16-8.23-6.6-14.77-14.38-14.61a13.54,13.54,0,0,0-8.74,3.44c2-3.74,1.74-8.09-1-10.59-3.35-3-9-2.18-12.67,1.83a14.33,14.33,0,0,0,.43-3.73c-.14-7.08-5.43-12.72-11.81-12.6-5.19.11-9.51,4-10.86,9.28a18.15,18.15,0,0,0-14.53-6.64c-8.4.17-15.31,5.77-17,13.13-5.12-4.22-13.61-3.95-20.34,1-7.17,5.33-9.78,14.14-6.29,20.38a6.7,6.7,0,0,0-3.87,12,11,11,0,0,0-5.34,9.83c.12,6.05,4.79,10.86,10.43,10.75a9.77,9.77,0,0,0,2.37-.36,9.64,9.64,0,0,0-1.28,4.95c.11,5.64,5.2,10.12,11.35,10a11.85,11.85,0,0,0,4.79-1.1c.41,4.5,4.85,8,10.24,7.89a10.77,10.77,0,0,0,8.09-3.7,12.12,12.12,0,0,0,7.65,2.32,12.68,12.68,0,0,0,7-2.13,11,11,0,0,0,10.07,5.67c5.69-.12,10.29-4.18,10.72-9.27a13.45,13.45,0,0,0,8.92,3c6-.12,11-3.86,11.92-8.68a12.92,12.92,0,0,0,2.08.12c6.12-.12,11-4.19,10.91-9.1a7.69,7.69,0,0,0-2.12-5,10.14,10.14,0,0,0,4.51-8.82,10.7,10.7,0,0,0-1.19-4.68A14.76,14.76,0,0,0,316,138.31Z" transform="translate(-19.41 -97.3)"/>
    <path class="cls-5" d="M200.25,135.63a23.75,23.75,0,0,1,13.52-4.78,19.07,19.07,0,0,1,7.12,1.2,21.83,21.83,0,0,1,19-11.38,22.58,22.58,0,0,1,13.3,4,15,15,0,0,1,12.1-6.64c7.53-.15,13.94,5.55,15.52,13.21a13.31,13.31,0,0,1,3.43-.52,11.31,11.31,0,0,1,7.85,2.83,11.13,11.13,0,0,1,3.5,6.56,17.49,17.49,0,0,1,3.53-.44,17.79,17.79,0,0,1,14.49,7.16,15.28,15.28,0,0,0,2.39-8.52c-.16-8.23-6.6-14.77-14.38-14.61a13.54,13.54,0,0,0-8.74,3.44c2-3.74,1.74-8.09-1-10.59-3.35-3-9-2.18-12.67,1.83a14.33,14.33,0,0,0,.43-3.73c-.14-7.08-5.43-12.72-11.81-12.6-5.19.11-9.51,4-10.86,9.28a18.15,18.15,0,0,0-14.53-6.64c-8.4.17-15.31,5.77-17,13.13-5.12-4.22-13.61-3.95-20.34,1-6.54,4.86-9.27,12.61-7.06,18.66A25.84,25.84,0,0,1,200.25,135.63Z" transform="translate(-19.41 -97.3)"/>
    <path d="M213.83,141.19a7.64,7.64,0,1,1,7.48-7.78A7.65,7.65,0,0,1,213.83,141.19Z" transform="translate(-19.41 -97.3)"/>
    <path class="cls-3" d="M219.31,133.45a5.64,5.64,0,1,1-5.74-5.53A5.63,5.63,0,0,1,219.31,133.45Z" transform="translate(-19.41 -97.3)"/>
    <path d="M245,121.59a5.12,5.12,0,1,1,5-5.22A5.11,5.11,0,0,1,245,121.59Z" transform="translate(-19.41 -97.3)"/>
    <path class="cls-5" d="M248.05,116.41a3.11,3.11,0,1,1-3.17-3A3.12,3.12,0,0,1,248.05,116.41Z" transform="translate(-19.41 -97.3)"/>
    <path d="M279.92,147.34a6.75,6.75,0,1,1,6.61-6.87A6.75,6.75,0,0,1,279.92,147.34Z" transform="translate(-19.41 -97.3)"/>
    <path class="cls-3" d="M284.53,140.5a4.75,4.75,0,1,1-4.84-4.65A4.74,4.74,0,0,1,284.53,140.5Z" transform="translate(-19.41 -97.3)"/>
    <path d="M87.39,292.62a20.66,20.66,0,0,1-19-11.94,18.64,18.64,0,0,1-7.63,1.76c-9.67.19-17.68-6.88-17.86-15.77a15,15,0,0,1,.09-1.89,15.38,15.38,0,0,1-7.82-12.22c-8.92-2.43-15.59-11.15-15.79-21.44-.19-9.67,5.42-18.23,13.44-21.51a18.45,18.45,0,0,1-.77-5,18.82,18.82,0,0,1,15.44-18.87,23.75,23.75,0,0,1,22.28-30.72,23.55,23.55,0,0,1,10,2c2.3-5,6.56-8.3,11.47-8.4a11.51,11.51,0,0,1,6.67,2,16.93,16.93,0,0,1,14.4-9.19A16.53,16.53,0,0,1,125.73,148c.42,0,.83-.06,1.24-.07a16.14,16.14,0,0,1,16.36,14.44,19.65,19.65,0,0,1,17.9,19,19.13,19.13,0,0,1-2.41,9.71,22.26,22.26,0,0,1,9.37,17.43,21.48,21.48,0,0,1-4.16,13,11.17,11.17,0,0,1,2.41,6.64,12,12,0,0,1-4.56,9.36,19.58,19.58,0,0,1,2.05,8.34c.24,12.13-10.79,22.22-24.59,22.49a28.83,28.83,0,0,1-3.09-.1c-2.11,10.22-10.2,17.84-19.92,18a19.37,19.37,0,0,1-11.82-3.79A20.68,20.68,0,0,1,87.39,292.62Z" transform="translate(-19.41 -97.3)"/>
    <path class="cls-2" d="M158.55,221.84a18,18,0,0,0,5.64-13.19c-.14-7-4.57-13-11.11-16.38a15.25,15.25,0,0,0,4.15-10.76,15.65,15.65,0,0,0-16.13-15.18,15.22,15.22,0,0,0-1.93.16,12.1,12.1,0,0,0-15.27-14c-2.46-4.28-6.67-7.07-11.42-7-6.57.13-11.92,5.75-12.89,13-1.79-3.57-4.8-5.91-8.18-5.84-4.58.09-8.31,4.55-9.18,10.43a19.76,19.76,0,0,0-28.42,26.69,14.75,14.75,0,0,0-17.72,14.79,14.64,14.64,0,0,0,2.35,7.69c-8.59.94-15.22,9-15,18.77s7.2,17.64,15.9,18.16a12.44,12.44,0,0,0-.17,2.21,11.3,11.3,0,0,0,8.58,10.92,10.93,10.93,0,0,0-.79,4.26c.13,6.69,6.3,12,13.78,11.85a14.17,14.17,0,0,0,9.82-4.06c1.56,8.25,8.52,14.4,16.77,14.24a16.91,16.91,0,0,0,15.82-13,16.16,16.16,0,0,0,13.12,6.71c9-.18,16.23-8.44,16.53-18.67a24.08,24.08,0,0,0,6.48.74c11.61-.23,20.87-8.47,20.67-18.41a16.08,16.08,0,0,0-3.51-9.62c3.69-1.8,6.08-4.77,6-8.08A8.26,8.26,0,0,0,158.55,221.84Z" transform="translate(-19.41 -97.3)"/>
    <path class="cls-5" d="M69.3,173.25a23.53,23.53,0,0,1,10,2c2.3-5,6.56-8.31,11.47-8.4a11.5,11.5,0,0,1,6.67,2,17,17,0,0,1,14.41-9.19,16.52,16.52,0,0,1,13.33,6.57c.41,0,.83-.07,1.24-.08a16.15,16.15,0,0,1,16.35,14.45,19.86,19.86,0,0,1,13.29,6.93,14.93,14.93,0,0,0,1.12-6,15.65,15.65,0,0,0-16.13-15.18,15.22,15.22,0,0,0-1.93.16,12.1,12.1,0,0,0-15.27-14c-2.46-4.28-6.67-7.07-11.42-7-6.57.13-11.92,5.75-12.89,13-1.79-3.57-4.8-5.91-8.18-5.84-4.58.09-8.31,4.55-9.18,10.43a19.7,19.7,0,0,0-31.35,19.52A23.74,23.74,0,0,1,69.3,173.25Z" transform="translate(-19.41 -97.3)"/>
    <path class="cls-3" d="M162.42,201.47c-4.23,6.58-12.16,11.12-21.35,11.3a28.73,28.73,0,0,1-3.08-.11c-2.11,10.23-10.2,17.85-19.92,18a19.31,19.31,0,0,1-11.82-3.8A20.34,20.34,0,0,1,70.17,225a18.64,18.64,0,0,1-7.63,1.76c-9.67.19-17.69-6.88-17.86-15.77a17.07,17.07,0,0,1,.08-1.89,15.34,15.34,0,0,1-7.56-10.49,14.84,14.84,0,0,0-1.11,5.93,14.64,14.64,0,0,0,2.35,7.69c-8.59.94-15.22,9-15,18.77s7.2,17.64,15.9,18.16a12.44,12.44,0,0,0-.17,2.21,11.3,11.3,0,0,0,8.58,10.92,10.93,10.93,0,0,0-.79,4.26c.13,6.69,6.3,12,13.78,11.85a14.21,14.21,0,0,0,9.83-4.06c1.55,8.25,8.51,14.4,16.76,14.24a16.91,16.91,0,0,0,15.82-13,16.16,16.16,0,0,0,13.12,6.71c9-.18,16.23-8.44,16.52-18.67a24.21,24.21,0,0,0,6.49.74c11.61-.23,20.87-8.47,20.67-18.41a16.08,16.08,0,0,0-3.51-9.62c3.69-1.8,6.08-4.77,6-8.08a8.26,8.26,0,0,0-3.89-6.46,18,18,0,0,0,5.64-13.19A17.06,17.06,0,0,0,162.42,201.47Z" transform="translate(-19.41 -97.3)"/>
    <path d="M59.35,208.79a7.35,7.35,0,1,1,7.2-7.49A7.35,7.35,0,0,1,59.35,208.79Z" transform="translate(-19.41 -97.3)"/>
    <path class="cls-2" d="M64.55,201.34a5.35,5.35,0,1,1-5.45-5.24A5.34,5.34,0,0,1,64.55,201.34Z" transform="translate(-19.41 -97.3)"/>
    <path d="M73.06,190A5,5,0,1,1,78,184.85,5,5,0,0,1,73.06,190Z" transform="translate(-19.41 -97.3)"/>
    <path class="cls-2" d="M76,184.89a3,3,0,1,1-3.09-3A3,3,0,0,1,76,184.89Z" transform="translate(-19.41 -97.3)"/>
    <path d="M77.53,271.91A8.6,8.6,0,1,1,86,263.15,8.61,8.61,0,0,1,77.53,271.91Z" transform="translate(-19.41 -97.3)"/>
    <path class="cls-3" d="M84,263.19a6.6,6.6,0,1,1-6.73-6.47A6.59,6.59,0,0,1,84,263.19Z" transform="translate(-19.41 -97.3)"/>
    <path d="M92.2,247a5.57,5.57,0,1,1,5.45-5.68A5.58,5.58,0,0,1,92.2,247Z" transform="translate(-19.41 -97.3)"/>
    <path class="cls-3" d="M95.65,241.38A3.57,3.57,0,1,1,92,237.89,3.56,3.56,0,0,1,95.65,241.38Z" transform="translate(-19.41 -97.3)"/>
    <path d="M323,270.64a13.06,13.06,0,0,1-11.23-6.15,10.74,10.74,0,0,1-4,.85,11.78,11.78,0,0,1-9.95-5.64,17.7,17.7,0,0,1-9.64,3.1A17.93,17.93,0,0,1,270,245.16a17.65,17.65,0,0,1,.08-2.06,12.58,12.58,0,0,1-9.24-11.76,11.56,11.56,0,0,1,.06-1.44,15.75,15.75,0,0,1-7.3-20.42,19.9,19.9,0,0,1-5.14-13,19.45,19.45,0,0,1,9.35-17.18,13.83,13.83,0,0,1-.5-3.45,14.67,14.67,0,0,1,14.55-14.76c.46,0,.92,0,1.38,0a14.2,14.2,0,0,1,11.88-6.63,15.74,15.74,0,0,1,1.82.07c1.5-7.85,8.84-13.92,17.75-14.1A19.33,19.33,0,0,1,316,143.83a20.78,20.78,0,0,1,18.48-12.92c8.58-.17,16.26,5.36,19.54,13.48a22.38,22.38,0,0,1,7.24-1.35c12-.23,21.93,9,22.18,20.56a18.64,18.64,0,0,1,12.67,31A21,21,0,0,1,400.39,207c.19,9.42-5.67,17.47-13.73,19.85V227a11,11,0,0,1-1.93,6.47,16.75,16.75,0,0,1,2,7.53c.19,9.86-8.27,18-18.87,18.25a20.38,20.38,0,0,1-6.64-1c-2.37,6.35-9.17,11-17.26,11.18a20.25,20.25,0,0,1-11.55-3.24A12.87,12.87,0,0,1,323,270.64Z" transform="translate(-19.41 -97.3)"/>
    <path class="cls-2" d="M390.35,194.38A14.58,14.58,0,0,0,379,168a16.24,16.24,0,0,0,.49-4.26c-.18-9.41-8.29-16.88-18.1-16.69a18.2,18.2,0,0,0-9.87,3.1c-1.33-8.77-8.45-15.4-16.92-15.23-8.89.17-16,7.78-16.4,17.23a14.49,14.49,0,0,0-13.36-7.64c-7.93.16-14.25,6.12-14.11,13.31a11.73,11.73,0,0,0,.28,2.24,10.69,10.69,0,0,0-5.74-1.52c-4.76.09-8.67,3.17-9.52,7.17a11.29,11.29,0,0,0-3.75-.58,10.65,10.65,0,0,0-10.62,10.68,10.09,10.09,0,0,0,1.8,5.56,15.2,15.2,0,0,0-10.65,15.07,15.58,15.58,0,0,0,6.22,12.27,11.73,11.73,0,0,0,7.1,18.66,8.06,8.06,0,0,0-.94,3.9,8.7,8.7,0,0,0,9.05,8.34,10.64,10.64,0,0,0,1.15-.13,14.14,14.14,0,0,0-1,5.61,13.9,13.9,0,0,0,14.09,13.72,13.73,13.73,0,0,0,11.18-6.17c.84,5,4.32,8.79,8.41,8.71a7.53,7.53,0,0,0,5.81-3.24c.81,4.92,4.72,8.63,9.4,8.54a9.42,9.42,0,0,0,8.53-6.58,15.31,15.31,0,0,0,12.39,5.44c8-.16,14.38-5.68,14.24-12.34,0-.28,0-.56-.06-.85a16,16,0,0,0,9.72,3c8.41-.17,15.1-6.52,14.95-14.18a13,13,0,0,0-3-8,7.25,7.25,0,0,0,3-6,6.9,6.9,0,0,0-1.06-3.53H382c8.13-.16,14.58-7.54,14.4-16.48A16.72,16.72,0,0,0,390.35,194.38Z" transform="translate(-19.41 -97.3)"/>
    <path class="cls-5" d="M256.73,198.05a14.42,14.42,0,0,1,14-18.2,12.91,12.91,0,0,1,1.39,0A14.18,14.18,0,0,1,284,173.25a15.81,15.81,0,0,1,1.83.08c1.5-7.86,8.83-13.92,17.75-14.1a19.3,19.3,0,0,1,11.28,3.32,20.79,20.79,0,0,1,18.48-12.92c8.58-.17,16.27,5.37,19.54,13.48a22.69,22.69,0,0,1,7.24-1.34c12-.24,21.93,9,22.19,20.56a18.39,18.39,0,0,1,12.93,6.48A14.52,14.52,0,0,0,379,168a16.24,16.24,0,0,0,.49-4.26c-.18-9.41-8.29-16.88-18.1-16.69a18.2,18.2,0,0,0-9.87,3.1c-1.33-8.77-8.45-15.4-16.92-15.23-8.89.17-16,7.78-16.4,17.23a14.49,14.49,0,0,0-13.36-7.64c-7.93.16-14.25,6.12-14.11,13.31a11.73,11.73,0,0,0,.28,2.24,10.69,10.69,0,0,0-5.74-1.52c-4.76.09-8.67,3.17-9.52,7.17a11.29,11.29,0,0,0-3.75-.58,10.65,10.65,0,0,0-10.62,10.68,10.09,10.09,0,0,0,1.8,5.56,15.2,15.2,0,0,0-10.65,15.07,16,16,0,0,0,.71,4.37A19.17,19.17,0,0,1,256.73,198.05Z" transform="translate(-19.41 -97.3)"/>
    <path class="cls-3" d="M396.39,207.33a20.63,20.63,0,0,1-10.63-.49c-2.38,6.34-9.18,11-17.27,11.18a20.33,20.33,0,0,1-11.55-3.24,12.85,12.85,0,0,1-9.37,4.38A13.07,13.07,0,0,1,336.33,213a10.69,10.69,0,0,1-4,.85,11.81,11.81,0,0,1-10-5.64,17.64,17.64,0,0,1-9.64,3.1,17.93,17.93,0,0,1-18.17-17.64,20,20,0,0,1,.08-2.06,12.6,12.6,0,0,1-9.24-11.77,11.4,11.4,0,0,1,.06-1.43,15.75,15.75,0,0,1-8.64-13.74,16,16,0,0,1,.08-1.83,8.29,8.29,0,0,0-1.22,2.85,11.29,11.29,0,0,0-3.75-.58,10.65,10.65,0,0,0-10.62,10.68,10.09,10.09,0,0,0,1.8,5.56,15.2,15.2,0,0,0-10.65,15.07,15.58,15.58,0,0,0,6.22,12.27,11.73,11.73,0,0,0,7.1,18.66,8.06,8.06,0,0,0-.94,3.9,8.7,8.7,0,0,0,9.05,8.34,10.64,10.64,0,0,0,1.15-.13,14.14,14.14,0,0,0-1,5.61,13.9,13.9,0,0,0,14.09,13.72,13.73,13.73,0,0,0,11.18-6.17c.84,5,4.32,8.79,8.41,8.71a7.53,7.53,0,0,0,5.81-3.24c.81,4.92,4.72,8.63,9.4,8.54a9.42,9.42,0,0,0,8.53-6.58,15.31,15.31,0,0,0,12.39,5.44c8-.16,14.38-5.68,14.24-12.34a8.29,8.29,0,0,0-.06-.85,16,16,0,0,0,9.72,3c8.41-.17,15.1-6.52,14.95-14.18a13,13,0,0,0-3-8,7.25,7.25,0,0,0,3-6,6.9,6.9,0,0,0-1.06-3.53H382C390.05,223.43,396.46,216.17,396.39,207.33Z" transform="translate(-19.41 -97.3)"/>
    <path d="M330.33,160.61a6.75,6.75,0,1,1,6.62-6.88A6.75,6.75,0,0,1,330.33,160.61Z" transform="translate(-19.41 -97.3)"/>
    <path class="cls-2" d="M335,153.77a4.75,4.75,0,1,1-4.84-4.65A4.75,4.75,0,0,1,335,153.77Z" transform="translate(-19.41 -97.3)"/>
    <path d="M366.34,220.54a6.26,6.26,0,1,1,6.14-6.38A6.26,6.26,0,0,1,366.34,220.54Z" transform="translate(-19.41 -97.3)"/>
    <path class="cls-2" d="M370.48,214.2a4.26,4.26,0,1,1-4.35-4.18A4.26,4.26,0,0,1,370.48,214.2Z" transform="translate(-19.41 -97.3)"/>
    <path d="M311.07,214.81a9.55,9.55,0,1,1,9.36-9.73A9.56,9.56,0,0,1,311.07,214.81Z" transform="translate(-19.41 -97.3)"/>
    <path class="cls-3" d="M318.43,205.12a7.55,7.55,0,1,1-7.7-7.4A7.54,7.54,0,0,1,318.43,205.12Z" transform="translate(-19.41 -97.3)"/>
    <path d="M331,204.92a5.29,5.29,0,1,1,5.19-5.39A5.29,5.29,0,0,1,331,204.92Z" transform="translate(-19.41 -97.3)"/>
    <path class="cls-2" d="M334.15,199.57a3.29,3.29,0,1,1-3.36-3.22A3.29,3.29,0,0,1,334.15,199.57Z" transform="translate(-19.41 -97.3)"/>
    <path d="M340.05,252a4.19,4.19,0,1,1,4.11-4.28A4.2,4.2,0,0,1,340.05,252Z" transform="translate(-19.41 -97.3)"/>
    <path class="cls-3" d="M342.16,247.75a2.19,2.19,0,1,1-4.38.09,2.19,2.19,0,0,1,4.38-.09Z" transform="translate(-19.41 -97.3)"/>
    <path d="M364,169.69a4.19,4.19,0,1,1,4.1-4.27A4.2,4.2,0,0,1,364,169.69Z" transform="translate(-19.41 -97.3)"/>
    <path class="cls-2" d="M366.11,165.46a2.2,2.2,0,1,1-2.24-2.15A2.19,2.19,0,0,1,366.11,165.46Z" transform="translate(-19.41 -97.3)"/>
    <path d="M207.5,269.51A20.91,20.91,0,0,1,188,257.58a18.26,18.26,0,0,1-9.57,3,19,19,0,0,1-17.94-12.41c-7.9-2.73-13.53-10.8-13.72-20.09a23,23,0,0,1,1.68-9.15,15.1,15.1,0,0,1-6.32-11.76,14.77,14.77,0,0,1,4.39-10.68A23.47,23.47,0,0,1,141.11,182c-.26-13.3,10.82-24.34,24.7-24.61a25.73,25.73,0,0,1,6.44.68c3.12-9,10.68-15.18,19.27-15.35a19.85,19.85,0,0,1,15.3,7,24.28,24.28,0,0,1,18.68-8.93,24.56,24.56,0,0,1,17,6.07,17.72,17.72,0,0,1,29,2.74,21.6,21.6,0,0,1,4.82-.64c11.74-.23,21.47,8.89,21.7,20.34a20.55,20.55,0,0,1-5.68,14.51,21.65,21.65,0,0,1-3.07,34.74,17.08,17.08,0,0,1,3.2,9.63A17.36,17.36,0,0,1,280.38,245a14.6,14.6,0,0,1-14.44,13.08,14.91,14.91,0,0,1-8.59-2.48,26.88,26.88,0,0,1-6.66,1.53c-3.11,5.55-9.53,9.2-16.78,9.35a20.79,20.79,0,0,1-11.73-3.24A21.11,21.11,0,0,1,207.5,269.51Z" transform="translate(-19.41 -97.3)"/>
    <path class="cls-2" d="M295.67,199.7a17.46,17.46,0,0,0-10.12-15.58A16.69,16.69,0,0,0,294,169.38,17,17,0,0,0,276.4,153a17.71,17.71,0,0,0-7.12,1.65,13.75,13.75,0,0,0-26.24-.83c-3.23-5.46-9.85-9.15-17.46-9-9,.18-16.4,5.65-18.37,12.88-3-6.63-8.89-11.09-15.61-11-8.25.16-15,7.21-16.55,16.48a22,22,0,0,0-9.16-1.81c-11.69.23-21,9.42-20.78,20.53a19.61,19.61,0,0,0,7.5,14.94c-4,2.22-6.54,6-6.46,10.22.09,4.5,3.16,8.35,7.61,10.32a18.87,18.87,0,0,0-3,10.6c.17,8.48,5.69,15.44,12.84,16.88,1.83,6.85,7.77,11.83,14.74,11.69a14.63,14.63,0,0,0,11.89-6.71c.19,8.84,7.86,15.85,17.15,15.67a17,17,0,0,0,14.17-7.92,16.14,16.14,0,0,0,12.24,4.93c6.76-.14,12.41-4,14.22-9.18a21.82,21.82,0,0,0,9.87-2.37,11,11,0,0,0,7.94,3.15,10.5,10.5,0,0,0,10.56-10.44,9.06,9.06,0,0,0-.23-1.82,13.55,13.55,0,0,0,12.28-13.6A13.28,13.28,0,0,0,282,217.15,17.37,17.37,0,0,0,295.67,199.7Z" transform="translate(-19.41 -97.3)"/>
    <path class="cls-5" d="M166,173.15a25.78,25.78,0,0,1,6.44.68c3.12-9,10.68-15.18,19.27-15.35a19.85,19.85,0,0,1,15.3,7,24.32,24.32,0,0,1,18.68-8.94,24.61,24.61,0,0,1,17,6.08,17.72,17.72,0,0,1,29,2.74,21.56,21.56,0,0,1,22,7.39,16.52,16.52,0,0,0,.33-3.39A17,17,0,0,0,276.4,153a17.71,17.71,0,0,0-7.12,1.65,13.75,13.75,0,0,0-26.24-.83c-3.23-5.46-9.85-9.15-17.46-9-9,.18-16.4,5.65-18.37,12.88-3-6.63-8.89-11.09-15.61-11-8.25.16-15,7.21-16.55,16.48a22,22,0,0,0-9.16-1.81c-11.69.23-21,9.42-20.78,20.53a20,20,0,0,0,.2,2.33A25.47,25.47,0,0,1,166,173.15Z" transform="translate(-19.41 -97.3)"/>
    <path class="cls-3" d="M282.21,222.43a14.59,14.59,0,0,1-14.43,13.09,14.91,14.91,0,0,1-8.59-2.48,26.55,26.55,0,0,1-6.66,1.52c-3.12,5.55-9.53,9.21-16.78,9.35A20.71,20.71,0,0,1,224,240.67a21.27,21.27,0,0,1-34.15-5.7,18.27,18.27,0,0,1-9.57,3,19,19,0,0,1-17.94-12.41,19.64,19.64,0,0,1-9.27-6.94A18.86,18.86,0,0,0,150.8,228c.17,8.48,5.69,15.44,12.84,16.88,1.83,6.85,7.77,11.83,14.74,11.69a14.63,14.63,0,0,0,11.89-6.71c.19,8.84,7.86,15.85,17.15,15.67a17,17,0,0,0,14.17-7.92,16.13,16.13,0,0,0,12.24,4.93c6.76-.14,12.41-4,14.22-9.18a21.82,21.82,0,0,0,9.87-2.37,11,11,0,0,0,7.94,3.15,10.5,10.5,0,0,0,10.56-10.44,9.06,9.06,0,0,0-.23-1.82,13.56,13.56,0,0,0,12.28-13.6,13,13,0,0,0-2.57-7.51A18.14,18.14,0,0,1,282.21,222.43Z" transform="translate(-19.41 -97.3)"/>
    <path d="M165.19,132.32a10.64,10.64,0,0,0-5.65-2.72,10.9,10.9,0,0,0-6.38,1.06,11,11,0,0,0-3.19,2.5,12.32,12.32,0,0,0-5.23-4.65,12.47,12.47,0,0,0-9.31-.57,12,12,0,0,0-6.89,6,10.84,10.84,0,0,0-.55,8.64,11.73,11.73,0,0,1,2-7.81,10.76,10.76,0,0,1,6.19-4.32,10.38,10.38,0,0,1,12.24,6.06l1.2,2.93,1.44-2.81a8.69,8.69,0,0,1,3.36-3.65,9,9,0,0,1,4.94-1.27,9.83,9.83,0,0,1,5.07,1.62,10.43,10.43,0,0,1,3.66,4.28A9.46,9.46,0,0,0,165.19,132.32Z" transform="translate(-19.41 -97.3)"/>
    <path d="M272.81,127.85a5.58,5.58,0,0,1,2.55-4.21,7,7,0,0,1,9.65,1.81,5.59,5.59,0,0,1,.83,4.87,8.2,8.2,0,0,0-5.84-4.8,7.55,7.55,0,0,0-3.58.2A9.65,9.65,0,0,0,272.81,127.85Z" transform="translate(-19.41 -97.3)"/>
    <path d="M261.64,127.77a8.67,8.67,0,0,0-4.83-1.94,9,9,0,0,0-5.25,1.27,9.3,9.3,0,0,0-2.31,2,10.19,10.19,0,0,0-4.45-3.27,10.34,10.34,0,0,0-7.79.19,9.87,9.87,0,0,0-5.25,5.45,8.72,8.72,0,0,0,.26,7.12,9.68,9.68,0,0,1,1.23-6.41,8.7,8.7,0,0,1,4.7-3.77,8.41,8.41,0,0,1,5.79.17,8.29,8.29,0,0,1,4.24,3.85l1.44,2.81,1.2-2.91a6.82,6.82,0,0,1,2.37-3.08,7.16,7.16,0,0,1,3.79-1.38,8.22,8.22,0,0,1,7.5,4A7.68,7.68,0,0,0,261.64,127.77Z" transform="translate(-19.41 -97.3)"/>
    <path d="M95.54,186.91a9.74,9.74,0,0,1,1.3-7.65,11.36,11.36,0,0,1,14.68-4.11,9.73,9.73,0,0,1,5.07,5.87,14.12,14.12,0,0,0-6-3.71,11.88,11.88,0,0,0-6.45,0,11.64,11.64,0,0,0-5.48,3.39A13.75,13.75,0,0,0,95.54,186.91Z" transform="translate(-19.41 -97.3)"/>
    <path d="M76,210.82a15.59,15.59,0,0,0-10.35,4.55,16.11,16.11,0,0,0-4.75,10.44,16.81,16.81,0,0,0,2,9.13A8.61,8.61,0,0,0,60,236.1a8.39,8.39,0,0,0-3.47,9.08,7.59,7.59,0,0,0,2.61,4,7.77,7.77,0,0,1-.82-8.32A7,7,0,0,1,61.17,238a6,6,0,0,1,3.78-.63l2.82.5-1.61-2.52A15.12,15.12,0,0,1,63.83,226a14.48,14.48,0,0,1,3.75-8.76,14.75,14.75,0,0,1,8.55-4.6,16.76,16.76,0,0,1,10.11,1.68A15,15,0,0,0,76,210.82Z" transform="translate(-19.41 -97.3)"/>
    <path d="M132.68,199.48a10.58,10.58,0,0,0-6.26-.39,10.82,10.82,0,0,0-5.51,3.39,11.08,11.08,0,0,0-2,3.52,12.54,12.54,0,0,0-15.43.66,11.93,11.93,0,0,0-4.13,8.12,10.81,10.81,0,0,0,2.75,8.2,11.67,11.67,0,0,1-1.11-8,10.75,10.75,0,0,1,4.1-6.34,10.38,10.38,0,0,1,13.63,1l2.22,2.26.27-3.15a8.64,8.64,0,0,1,1.73-4.65,9,9,0,0,1,4.09-3,9.83,9.83,0,0,1,5.31-.42,10.59,10.59,0,0,1,5,2.58A9.5,9.5,0,0,0,132.68,199.48Z" transform="translate(-19.41 -97.3)"/>
    <path d="M131.74,237.2a12,12,0,0,0-6.93.19,11.6,11.6,0,0,0-5.82,4.15,10.62,10.62,0,0,0-2,4.6,11.36,11.36,0,0,0-6.26-.62,11.53,11.53,0,0,0-7.13,4.47,12.8,12.8,0,0,0-1.92,3.7,13.14,13.14,0,0,0-.56,4.06A11.47,11.47,0,0,0,103.9,265a12.3,12.3,0,0,1,1.64-13.5,9.43,9.43,0,0,1,5.71-3.16,9,9,0,0,1,6.27,1.32l2.48,1.54-.21-2.85a8.76,8.76,0,0,1,1.43-5.28,10.38,10.38,0,0,1,4.38-3.65,11.8,11.8,0,0,1,11.73,1.35A10.55,10.55,0,0,0,131.74,237.2Z" transform="translate(-19.41 -97.3)"/>
    <path d="M362.22,195.25a5.59,5.59,0,0,1,1.48-4.71,7,7,0,0,1,9.79-.53,5.6,5.6,0,0,1,2,4.53,8.2,8.2,0,0,0-6.82-3.27,7.51,7.51,0,0,0-3.42,1A9.58,9.58,0,0,0,362.22,195.25Z" transform="translate(-19.41 -97.3)"/>
    <path d="M347,175.85a7.31,7.31,0,0,0-3.67-2.54,7.43,7.43,0,0,0-4.66.07,8.1,8.1,0,0,0-2.2,1.23,14.86,14.86,0,0,0-5.33-6.14,14.31,14.31,0,0,0-10-2.22,13.79,13.79,0,0,0-8.76,4.95,13,13,0,0,0-2.9,9.17,14.89,14.89,0,0,1,4.27-7.92,12.92,12.92,0,0,1,7.72-3.48,12.68,12.68,0,0,1,8,2,13.36,13.36,0,0,1,5.26,6.49l1.05,2.81,1.29-2.55a5.09,5.09,0,0,1,2.37-2.28,6,6,0,0,1,3.44-.49,6.8,6.8,0,0,1,5.43,4.9A6.65,6.65,0,0,0,347,175.85Z" transform="translate(-19.41 -97.3)"/>
    <path d="M346.75,225.62a12.37,12.37,0,0,0-6.84-2.57A12.37,12.37,0,0,0,329,228.41a14.58,14.58,0,0,0-17.52-5A14,14,0,0,0,304,231,12.83,12.83,0,0,0,304,241.1a13.73,13.73,0,0,1,1.45-9.43,12.86,12.86,0,0,1,6.92-5.84,12.54,12.54,0,0,1,8.83.16,12.41,12.41,0,0,1,6.47,5.91l1.43,2.82,1.21-2.92a10.45,10.45,0,0,1,3.71-4.71,10.8,10.8,0,0,1,5.82-2,11.72,11.72,0,0,1,6.18,1.52,12.29,12.29,0,0,1,4.66,4.77A11.26,11.26,0,0,0,346.75,225.62Z" transform="translate(-19.41 -97.3)"/>
    <path d="M276.58,200.72a8.34,8.34,0,0,0-8.45-4.8,8.6,8.6,0,0,0-2.91.88,16.81,16.81,0,0,0-4.27-8.3,16.14,16.14,0,0,0-10.31-5.05,15.59,15.59,0,0,0-10.88,3.07,14.91,14.91,0,0,0-5.69,9.25,16.78,16.78,0,0,1,6.73-7.71,14.7,14.7,0,0,1,9.53-1.88,14.42,14.42,0,0,1,8.46,4.37,15.24,15.24,0,0,1,4.13,8.68l.35,3,1.86-2.18a6,6,0,0,1,3.32-1.91,6.9,6.9,0,0,1,4,.41,7.76,7.76,0,0,1,4.65,6.95A7.61,7.61,0,0,0,276.58,200.72Z" transform="translate(-19.41 -97.3)"/>
    <path d="M231.75,225.05a12,12,0,0,0-6.46-2.8,12,12,0,0,0-10.74,4.58,14.05,14.05,0,0,0-16.61-5.53,13.46,13.46,0,0,0-7.55,6.9A12.33,12.33,0,0,0,190,238a13.25,13.25,0,0,1,1.86-9,12.27,12.27,0,0,1,6.91-5.25,11.94,11.94,0,0,1,14.35,6.5l1.29,2.9,1.35-2.86a10,10,0,0,1,3.76-4.34,10.4,10.4,0,0,1,5.65-1.62A11.25,11.25,0,0,1,231,226a11.76,11.76,0,0,1,4.27,4.79A10.79,10.79,0,0,0,231.75,225.05Z" transform="translate(-19.41 -97.3)"/>
    <path d="M207.74,181a12.12,12.12,0,0,0-6.46-2.54,11.74,11.74,0,0,0-7,1.55,11,11,0,0,0-3.6,3.48,11.3,11.3,0,0,0-5.52-3,11.53,11.53,0,0,0-8.31,1.32,12.18,12.18,0,0,0-5.3,6.19,11.38,11.38,0,0,0-.33,7.77A12.32,12.32,0,0,1,178,184a9.52,9.52,0,0,1,6.49-.68,9.05,9.05,0,0,1,5.25,3.67l1.69,2.38.92-2.71a8.84,8.84,0,0,1,3.37-4.3,10.42,10.42,0,0,1,5.46-1.65,11.82,11.82,0,0,1,10.28,5.82A10.62,10.62,0,0,0,207.74,181Z" transform="translate(-19.41 -97.3)"/>
    <path d="M229.37,175.66a7.47,7.47,0,1,1,7.32-7.62A7.49,7.49,0,0,1,229.37,175.66Z" transform="translate(-19.41 -97.3)"/>
    <path class="cls-2" d="M234.69,168.08a5.47,5.47,0,1,1-5.58-5.36A5.47,5.47,0,0,1,234.69,168.08Z" transform="translate(-19.41 -97.3)"/>
    <path d="M252.66,175.55a5.71,5.71,0,1,1,5.59-5.82A5.71,5.71,0,0,1,252.66,175.55Z" transform="translate(-19.41 -97.3)"/>
    <path class="cls-2" d="M256.26,169.77a3.71,3.71,0,1,1-3.78-3.63A3.71,3.71,0,0,1,256.26,169.77Z" transform="translate(-19.41 -97.3)"/>
    <path d="M262.4,239.6a7.47,7.47,0,1,1,7.32-7.62A7.48,7.48,0,0,1,262.4,239.6Z" transform="translate(-19.41 -97.3)"/>
    <path class="cls-2" d="M267.72,232a5.47,5.47,0,1,1-5.58-5.36A5.47,5.47,0,0,1,267.72,232Z" transform="translate(-19.41 -97.3)"/>
    <path d="M197.91,209.46a6.06,6.06,0,1,1,5.94-6.18A6.06,6.06,0,0,1,197.91,209.46Z" transform="translate(-19.41 -97.3)"/>
    <path class="cls-2" d="M201.85,203.32a4.06,4.06,0,1,1-4.14-4A4.06,4.06,0,0,1,201.85,203.32Z" transform="translate(-19.41 -97.3)"/>
    <path d="M178.07,223.61a9.59,9.59,0,1,1,9.4-9.77A9.59,9.59,0,0,1,178.07,223.61Z" transform="translate(-19.41 -97.3)"/>
    <circle class="cls-2" cx="177.88" cy="214.03" r="7.59" transform="translate(-119.1 96.65) rotate(-46.13)"/>
    <path class="cls-3" d="M244.86,282.21a25.9,25.9,0,0,0-19.39,9.5,30.33,30.33,0,1,0-20.86,51.74,30,30,0,0,0,21.59-9.67,26.3,26.3,0,0,0,19.85,8.86c15.09-.3,27.1-14.1,26.77-30.76S260,281.91,244.86,282.21Z" transform="translate(-19.41 -97.3)"/>
    <path d="M246.05,347.27a26.29,26.29,0,0,1-19.85-8.85,30,30,0,0,1-21.59,9.67,30.34,30.34,0,1,1,20.86-51.74,25.86,25.86,0,0,1,19.39-9.5c15.09-.3,27.63,13,28,29.67S261.14,347,246.05,347.27Z" transform="translate(-19.41 -97.3)"/>
    <path class="cls-6" d="M244.92,289.85c-8,.15-14.93,4.58-19.25,11.27a27.34,27.34,0,1,0,.56,32.52c4.57,6.59,11.75,10.79,19.76,10.64,13.46-.27,24.13-12.67,23.83-27.7S258.38,289.58,244.92,289.85Z" transform="translate(-19.41 -97.3)"/>
    <path class="cls-6" d="M203.41,297.56a30.41,30.41,0,0,1,22.06,8.93A25.91,25.91,0,0,1,244.86,297c10.59-.2,19.91,6.3,24.65,15.95-1.87-13.26-12.24-23.33-24.59-23.08-8,.15-14.93,4.58-19.25,11.27a27.29,27.29,0,0,0-48.75,13.14A30.37,30.37,0,0,1,203.41,297.56Z" transform="translate(-19.41 -97.3)"/>
    <path d="M220.31,325.79a4.71,4.71,0,1,1-4.8-4.61A4.71,4.71,0,0,1,220.31,325.79Z" transform="translate(-19.41 -97.3)"/>
    <path d="M261.19,327a4.71,4.71,0,1,1-4.8-4.61A4.7,4.7,0,0,1,261.19,327Z" transform="translate(-19.41 -97.3)"/>
    <path d="M176.16,470.86a24.11,24.11,0,0,1,8.92,13.2s1.46-8.25-7.61-17.16Z" transform="translate(-19.41 -97.3)"/>
    <path d="M266.46,470.86a24.11,24.11,0,0,0-8.92,13.2s-1.46-8.25,7.61-17.16Z" transform="translate(-19.41 -97.3)"/>
    <path d="M191.51,364.24a11,11,0,0,0,9.25,11.09S186.53,377.41,191.51,364.24Z" transform="translate(-19.41 -97.3)"/>
    <path d="M257.15,367.73a11.05,11.05,0,0,0-4.64-13.68S266.54,357.23,257.15,367.73Z" transform="translate(-19.41 -97.3)"/>
    <path d="M239.54,367.8s-9.84-2-13.13.2-2.55,5,.76,3.58S236.54,367.81,239.54,367.8Z" transform="translate(-19.41 -97.3)"/>
    <path d="M257.88,358.73s-41-1.66-57.33,6.74c-2.17,1.23-8.4,6.63,1.24,2.33s30.16-8.37,57.29-6.91Z" transform="translate(-19.41 -97.3)"/>
    <path class="cls-2" d="M262.05,358.3a6.6,6.6,0,0,1,8.21-5.05c9.62,2.64,23.25,6.57,30.13,5.85a3.57,3.57,0,0,0,1.38-.42C314,352,326,334.9,326,334.9l8.45,8.42s-8.81,16-24.71,26.41c-8.28,5.12-31.95-.64-43-3.77A6.58,6.58,0,0,1,262.05,358.3Z" transform="translate(-19.41 -97.3)"/>
    <path d="M348.67,316s5.69,9.25,3.62,19.78C352.29,335.79,358.88,325.34,348.67,316Z" transform="translate(-19.41 -97.3)"/>
    <path class="cls-3" d="M376.23,331.11s.83,6.74-7.22,4.68c-5.83-1.49-20.13-.93-26.18,4.41-3.2,2.84-4.41,3.47-6.37,3.74a49.44,49.44,0,0,1-6.44-.15s.88,1.86,4.44,3.3c1.64.66,4.43.53,7.72-1.7,5.15-3.49,4.05-4.43,10.6-6s11.28-1.31,13.37-.91,8.53,2.19,10.79-1.23A4.39,4.39,0,0,0,376.23,331.11Z" transform="translate(-19.41 -97.3)"/>
    <path class="cls-3" d="M282.92,364.33s16.69,4.4,23.79.93c6.26-3.05,15.72-14.49,22.62-20.93.93-.87,2.66,2.58,3.45,1.75,0,0-5.44,9.34-16.87,19.09-6.52,5.71-9.33,6.28-12.79,6.44s-5.86.77-16.47-1.08Z" transform="translate(-19.41 -97.3)"/>
    <path d="M283,370.07l-.11-5.74s4.05,2.29,4.2,10.21Z" transform="translate(-19.41 -97.3)"/>
    <path class="cls-1" d="M337.48,347.78h0a13,13,0,0,1-2.79-.75,11.32,11.32,0,0,1-4.69-3.24l-1.31,1.09a14.15,14.15,0,0,0,8.61,4.59l.19-1.69Z" transform="translate(-19.41 -97.3)"/>
    <path class="cls-1" d="M106,328.48l3.29.91a19.48,19.48,0,0,0,.6-4.91,15.4,15.4,0,0,0-1.09-5.92,11.87,11.87,0,0,0-1.87-3.08,11.33,11.33,0,0,0-3.09-2.56h0a37.19,37.19,0,0,1-3.74-2.37,14.23,14.23,0,0,1-3.35-3.31,20.45,20.45,0,0,1-2.35-4.7,10.3,10.3,0,0,0-3.79-5,9.44,9.44,0,0,0-5.32-1.65,8.82,8.82,0,0,0-4.81,1.41,7.55,7.55,0,0,0-3.15,4.34,11,11,0,0,0-.36,2.8,15.64,15.64,0,0,0,1.87,7,20.11,20.11,0,0,0,1.66,2.68,14.66,14.66,0,0,0,1.81,2l2.3-2.53,1.32-3.14a55.43,55.43,0,0,0-6-2.05,51.07,51.07,0,0,0-13.35-2,29,29,0,0,0-5.84.56,20.7,20.7,0,0,0-4.51,1.4,10.14,10.14,0,0,0-4.34,3.46,7.66,7.66,0,0,0-1,2.17,7.84,7.84,0,0,0-.28,2.07,8,8,0,0,0,.48,2.74,7.77,7.77,0,0,0,.56,1.24l2.94-1.74-1.09-3.23A15.75,15.75,0,0,0,49.71,317a11.21,11.21,0,0,0-2.77,2.65,8.31,8.31,0,0,0-1.08,2,7.73,7.73,0,0,0-.44,2.54,8.34,8.34,0,0,0,.16,1.56,6.64,6.64,0,0,0,1.44,3,6.47,6.47,0,0,0,1.84,1.5,8.9,8.9,0,0,0,2.93,1,16.59,16.59,0,0,0,2.79.2c1.16,0,2.3-.07,3.39-.14s2.14-.12,3.06-.12c.41,0,.79,0,1.14,0l.24-3.41-.82-3.31a22.76,22.76,0,0,0-4.83,1.9,13.7,13.7,0,0,0-3.69,2.82,8.71,8.71,0,0,0-1.49,2.29,7.56,7.56,0,0,0-.63,3,7.91,7.91,0,0,0,.3,2.15,7.81,7.81,0,0,0,1.56,3,7.32,7.32,0,0,0,1.8,1.56,9.48,9.48,0,0,0,3,1.17,14.6,14.6,0,0,0,2.9.28,28.34,28.34,0,0,0,4.7-.48l1.84-.36c.52-.11,1-.19,1.21-.23h0a7.77,7.77,0,0,1,1,0c.85,0,2.06.07,3.38.21a50.77,50.77,0,0,1,6.22,1,22.67,22.67,0,0,1,2.61.76,6.88,6.88,0,0,1,1.48.68,18.61,18.61,0,0,1,1.6,1.28,29,29,0,0,0,4.24,3.13,13.09,13.09,0,0,0,6.53,1.86,12.79,12.79,0,0,0,5.62-1.37,21,21,0,0,0,5.66-4.25A23.61,23.61,0,0,0,111,339a11.73,11.73,0,0,0,1.4-5.38,9,9,0,0,0-.76-3.68,9.78,9.78,0,0,0-2.49-3.37,8.61,8.61,0,0,0-1.63-1.15l-1.59,3,3.29.91-3.29-.91-1.59,3,1-1.85-1,1.82.06,0,1-1.85-1,1.82,0,0,0,0h0l0,0,0,0a3.46,3.46,0,0,1,.78.71,2.54,2.54,0,0,1,.37.64,2.31,2.31,0,0,1,.15.85,5.07,5.07,0,0,1-.66,2.29,17.17,17.17,0,0,1-3.17,4.14A14.36,14.36,0,0,1,98,343a5.74,5.74,0,0,1-2.62.67,5.25,5.25,0,0,1-2.06-.43,13.19,13.19,0,0,1-3.23-2c-.54-.44-1.07-.9-1.6-1.35a19.7,19.7,0,0,0-1.71-1.31,11.37,11.37,0,0,0-1.92-1,25.23,25.23,0,0,0-3.77-1.23,53.13,53.13,0,0,0-6.24-1.17,45.92,45.92,0,0,0-5.53-.41,13.73,13.73,0,0,0-2.06.13h0c-.5.07-1,.17-1.53.28-.79.16-1.68.34-2.58.48a19,19,0,0,1-2.61.22,8.71,8.71,0,0,1-1.36-.1,2.4,2.4,0,0,1-1-.38l-.15-.16a1.25,1.25,0,0,1-.16-.36,1.18,1.18,0,0,1,0-.31.6.6,0,0,1,.06-.27,3.08,3.08,0,0,1,.87-1,11.9,11.9,0,0,1,2.92-1.59c.49-.19.92-.33,1.21-.42l.33-.1h.08L84.11,326l-21.46-1.53c-.54,0-1.09-.05-1.62-.05-1.2,0-2.36.07-3.46.13s-2.12.13-3,.13a11.05,11.05,0,0,1-1.55-.09,3.52,3.52,0,0,1-.69-.15c-.11,0-.17-.07-.19-.07h0l-.13.2.16-.17,0,0-.13.2.16-.17-.32.34.41-.22-.09-.12-.32.34.41-.22-.13.07.14,0v0l-.13.07.14,0v-.06l0-.2,0-.24a2,2,0,0,1,.5-.71A7.14,7.14,0,0,1,54.58,322c.31-.15.58-.27.76-.34l.19-.08h0l-.41-1.17.4,1.18h0l-.41-1.17.4,1.18,4-1.35-2.15-3.63-1.83,1.09,1.88-1,0-.08-1.83,1.09,1.88-1-.29.15.29-.14h0l-.29.15.29-.14a1.74,1.74,0,0,1-.14-.59.66.66,0,0,1,.05-.25c0-.12.14-.35.78-.79A11.25,11.25,0,0,1,62,313.71a23.21,23.21,0,0,1,4.49-.41A43.68,43.68,0,0,1,78,315.08c1.6.45,2.94.9,3.86,1.23l1.06.4.26.11.06,0h0l.34-.8-.34.8h0l.34-.8-.34.8,18.38,7.74L86.85,311.18a8.35,8.35,0,0,1-.91-1.05,12.83,12.83,0,0,1-1.55-2.75,8,8,0,0,1-.65-2.89,4,4,0,0,1,.13-1,.7.7,0,0,1,.33-.43,1.88,1.88,0,0,1,1-.27,2.57,2.57,0,0,1,1.47.46,3.39,3.39,0,0,1,1.25,1.7,30.07,30.07,0,0,0,2,4.35,19.92,19.92,0,0,0,4.24,5.28,36.21,36.21,0,0,0,6.25,4.3h0a4.69,4.69,0,0,1,1.25,1,5.35,5.35,0,0,1,1,2.06,9.82,9.82,0,0,1,.31,2.54,14.87,14.87,0,0,1-.19,2.28c0,.29-.1.51-.13.65l0,.15v0l1.41.38-1.41-.39h0l1.41.38-1.41-.39-.73,2.64,2.43,1.28Z" transform="translate(-19.41 -97.3)"/>
    <path class="cls-2" d="M106,328.48s2.49-9-3.85-12.59-8.74-6.27-10.94-12.15-9.44-5.42-10.59-1.16,2.05,9.36,4,11.12c0,0-12.89-5.43-23.25-3.33s-6.85,8-6.85,8-6.46,2.17-5.54,6.73,8.24,2.35,13.49,2.72c0,0-9.44,2.35-7.88,7.93s9.92,3,12.84,2.51,14,.81,17.48,3.12,9.65,10.93,19.34,1.11S106,328.48,106,328.48Z" transform="translate(-19.41 -97.3)"/>
    <path class="cls-1" d="M81,319.19s-3-.75-7.15-1.51a83.38,83.38,0,0,0-14-1.5,20.75,20.75,0,0,0-7.06,1l.6,1.6a19.19,19.19,0,0,1,6.46-.86,81,81,0,0,1,13.69,1.47c2,.37,3.81.74,5.06,1l1.46.34.52.12.42-1.65Z" transform="translate(-19.41 -97.3)"/>
    <path class="cls-1" d="M79.43,329.42c-.11-.08-3.85-2.79-11.67-2.79a46.89,46.89,0,0,0-14.82,2.67l.54,1.62a45.39,45.39,0,0,1,14.28-2.58,24.08,24.08,0,0,1,8.15,1.26,12.43,12.43,0,0,1,1.93.85,5.2,5.2,0,0,1,.45.26l.11.07h0l0-.05,0,.05h0l0-.05,0,.05,1-1.37Z" transform="translate(-19.41 -97.3)"/>
    <path class="cls-1" d="M100.41,330.9A24.91,24.91,0,0,0,95,324.51a15.13,15.13,0,0,0-3.45-2.15,31.61,31.61,0,0,0-4-1.46,10.11,10.11,0,0,1,4.47.21,10.77,10.77,0,0,1,2.15.81,13.57,13.57,0,0,1,1.92,1.27A12,12,0,0,1,99,326.65,10.47,10.47,0,0,1,100.41,330.9Z" transform="translate(-19.41 -97.3)"/>
    <path class="cls-2" d="M170.16,358.3a6.59,6.59,0,0,0-8.2-5.05c-9.63,2.64-23.26,6.57-30.13,5.85a3.57,3.57,0,0,1-1.39-.42c-12.23-6.71-24.23-23.78-24.23-23.78l-8.46,8.42s8.81,16,24.72,26.41c8.27,5.12,31.94-.64,43-3.77A6.58,6.58,0,0,0,170.16,358.3Z" transform="translate(-19.41 -97.3)"/>
    <path d="M83.54,316s-5.69,9.25-3.62,19.78C79.92,335.79,73.33,325.34,83.54,316Z" transform="translate(-19.41 -97.3)"/>
    <path class="cls-3" d="M56,331.11s-.83,6.74,7.22,4.68c5.83-1.49,20.13-.93,26.18,4.41,3.2,2.84,4.41,3.47,6.37,3.74a49.55,49.55,0,0,0,6.45-.15s-.89,1.86-4.45,3.3c-1.64.66-4.43.53-7.71-1.7-5.16-3.49-4.06-4.43-10.61-6s-11.28-1.31-13.37-.91-8.52,2.19-10.79-1.23A4.4,4.4,0,0,1,56,331.11Z" transform="translate(-19.41 -97.3)"/>
    <path class="cls-3" d="M158.17,362.24s-25.57,6.49-32.67,3c-6.26-3.05-15.72-14.49-22.62-20.93-.93-.87-2.66,2.58-3.44,1.75,0,0,5.43,9.34,16.86,19.09,6.52,5.71,9.33,6.28,12.79,6.44s9.57.95,28.62-3.26Z" transform="translate(-19.41 -97.3)"/>
    <path d="M158.05,368l.12-5.73s-4,2.29-4.21,10.2Z" transform="translate(-19.41 -97.3)"/>
    <path class="cls-1" d="M94.92,349.47a14.15,14.15,0,0,0,8.61-4.59l-1.31-1.09a11.5,11.5,0,0,1-4.84,3.3,14.28,14.28,0,0,1-1.91.56l-.56.1-.14,0h0l.19,1.69Z" transform="translate(-19.41 -97.3)"/>
  </g>
</svg>
