<svg xmlns="http://www.w3.org/2000/svg" width="134.025" height="141.078" viewBox="0 0 134.025 141.078">
  <g id="Group_1120" data-name="Group 1120" transform="translate(506.006 -64.619)">
    <path id="Path_581" data-name="Path 581" d="M-279.134,407.055a2.749,2.749,0,0,1-2.739-2.731c-.112-18.824-2.617-25.97-2.723-26.265a1.419,1.419,0,0,1,.054-1.093,1.411,1.411,0,0,1,.815-.727l3.329-1.123a1.406,1.406,0,0,1,.449-.074,1.406,1.406,0,0,1,1.331.956c.019.058,1.864,6.074,2.516,19.837,2.2-1.481,5.481-2.718,10.3-2.718,2.606,0,11.12.784,11.241,10.868a3.008,3.008,0,0,1-.875,2.163,3.03,3.03,0,0,1-2.17.906Z" transform="translate(-143.563 -201.358)"/>
    <path id="Path_582" data-name="Path 582" d="M-263.217,397.119c-6.383,0-9.805,2.272-11.586,4.283-.489-15.238-2.454-22.05-2.558-22.357l-3.329,1.123c.025.075,2.694,7.117,2.811,26.745a1.338,1.338,0,0,0,1.334,1.333h21.525a1.634,1.634,0,0,0,1.639-1.646C-253.418,403.5-254.545,397.119-263.217,397.119Z" transform="translate(-146.152 -203.954)" fill="#ffebbf"/>
    <path id="Path_583" data-name="Path 583" d="M-248.9,437.991c4.2,0,4.942-2.135,4.993-3.478-1.3-2.184-3.784-4.025-8.441-4.025-6.383,0-9.8,2.272-11.586,4.283C-263.933,438.448-255.027,437.991-248.9,437.991Z" transform="translate(-157.021 -237.322)" fill="#fff7db"/>
    <path id="Path_584" data-name="Path 584" d="M-277.361,379.045l-3.329,1.123a35.145,35.145,0,0,1,1.381,6.1c1.153-.2,2.233-.423,3.229-.668A48.49,48.49,0,0,0-277.361,379.045Z" transform="translate(-146.152 -203.954)" fill="#f5d2a0"/>
    <path id="Path_585" data-name="Path 585" d="M-406.2,407.055a3.03,3.03,0,0,1-2.17-.906,3.007,3.007,0,0,1-.875-2.163c.12-10.085,8.635-10.869,11.241-10.869,4.816,0,8.1,1.237,10.3,2.718.653-13.78,2.5-19.781,2.516-19.839a1.406,1.406,0,0,1,1.331-.954,1.4,1.4,0,0,1,.449.074l3.329,1.123a1.406,1.406,0,0,1,.883,1.78c-.121.334-2.626,7.46-2.737,26.306a2.749,2.749,0,0,1-2.739,2.73Z" transform="translate(-62.763 -201.358)"/>
    <path id="Path_586" data-name="Path 586" d="M-395.41,397.119c6.383,0,9.8,2.272,11.586,4.283.489-15.238,2.454-22.05,2.558-22.357l3.329,1.123c-.025.075-2.694,7.117-2.811,26.745a1.338,1.338,0,0,1-1.334,1.333h-21.525a1.634,1.634,0,0,1-1.639-1.646C-405.209,403.5-404.081,397.119-395.41,397.119Z" transform="translate(-65.359 -203.954)" fill="#ffebbf"/>
    <path id="Path_587" data-name="Path 587" d="M-392.835,430.488c-4.657,0-7.136,1.841-8.441,4.025.051,1.343.792,3.478,4.993,3.478,6.129,0,15.034.457,15.034-3.22C-383.03,432.76-386.452,430.488-392.835,430.488Z" transform="translate(-67.933 -237.322)" fill="#fff7db"/>
    <path id="Path_588" data-name="Path 588" d="M-340.815,386.04c1,.213,2.078.405,3.238.565a36.408,36.408,0,0,1,1.433-6.438l-3.329-1.123A50.1,50.1,0,0,0-340.815,386.04Z" transform="translate(-107.152 -203.954)" fill="#f5d2a0"/>
    <path id="Path_589" data-name="Path 589" d="M-398.543,373.378c-1.624.142-2.911-.374-3.444-1.38-1.095-2.291-1.586-5.313.546-6.462a4.312,4.312,0,0,1,1.671-.512c2.1-.184,3.938,1.24,4.917,3.809a2.989,2.989,0,0,1-.213,2.71A4.5,4.5,0,0,1-398.543,373.378Z" transform="translate(-66.864 -194.849)"/>
    <path id="Path_590" data-name="Path 590" d="M-398.165,373.936s-1.74-3.646-.029-4.567,3.606-.069,4.609,2.561S-397.462,375.264-398.165,373.936Z" transform="translate(-69.444 -197.445)" fill="#f5d2a0"/>
    <path id="Path_591" data-name="Path 591" d="M-374.141,266.345c-10.955.216-17.517-2.379-20.454-3.945a4,4,0,0,1-2.118-3.45l-.547-27.713c-.17-8.632-13.192-25.628-13.324-25.8a1.407,1.407,0,0,1-.261-1.15,1.406,1.406,0,0,1,.707-.944l13.371-7.218a1.4,1.4,0,0,1,.639-.169,1.406,1.406,0,0,1,1.236.686c3.3,5.535,7.137,11.516,9.211,14.2a109.3,109.3,0,0,0-.954-12.391,1.4,1.4,0,0,1,.331-1.094,1.4,1.4,0,0,1,1.035-.486l22.7-.448a1.4,1.4,0,0,1,1.035.426,1.4,1.4,0,0,1,.4,1.047,83.271,83.271,0,0,0,.053,10.416c1.8-2.133,5.14-6.8,7.913-10.96a1.405,1.405,0,0,1,1.142-.625,1.41,1.41,0,0,1,.553.1l12.577,5.07a1.4,1.4,0,0,1,.823.908,1.406,1.406,0,0,1-.2,1.209c-.125.176-12.466,17.672-12.3,26.3l.547,27.713a4,4,0,0,1-1.98,3.53c-2.873,1.681-9.328,4.533-20.283,4.749Z" transform="translate(-61.706 -85.193)"/>
    <path id="Path_592" data-name="Path 592" d="M-359.951,200.422l-22.695.448s1.94,15.4.3,15.232S-393.5,199.959-393.5,199.959l-13.371,7.218s13.434,17.428,13.616,26.628l.547,27.713a2.59,2.59,0,0,0,1.374,2.237c2.58,1.376,8.947,3.994,19.765,3.78l1.846-.037c10.819-.213,17.077-3.08,19.6-4.557a2.59,2.59,0,0,0,1.285-2.289l-.547-27.713c-.182-9.2,12.555-27.145,12.555-27.145l-12.577-5.07s-7.947,11.918-9.57,12.563S-359.951,200.422-359.951,200.422Z" transform="translate(-64.301 -87.789)" fill="#fff7db"/>
    <g id="Group_1109" data-name="Group 1109" transform="translate(-471.177 112.17)">
      <path id="Path_593" data-name="Path 593" d="M-255.792,202.14s-3.866,5.8-6.756,9.524a7.481,7.481,0,0,0,.97.07h.15a7.507,7.507,0,0,0,2.244-.39,8.277,8.277,0,0,0,5.415,2.037l.165,0a8.278,8.278,0,0,0,2.88-.577,6.145,6.145,0,0,0,2.99,1.392c2.454-4.074,4.518-6.983,4.518-6.983Z" transform="translate(313.257 -201.374)" fill="#f5d2a0"/>
      <path id="Path_594" data-name="Path 594" d="M-390.78,209.669a8.534,8.534,0,0,0,4.344,1.485c-3.224-4.747-7.069-11.2-7.069-11.2l-13.371,7.218s3.129,4.063,6.387,9.3a10.44,10.44,0,0,0,1.4-2.557A11.245,11.245,0,0,0-390.78,209.669Z" transform="translate(406.876 -199.959)" fill="#f5d2a0"/>
      <path id="Path_595" data-name="Path 595" d="M-321.766,214.124l.2,0a9.26,9.26,0,0,0,6.38-2.637,97.372,97.372,0,0,1-.03-10.209l-22.695.448s.868,6.9.951,11.408a9.587,9.587,0,0,0,5.921,2.043l.194,0a9.542,9.542,0,0,0,5.4-1.774A9.531,9.531,0,0,0-321.766,214.124Z" transform="translate(362.143 -200.814)" fill="#f5d2a0"/>
    </g>
    <path id="Path_596" data-name="Path 596" d="M-323.229,347.308l-.142-7.209h0c-2.048,6.158-7.472,9.372-21.946,9.372-16.454,0-21.057-12.236-22.071-15.921l.288,14.623a2.589,2.589,0,0,0,1.374,2.236c2.58,1.376,8.947,3.994,19.765,3.781l1.846-.037c10.819-.213,17.077-3.08,19.6-4.557A2.59,2.59,0,0,0-323.229,347.308Z" transform="translate(-89.915 -174.444)" fill="#ffebbf"/>
    <path id="Path_597" data-name="Path 597" d="M-386.975,222.61l6.01,9.188c.371.566,1.272.02.9-.55l-6.01-9.188c-.371-.566-1.272-.02-.9.55Z" transform="translate(-77.152 -101.97)"/>
    <path id="Path_598" data-name="Path 598" d="M-304.815,214.329q.089,4.5.177,9a.527.527,0,0,0,1.054-.021q-.089-4.5-.177-9a.527.527,0,0,0-1.054.021Z" transform="translate(-130.503 -96.773)"/>
    <path id="Path_599" data-name="Path 599" d="M-243.86,211.5l-5.758,8.806c-.372.569.551,1.079.921.514l5.758-8.806c.372-.569-.551-1.079-.921-.514Z" transform="translate(-166.251 -95.114)"/>
    <path id="Path_600" data-name="Path 600" d="M-422.095,102.146a11.573,11.573,0,0,1-4.673-.828,6.507,6.507,0,0,1-2.737.652,5.746,5.746,0,0,1-5.926-4.284c-2.884.03-5.274-2.541-5.338-5.754a6.546,6.546,0,0,1,.029-.758,6.859,6.859,0,0,1-5.326-6.6,6.837,6.837,0,0,1,5.671-6.928,7.011,7.011,0,0,1,7.011-6.768,7.413,7.413,0,0,1,1.207.074A7.278,7.278,0,0,1-425.2,64.62a7.149,7.149,0,0,1,5.876,2.939,4.345,4.345,0,0,1,2.361-.763,4.518,4.518,0,0,1,3.153,1.256c.091-.007.18-.012.269-.013a5.081,5.081,0,0,1,2.324.506,6.033,6.033,0,0,1,3.3-1.046,5.893,5.893,0,0,1,6.079,5.686,5.654,5.654,0,0,1-.076,1.048,6.212,6.212,0,0,1,3.857,5.585,6.134,6.134,0,0,1-2.044,4.7,4.383,4.383,0,0,1,.344,1.614,4.961,4.961,0,0,1-2.306,4.129,5.506,5.506,0,0,1,.386,1.919,5.145,5.145,0,0,1-4.9,5.366h-.11a5.953,5.953,0,0,1-5.453,3.651,6.218,6.218,0,0,1-3.684-1.1A10.081,10.081,0,0,1-422.095,102.146Z" transform="translate(-38.88 0)"/>
    <path id="Path_601" data-name="Path 601" d="M-396.864,82.442A4.79,4.79,0,0,0-401.1,77.8a4.253,4.253,0,0,0,.455-1.995A4.483,4.483,0,0,0-405.29,71.5a4.629,4.629,0,0,0-3.23,1.386,3.453,3.453,0,0,0-2.394-.846,3.815,3.815,0,0,0-.815.113,3.261,3.261,0,0,0-2.607-1.357,3.342,3.342,0,0,0-2.711,1.7,5.808,5.808,0,0,0-5.526-3.871,5.905,5.905,0,0,0-5.675,6.123,6.2,6.2,0,0,0,.049.656,5.992,5.992,0,0,0-2.56-.519,5.587,5.587,0,0,0-5.633,5.531,5.117,5.117,0,0,0,.167,1.185,5.209,5.209,0,0,0-.635-.03,5.394,5.394,0,0,0-5.2,5.577,5.394,5.394,0,0,0,5.419,5.367c.085,0,.168-.012.253-.018a4.988,4.988,0,0,0-.375,2.006,4.19,4.19,0,0,0,3.95,4.376,3.4,3.4,0,0,0,1.415-.343,3.255,3.255,0,0,0-.115.908c.041,2.1,2.092,3.769,4.581,3.72a5.032,5.032,0,0,0,2.707-.833,9.634,9.634,0,0,0,4.7,1.009c2.927-.058,5.383-1.178,6.191-2.672a4.647,4.647,0,0,0,3.772,1.724,4.35,4.35,0,0,0,4.414-3.833,3.364,3.364,0,0,0,1.149.181,3.736,3.736,0,0,0,3.518-3.933,4.017,4.017,0,0,0-.925-2.5,3.948,3.948,0,0,0,2.846-3.544,3.2,3.2,0,0,0-.817-2.028A4.765,4.765,0,0,0-396.864,82.442Z" transform="translate(-41.475 -2.594)" fill="#ffebbf"/>
    <g id="Group_1110" data-name="Group 1110" transform="translate(-483.54 66.024)">
      <path id="Path_602" data-name="Path 602" d="M-436.7,86.911a7.011,7.011,0,0,1,7.011-6.768,7.42,7.42,0,0,1,1.207.074,7.277,7.277,0,0,1,6.979-6.334,7.148,7.148,0,0,1,5.876,2.939,4.342,4.342,0,0,1,2.361-.763,4.516,4.516,0,0,1,3.153,1.256c.091-.007.18-.012.27-.013a5.081,5.081,0,0,1,2.324.506,6.033,6.033,0,0,1,3.3-1.046,6.042,6.042,0,0,1,3.2.842,4.231,4.231,0,0,0,.37-1.8A4.483,4.483,0,0,0-405.29,71.5a4.63,4.63,0,0,0-3.23,1.386,3.454,3.454,0,0,0-2.394-.846,3.815,3.815,0,0,0-.815.113,3.261,3.261,0,0,0-2.607-1.357,3.342,3.342,0,0,0-2.711,1.695,5.809,5.809,0,0,0-5.526-3.871,5.905,5.905,0,0,0-5.675,6.123,6.2,6.2,0,0,0,.049.656,5.988,5.988,0,0,0-2.56-.519,5.587,5.587,0,0,0-5.633,5.531,5.117,5.117,0,0,0,.167,1.185,5.209,5.209,0,0,0-.635-.03,5.394,5.394,0,0,0-5.2,5.577,5.561,5.561,0,0,0,.808,2.783A6.7,6.7,0,0,1-436.7,86.911Z" transform="translate(442.065 -68.619)" fill="#fffdf4"/>
    </g>
    <circle id="Ellipse_11" data-name="Ellipse 11" cx="1.937" cy="1.937" r="1.937" transform="translate(-467.639 72.665) rotate(-70.915)"/>
    <path id="Path_603" data-name="Path 603" d="M-390.84,81.81a1.234,1.234,0,0,1-1.209,1.258,1.234,1.234,0,0,1-1.258-1.209A1.234,1.234,0,0,1-392.1,80.6,1.234,1.234,0,0,1-390.84,81.81Z" transform="translate(-73.102 -10.366)" fill="#fffdf4"/>
    <path id="Path_604" data-name="Path 604" d="M-344.976,88.524a1.616,1.616,0,0,1-1.646-1.582,1.617,1.617,0,0,1,1.582-1.647,1.617,1.617,0,0,1,1.646,1.583A1.617,1.617,0,0,1-344.976,88.524Z" transform="translate(-103.385 -13.411)"/>
    <path id="Path_605" data-name="Path 605" d="M-342.8,88.189a.912.912,0,0,1-.894.93.912.912,0,0,1-.93-.894.912.912,0,0,1,.894-.93A.912.912,0,0,1-342.8,88.189Z" transform="translate(-104.682 -14.708)" fill="#fffdf4"/>
    <path id="Path_606" data-name="Path 606" d="M-378.953,116.051a2.583,2.583,0,0,1-2.631-2.529,2.584,2.584,0,0,1,2.529-2.631,2.583,2.583,0,0,1,2.631,2.529A2.583,2.583,0,0,1-378.953,116.051Z" transform="translate(-80.706 -30.014)"/>
    <circle id="Ellipse_12" data-name="Ellipse 12" cx="1.878" cy="1.878" r="1.878" transform="translate(-461.889 84.975) rotate(-79.858)" fill="#ffebbf"/>
    <path id="Path_607" data-name="Path 607" d="M-360.552,112.648a1.456,1.456,0,0,1-1.482-1.425,1.455,1.455,0,0,1,1.425-1.482,1.456,1.456,0,0,1,1.482,1.425A1.456,1.456,0,0,1-360.552,112.648Z" transform="translate(-93.388 -29.269)"/>
    <path id="Path_608" data-name="Path 608" d="M-358.532,112.477a.751.751,0,0,1-.736.766.751.751,0,0,1-.766-.736.751.751,0,0,1,.736-.766A.751.751,0,0,1-358.532,112.477Z" transform="translate(-94.685 -30.566)" fill="#ffebbf"/>
    <path id="Path_609" data-name="Path 609" d="M-313.594,100.954a5.43,5.43,0,0,1-3.987-1.61,6.217,6.217,0,0,1-2,.366,5.982,5.982,0,0,1-2.531-.487,5.318,5.318,0,0,1-3,.971,5.043,5.043,0,0,1-4.529-2.449,5.566,5.566,0,0,1-.752.065,5.174,5.174,0,0,1-5.422-4.889c0-.11,0-.219.005-.329a5.208,5.208,0,0,1-4.054-5.059,5.384,5.384,0,0,1,1.349-3.7,3.728,3.728,0,0,1-.373-1.554,3.75,3.75,0,0,1,1.848-3.324,7.549,7.549,0,0,1,3.192-7.4,8.346,8.346,0,0,1,4.748-1.678,6.7,6.7,0,0,1,2.5.42,7.677,7.677,0,0,1,6.684-4,7.935,7.935,0,0,1,4.671,1.405,5.292,5.292,0,0,1,4.253-2.332,5.6,5.6,0,0,1,5.451,4.643,4.676,4.676,0,0,1,1.206-.185,3.983,3.983,0,0,1,2.757.994,3.911,3.911,0,0,1,1.233,2.306,6.046,6.046,0,0,1,1.237-.153,6.509,6.509,0,0,1,6.486,6.511,6.711,6.711,0,0,1-3.2,5.886,5.078,5.078,0,0,1,.091.864,5.114,5.114,0,0,1-1.171,3.373,3.941,3.941,0,0,1,.328,1.5c.048,2.432-2.172,4.467-4.99,4.621a5.821,5.821,0,0,1-5.136,3.015,6.388,6.388,0,0,1-2.369-.4A5.3,5.3,0,0,1-313.594,100.954Z" transform="translate(-107.77 -0.49)"/>
    <path id="Path_610" data-name="Path 610" d="M-291.428,82.114a5.1,5.1,0,0,0-5.053-5.134,4.766,4.766,0,0,0-3.07,1.211,3.021,3.021,0,0,0-.366-3.723c-1.177-1.056-3.16-.765-4.45.643a4.977,4.977,0,0,0,.149-1.311,4.3,4.3,0,0,0-4.147-4.424,4.136,4.136,0,0,0-3.817,3.258,6.365,6.365,0,0,0-5.106-2.332,6.168,6.168,0,0,0-5.977,4.613c-1.8-1.482-4.784-1.388-7.146.366-2.521,1.872-3.439,4.969-2.212,7.158a2.366,2.366,0,0,0-2.26,2.409,2.354,2.354,0,0,0,.9,1.8,3.885,3.885,0,0,0-1.875,3.454,3.726,3.726,0,0,0,3.665,3.777,3.373,3.373,0,0,0,.834-.126,3.34,3.34,0,0,0-.45,1.737A3.765,3.765,0,0,0-327.823,99a4.2,4.2,0,0,0,1.681-.387,3.36,3.36,0,0,0,3.6,2.77,3.781,3.781,0,0,0,2.843-1.3,4.25,4.25,0,0,0,2.686.814,4.412,4.412,0,0,0,2.447-.747,3.878,3.878,0,0,0,3.538,1.99,3.733,3.733,0,0,0,3.766-3.256,4.735,4.735,0,0,0,3.137,1.055,4.178,4.178,0,0,0,4.185-3.049,4.852,4.852,0,0,0,.731.042c2.151-.043,3.867-1.474,3.833-3.2a2.707,2.707,0,0,0-.741-1.775,3.578,3.578,0,0,0,1.584-3.1,3.786,3.786,0,0,0-.418-1.643A5.193,5.193,0,0,0-291.428,82.114Z" transform="translate(-110.365 -3.086)" fill="#ffebbf"/>
    <g id="Group_1111" data-name="Group 1111" transform="translate(-443.524 66.29)">
      <path id="Path_611" data-name="Path 611" d="M-327.113,81.173a8.346,8.346,0,0,1,4.748-1.678,6.7,6.7,0,0,1,2.5.42,7.676,7.676,0,0,1,6.684-4,7.933,7.933,0,0,1,4.671,1.4,5.292,5.292,0,0,1,4.253-2.332,5.6,5.6,0,0,1,5.451,4.643,4.689,4.689,0,0,1,1.205-.185,3.984,3.984,0,0,1,2.757.994,3.911,3.911,0,0,1,1.233,2.306,6.071,6.071,0,0,1,1.237-.153,6.256,6.256,0,0,1,5.094,2.515,5.382,5.382,0,0,0,.839-2.994,5.1,5.1,0,0,0-5.053-5.134,4.766,4.766,0,0,0-3.07,1.211,3.021,3.021,0,0,0-.366-3.723c-1.177-1.056-3.16-.764-4.45.643a4.978,4.978,0,0,0,.149-1.311,4.3,4.3,0,0,0-4.147-4.424,4.137,4.137,0,0,0-3.817,3.258A6.365,6.365,0,0,0-312.3,70.3a6.167,6.167,0,0,0-5.977,4.613c-1.8-1.482-4.784-1.387-7.146.366-2.3,1.706-3.258,4.429-2.482,6.556A8.857,8.857,0,0,1-327.113,81.173Z" transform="translate(328.17 -69.376)" fill="#fffdf4"/>
    </g>
    <circle id="Ellipse_13" data-name="Ellipse 13" cx="2.683" cy="2.683" r="2.683" transform="translate(-441.544 77.459) rotate(-46.5)"/>
    <path id="Path_612" data-name="Path 612" d="M-313.416,97.187a1.98,1.98,0,0,1-1.941,2.019,1.98,1.98,0,0,1-2.019-1.941,1.98,1.98,0,0,1,1.941-2.019A1.98,1.98,0,0,1-313.416,97.187Z" transform="translate(-122.355 -19.866)" fill="#ffebbf"/>
    <path id="Path_613" data-name="Path 613" d="M-283.759,82.277a1.8,1.8,0,0,1-1.832-1.761,1.8,1.8,0,0,1,1.762-1.832A1.8,1.8,0,0,1-282,80.445,1.8,1.8,0,0,1-283.759,82.277Z" transform="translate(-142.972 -9.123)"/>
    <path id="Path_614" data-name="Path 614" d="M-281.4,81.756a1.094,1.094,0,0,1-1.072,1.116,1.1,1.1,0,0,1-1.116-1.073,1.094,1.094,0,0,1,1.073-1.116A1.094,1.094,0,0,1-281.4,81.756Z" transform="translate(-144.27 -10.42)" fill="#fffdf4"/>
    <path id="Path_615" data-name="Path 615" d="M-249.959,105.917a2.373,2.373,0,0,1-2.417-2.323,2.373,2.373,0,0,1,2.323-2.416,2.373,2.373,0,0,1,2.417,2.323A2.373,2.373,0,0,1-249.959,105.917Z" transform="translate(-164.518 -23.713)"/>
    <circle id="Ellipse_14" data-name="Ellipse 14" cx="1.668" cy="1.668" r="1.668" transform="translate(-416.882 79.866) rotate(-45.785)" fill="#ffebbf"/>
    <path id="Path_616" data-name="Path 616" d="M-482.121,161.9a7.258,7.258,0,0,1-6.662-4.193,6.575,6.575,0,0,1-2.68.619,5.937,5.937,0,0,1-6.276-5.542,5.15,5.15,0,0,1,.03-.663,5.409,5.409,0,0,1-2.746-4.3A7.872,7.872,0,0,1-506,140.3a7.955,7.955,0,0,1,4.723-7.557,6.566,6.566,0,0,1-.271-1.74,6.615,6.615,0,0,1,5.425-6.629,8.3,8.3,0,0,1-.364-2.274,8.367,8.367,0,0,1,8.191-8.52,8.264,8.264,0,0,1,3.532.705,4.639,4.639,0,0,1,4.03-2.952,4.05,4.05,0,0,1,2.343.7,5.955,5.955,0,0,1,5.062-3.227,5.8,5.8,0,0,1,4.683,2.306q.219-.022.436-.026a5.673,5.673,0,0,1,5.746,5.075,6.9,6.9,0,0,1,6.291,6.683,6.717,6.717,0,0,1-.849,3.408,7.816,7.816,0,0,1,3.292,6.125,7.538,7.538,0,0,1-1.461,4.57,3.919,3.919,0,0,1,.846,2.333,4.208,4.208,0,0,1-1.6,3.289,6.9,6.9,0,0,1,.722,2.931c.084,4.263-3.793,7.808-8.642,7.9a10.039,10.039,0,0,1-1.084-.038,7.559,7.559,0,0,1-7,6.336,6.8,6.8,0,0,1-4.154-1.333A7.26,7.26,0,0,1-482.121,161.9Z" transform="translate(0 -28.659)"/>
    <path id="Path_617" data-name="Path 617" d="M-454.525,139.632A6.329,6.329,0,0,0-452.544,135a6.723,6.723,0,0,0-3.9-5.755,5.364,5.364,0,0,0,1.461-3.779,5.505,5.505,0,0,0-5.669-5.336,5.735,5.735,0,0,0-.678.058,4.263,4.263,0,0,0,.086-.929,4.259,4.259,0,0,0-4.342-4.174,4.257,4.257,0,0,0-1.107.173,4.583,4.583,0,0,0-4.012-2.453,4.954,4.954,0,0,0-4.531,4.578,3.291,3.291,0,0,0-2.874-2.052c-1.608.032-2.92,1.6-3.223,3.665a6.914,6.914,0,0,0-4.339-1.418,6.952,6.952,0,0,0-6.814,7.088,6.911,6.911,0,0,0,1.165,3.707,5.194,5.194,0,0,0-1.13-.1,5.2,5.2,0,0,0-5.1,5.3,5.164,5.164,0,0,0,.828,2.7,6.284,6.284,0,0,0-5.28,6.592,6.276,6.276,0,0,0,5.586,6.381,4.2,4.2,0,0,0-.058.777,3.972,3.972,0,0,0,3.012,3.837,3.849,3.849,0,0,0-.276,1.5,4.53,4.53,0,0,0,4.843,4.165,5.016,5.016,0,0,0,3.451-1.426,5.98,5.98,0,0,0,5.891,5A5.938,5.938,0,0,0-474,158.53a5.669,5.669,0,0,0,4.61,2.358c3.173-.063,5.7-2.967,5.8-6.561a8.515,8.515,0,0,0,2.277.262c4.081-.08,7.334-2.977,7.264-6.47a5.654,5.654,0,0,0-1.234-3.379,3.282,3.282,0,0,0,2.113-2.84A2.9,2.9,0,0,0-454.525,139.632Z" transform="translate(-2.595 -31.254)" fill="#fff7db"/>
    <g id="Group_1112" data-name="Group 1112" transform="translate(-495.087 81.548)">
      <path id="Path_618" data-name="Path 618" d="M-468.32,122.559a8.267,8.267,0,0,1,3.532.706,4.639,4.639,0,0,1,4.03-2.952,4.05,4.05,0,0,1,2.343.7,5.955,5.955,0,0,1,5.062-3.228,5.806,5.806,0,0,1,4.683,2.306c.145-.015.291-.024.436-.026a5.673,5.673,0,0,1,5.746,5.075,6.991,6.991,0,0,1,4.669,2.435,5.294,5.294,0,0,0,.395-2.113,5.505,5.505,0,0,0-5.669-5.336,5.735,5.735,0,0,0-.678.058,4.267,4.267,0,0,0,.086-.929,4.259,4.259,0,0,0-4.342-4.174,4.258,4.258,0,0,0-1.107.173,4.583,4.583,0,0,0-4.012-2.453,4.954,4.954,0,0,0-4.531,4.578,3.291,3.291,0,0,0-2.874-2.052c-1.608.032-2.92,1.6-3.223,3.665a6.914,6.914,0,0,0-4.339-1.418,6.952,6.952,0,0,0-6.814,7.088,6.865,6.865,0,0,0,.137,1.187A8.341,8.341,0,0,1-468.32,122.559Z" transform="translate(474.93 -112.802)" fill="#fffdf4"/>
    </g>
    <path id="Path_619" data-name="Path 619" d="M-453.166,166.965a9.077,9.077,0,0,1-7.5,3.971,10.049,10.049,0,0,1-1.084-.038,7.559,7.559,0,0,1-7,6.336A6.794,6.794,0,0,1-472.9,175.9a7.259,7.259,0,0,1-6.013,3.538,7.258,7.258,0,0,1-6.662-4.193,6.573,6.573,0,0,1-2.68.619,5.938,5.938,0,0,1-6.276-5.542,5.217,5.217,0,0,1,.03-.663,5.38,5.38,0,0,1-2.656-3.686,5.18,5.18,0,0,0-.392,2.082,5.164,5.164,0,0,0,.828,2.7,6.284,6.284,0,0,0-5.28,6.592,6.276,6.276,0,0,0,5.586,6.381,4.2,4.2,0,0,0-.058.777,3.972,3.972,0,0,0,3.012,3.837,3.85,3.85,0,0,0-.276,1.5,4.531,4.531,0,0,0,4.843,4.165,5.016,5.016,0,0,0,3.451-1.426,5.98,5.98,0,0,0,5.891,5A5.938,5.938,0,0,0-474,193.021a5.67,5.67,0,0,0,4.61,2.358c3.173-.063,5.7-2.967,5.8-6.561a8.515,8.515,0,0,0,2.277.262c4.081-.08,7.334-2.977,7.264-6.47a5.654,5.654,0,0,0-1.234-3.379,3.283,3.283,0,0,0,2.113-2.84,2.9,2.9,0,0,0-1.365-2.268,6.329,6.329,0,0,0,1.981-4.635A5.964,5.964,0,0,0-453.166,166.965Z" transform="translate(-2.595 -65.745)" fill="#ffebbf"/>
    <path id="Path_620" data-name="Path 620" d="M-470.927,166.587a2.584,2.584,0,0,1-2.632-2.53,2.584,2.584,0,0,1,2.53-2.632,2.584,2.584,0,0,1,2.632,2.53A2.585,2.585,0,0,1-470.927,166.587Z" transform="translate(-21.046 -62.793)"/>
    <path id="Path_621" data-name="Path 621" d="M-467.8,165.266a1.879,1.879,0,0,1-1.841,1.916,1.88,1.88,0,0,1-1.916-1.842,1.879,1.879,0,0,1,1.842-1.916A1.879,1.879,0,0,1-467.8,165.266Z" transform="translate(-22.343 -64.09)" fill="#fff7db"/>
    <path id="Path_622" data-name="Path 622" d="M-455.68,150.779a1.77,1.77,0,0,1-1.8-1.732,1.77,1.77,0,0,1,1.732-1.8,1.77,1.77,0,0,1,1.8,1.732A1.77,1.77,0,0,1-455.68,150.779Z" transform="translate(-31.475 -53.595)"/>
    <path id="Path_623" data-name="Path 623" d="M-453.352,150.288a1.065,1.065,0,0,1-1.044,1.086,1.065,1.065,0,0,1-1.086-1.043,1.065,1.065,0,0,1,1.044-1.086A1.065,1.065,0,0,1-453.352,150.288Z" transform="translate(-32.773 -54.893)" fill="#fff7db"/>
    <path id="Path_624" data-name="Path 624" d="M-453.569,228.084a3.024,3.024,0,0,1-3.079-2.96,3.024,3.024,0,0,1,2.96-3.079,3.024,3.024,0,0,1,3.079,2.96A3.024,3.024,0,0,1-453.569,228.084Z" transform="translate(-32.016 -102.115)"/>
    <circle id="Ellipse_15" data-name="Ellipse 15" cx="2.317" cy="2.317" r="2.317" transform="matrix(0.81, -0.587, 0.587, 0.81, -488.88, 122.433)" fill="#ffebbf"/>
    <path id="Path_625" data-name="Path 625" d="M-436.9,207.12a1.958,1.958,0,0,1-1.994-1.917,1.958,1.958,0,0,1,1.917-1.994,1.958,1.958,0,0,1,1.993,1.917A1.958,1.958,0,0,1-436.9,207.12Z" transform="translate(-43.532 -89.898)"/>
    <path id="Path_626" data-name="Path 626" d="M-434.389,206.438a1.252,1.252,0,0,1-1.228,1.277,1.252,1.252,0,0,1-1.277-1.228,1.253,1.253,0,0,1,1.228-1.277A1.253,1.253,0,0,1-434.389,206.438Z" transform="translate(-44.83 -91.195)" fill="#ffebbf"/>
    <path id="Path_627" data-name="Path 627" d="M-250.741,147.323a4.587,4.587,0,0,1-3.947-2.161,3.742,3.742,0,0,1-1.394.3,4.146,4.146,0,0,1-3.5-1.981,6.209,6.209,0,0,1-3.387,1.09,6.3,6.3,0,0,1-6.384-6.2,6.359,6.359,0,0,1,.027-.724,4.423,4.423,0,0,1-3.245-4.132,4.087,4.087,0,0,1,.021-.5,5.534,5.534,0,0,1-3.035-4.827,5.552,5.552,0,0,1,.472-2.347,6.993,6.993,0,0,1-1.806-4.558,6.837,6.837,0,0,1,3.284-6.038,4.923,4.923,0,0,1-.176-1.211,5.155,5.155,0,0,1,5.111-5.186c.162,0,.325,0,.487.013a4.989,4.989,0,0,1,4.174-2.33,5.172,5.172,0,0,1,.64.027,6.358,6.358,0,0,1,6.236-4.954,6.781,6.781,0,0,1,3.966,1.168,7.3,7.3,0,0,1,6.492-4.54,7.361,7.361,0,0,1,6.866,4.736,7.889,7.889,0,0,1,2.545-.473,7.535,7.535,0,0,1,7.794,7.224,6.53,6.53,0,0,1,6.116,6.4,6.519,6.519,0,0,1-1.666,4.5,7.388,7.388,0,0,1,1.5,4.36,7.029,7.029,0,0,1-4.825,6.973c0,.018,0,.035,0,.052a3.87,3.87,0,0,1-.677,2.272,5.865,5.865,0,0,1,.689,2.647,6.537,6.537,0,0,1-6.627,6.413,7.216,7.216,0,0,1-2.333-.339,6.5,6.5,0,0,1-6.067,3.927,7.117,7.117,0,0,1-4.057-1.137A4.519,4.519,0,0,1-250.741,147.323Z" transform="translate(-148.598 -21.8)"/>
    <path id="Path_628" data-name="Path 628" d="M-224.487,123.123a5.134,5.134,0,0,0,2.293-4.385,5.111,5.111,0,0,0-5.19-5.031,5.052,5.052,0,0,0-1.1.145,5.759,5.759,0,0,0,.174-1.5,6.12,6.12,0,0,0-6.362-5.864,6.4,6.4,0,0,0-3.467,1.089,6.067,6.067,0,0,0-5.943-5.353,6.109,6.109,0,0,0-5.764,6.055,5.083,5.083,0,0,0-4.694-2.683,4.829,4.829,0,0,0-4.956,4.675,4.173,4.173,0,0,0,.1.788,3.736,3.736,0,0,0-2.016-.536,3.392,3.392,0,0,0-3.343,2.52,3.9,3.9,0,0,0-1.317-.2,3.744,3.744,0,0,0-3.734,3.753,3.57,3.57,0,0,0,.632,1.954,5.338,5.338,0,0,0-3.74,5.294,5.483,5.483,0,0,0,2.184,4.312,4.115,4.115,0,0,0-.85,2.593,4.1,4.1,0,0,0,3.345,3.961,2.864,2.864,0,0,0-.33,1.37,3.06,3.06,0,0,0,3.181,2.932,3.244,3.244,0,0,0,.4-.047,4.959,4.959,0,0,0-.366,1.971,4.887,4.887,0,0,0,4.951,4.822,4.827,4.827,0,0,0,3.927-2.169c.3,1.77,1.52,3.089,2.957,3.06a2.64,2.64,0,0,0,2.04-1.139,3.406,3.406,0,0,0,3.3,3,3.309,3.309,0,0,0,3-2.31,5.376,5.376,0,0,0,4.352,1.909c2.811-.056,5.052-2,5.006-4.334,0-.1-.014-.2-.024-.3a5.644,5.644,0,0,0,3.418,1.043,5.127,5.127,0,0,0,5.249-4.98,4.567,4.567,0,0,0-1.065-2.823,2.559,2.559,0,0,0,1.054-2.1,2.487,2.487,0,0,0-.372-1.241c.045,0,.089.006.133,0a5.45,5.45,0,0,0,5.062-5.79A5.881,5.881,0,0,0-224.487,123.123Z" transform="translate(-151.193 -24.395)" fill="#fff7db"/>
    <g id="Group_1113" data-name="Group 1113" transform="translate(-424.112 77.832)">
      <path id="Path_629" data-name="Path 629" d="M-271.431,124.415a4.945,4.945,0,0,1-.176-1.211,5.156,5.156,0,0,1,5.111-5.186q.244,0,.487.013a4.989,4.989,0,0,1,4.173-2.33,5.177,5.177,0,0,1,.64.027,6.358,6.358,0,0,1,6.236-4.954,6.783,6.783,0,0,1,3.966,1.168,7.3,7.3,0,0,1,6.492-4.54,7.361,7.361,0,0,1,6.865,4.736,7.889,7.889,0,0,1,2.545-.473,7.535,7.535,0,0,1,7.795,7.224,6.472,6.472,0,0,1,4.543,2.275,5.12,5.12,0,0,0,.559-2.428,5.111,5.111,0,0,0-5.19-5.031,5.052,5.052,0,0,0-1.1.145,5.759,5.759,0,0,0,.174-1.5,6.12,6.12,0,0,0-6.362-5.864,6.4,6.4,0,0,0-3.467,1.089,6.067,6.067,0,0,0-5.943-5.353,6.11,6.11,0,0,0-5.764,6.055,5.084,5.084,0,0,0-4.694-2.683,4.829,4.829,0,0,0-4.956,4.675,4.173,4.173,0,0,0,.1.788,3.737,3.737,0,0,0-2.016-.536,3.392,3.392,0,0,0-3.343,2.52,3.9,3.9,0,0,0-1.317-.2,3.744,3.744,0,0,0-3.734,3.753,3.57,3.57,0,0,0,.632,1.954,5.338,5.338,0,0,0-3.74,5.294,5.63,5.63,0,0,0,.251,1.534A6.483,6.483,0,0,1-271.431,124.415Z" transform="translate(272.919 -102.227)" fill="#fffdf4"/>
    </g>
    <path id="Path_630" data-name="Path 630" d="M-222.364,145.8a7.229,7.229,0,0,1-1.4.167,7.216,7.216,0,0,1-2.333-.339,6.5,6.5,0,0,1-6.067,3.927,7.12,7.12,0,0,1-4.057-1.137,4.521,4.521,0,0,1-3.294,1.539,4.586,4.586,0,0,1-3.947-2.161,3.729,3.729,0,0,1-1.394.3,4.145,4.145,0,0,1-3.5-1.981,6.208,6.208,0,0,1-3.387,1.09,6.3,6.3,0,0,1-6.384-6.2,6.366,6.366,0,0,1,.027-.724,4.423,4.423,0,0,1-3.245-4.132,4.092,4.092,0,0,1,.021-.5,5.534,5.534,0,0,1-3.035-4.827,5.527,5.527,0,0,1,.027-.643,2.878,2.878,0,0,0-.427,1,3.9,3.9,0,0,0-1.317-.2,3.744,3.744,0,0,0-3.734,3.753,3.57,3.57,0,0,0,.632,1.954,5.338,5.338,0,0,0-3.74,5.294,5.483,5.483,0,0,0,2.184,4.312,4.115,4.115,0,0,0-.85,2.593,4.1,4.1,0,0,0,3.345,3.961,2.865,2.865,0,0,0-.33,1.37,3.06,3.06,0,0,0,3.181,2.932,3.184,3.184,0,0,0,.4-.047,4.959,4.959,0,0,0-.366,1.971,4.887,4.887,0,0,0,4.951,4.822,4.828,4.828,0,0,0,3.927-2.169c.3,1.77,1.52,3.089,2.957,3.06a2.64,2.64,0,0,0,2.04-1.139,3.406,3.406,0,0,0,3.3,3,3.31,3.31,0,0,0,3-2.31,5.376,5.376,0,0,0,4.352,1.909c2.811-.056,5.052-2,5.006-4.334,0-.1-.014-.2-.024-.3a5.644,5.644,0,0,0,3.418,1.043,5.127,5.127,0,0,0,5.249-4.98,4.567,4.567,0,0,0-1.065-2.823,2.559,2.559,0,0,0,1.054-2.1,2.487,2.487,0,0,0-.372-1.241c.045,0,.089.006.133,0A5.441,5.441,0,0,0-222.364,145.8Z" transform="translate(-151.193 -42.524)" fill="#ffebbf"/>
    <path id="Path_631" data-name="Path 631" d="M-199.548,119.184a2.374,2.374,0,0,1-2.417-2.324,2.373,2.373,0,0,1,2.323-2.417,2.373,2.373,0,0,1,2.417,2.323A2.374,2.374,0,0,1-199.548,119.184Z" transform="translate(-197.217 -32.318)"/>
    <circle id="Ellipse_16" data-name="Ellipse 16" cx="1.668" cy="1.668" r="1.668" transform="translate(-399.169 84.596) rotate(-47.45)" fill="#fff7db"/>
    <path id="Path_632" data-name="Path 632" d="M-163.219,179.744a2.2,2.2,0,0,1-2.243-2.156,2.2,2.2,0,0,1,2.156-2.243,2.2,2.2,0,0,1,2.243,2.156A2.2,2.2,0,0,1-163.219,179.744Z" transform="translate(-220.895 -71.823)"/>
    <path id="Path_633" data-name="Path 633" d="M-160.468,178.812a1.5,1.5,0,0,1-1.467,1.526,1.5,1.5,0,0,1-1.526-1.467,1.5,1.5,0,0,1,1.467-1.526A1.5,1.5,0,0,1-160.468,178.812Z" transform="translate(-222.193 -73.12)" fill="#fff7db"/>
    <path id="Path_634" data-name="Path 634" d="M-220.666,169.751a3.359,3.359,0,0,1-3.42-3.288,3.358,3.358,0,0,1,3.288-3.42,3.358,3.358,0,0,1,3.42,3.288A3.358,3.358,0,0,1-220.666,169.751Z" transform="translate(-182.868 -63.842)"/>
    <path id="Path_635" data-name="Path 635" d="M-216.783,167.642a2.652,2.652,0,0,1-2.6,2.7,2.652,2.652,0,0,1-2.7-2.6,2.652,2.652,0,0,1,2.6-2.7A2.652,2.652,0,0,1-216.783,167.642Z" transform="translate(-184.165 -65.14)" fill="#ffebbf"/>
    <circle id="Ellipse_17" data-name="Ellipse 17" cx="1.858" cy="1.858" r="1.858" transform="matrix(0.697, -0.717, 0.717, 0.697, -399.207, 100.612)"/>
    <path id="Path_636" data-name="Path 636" d="M-195.536,164.806a1.155,1.155,0,0,1-1.132,1.177,1.155,1.155,0,0,1-1.178-1.132,1.155,1.155,0,0,1,1.132-1.177A1.155,1.155,0,0,1-195.536,164.806Z" transform="translate(-199.889 -64.252)" fill="#fff7db"/>
    <path id="Path_637" data-name="Path 637" d="M-188.14,213.875a1.474,1.474,0,0,1-1.5-1.443,1.474,1.474,0,0,1,1.443-1.5,1.474,1.474,0,0,1,1.5,1.443A1.474,1.474,0,0,1-188.14,213.875Z" transform="translate(-205.211 -94.905)"/>
    <path id="Path_638" data-name="Path 638" d="M-186.1,213.684a.77.77,0,0,1-.755.785.77.77,0,0,1-.785-.755.77.77,0,0,1,.755-.785A.77.77,0,0,1-186.1,213.684Z" transform="translate(-206.508 -96.202)" fill="#ffebbf"/>
    <path id="Path_639" data-name="Path 639" d="M-164.193,131.577a1.474,1.474,0,0,1-1.5-1.443,1.474,1.474,0,0,1,1.443-1.5,1.474,1.474,0,0,1,1.5,1.443A1.474,1.474,0,0,1-164.193,131.577Z" transform="translate(-220.744 -41.522)"/>
    <path id="Path_640" data-name="Path 640" d="M-162.155,131.386a.77.77,0,0,1-.755.785.77.77,0,0,1-.785-.754.77.77,0,0,1,.755-.785A.77.77,0,0,1-162.155,131.386Z" transform="translate(-222.042 -42.819)" fill="#fff7db"/>
    <path id="Path_641" data-name="Path 641" d="M-360.982,153.176a7.342,7.342,0,0,1-6.838-4.193,6.412,6.412,0,0,1-3.364,1.046,6.692,6.692,0,0,1-6.3-4.361,7.541,7.541,0,0,1-4.818-7.057,8.089,8.089,0,0,1,.587-3.216,5.313,5.313,0,0,1-2.22-4.131,5.179,5.179,0,0,1,1.545-3.752,8.225,8.225,0,0,1-1.911-5.089,8.675,8.675,0,0,1,8.676-8.646,9.071,9.071,0,0,1,2.261.238,7.588,7.588,0,0,1,6.773-5.392,6.972,6.972,0,0,1,5.377,2.466,8.523,8.523,0,0,1,6.563-3.14,8.636,8.636,0,0,1,5.962,2.133,6.259,6.259,0,0,1,4.64-2.218,6.234,6.234,0,0,1,5.56,3.181,7.6,7.6,0,0,1,1.692-.224,7.4,7.4,0,0,1,7.624,7.146,7.206,7.206,0,0,1-2,5.1,7.629,7.629,0,0,1,2.578,5.557,7.558,7.558,0,0,1-3.654,6.648,6.006,6.006,0,0,1,1.124,3.386,6.091,6.091,0,0,1-4.25,5.922,5.128,5.128,0,0,1-5.071,4.6,5.234,5.234,0,0,1-3.019-.871,9.343,9.343,0,0,1-2.339.537,6.852,6.852,0,0,1-5.9,3.285,7.288,7.288,0,0,1-4.121-1.138A7.412,7.412,0,0,1-360.982,153.176Z" transform="translate(-78.941 -28.051)"/>
    <path id="Path_642" data-name="Path 642" d="M-327.407,131.245a6.142,6.142,0,0,0-3.557-5.476,5.856,5.856,0,0,0,2.975-5.178,5.984,5.984,0,0,0-6.191-5.769,6.2,6.2,0,0,0-2.5.581,4.834,4.834,0,0,0-4.75-3.539,4.833,4.833,0,0,0-4.467,3.246,6.91,6.91,0,0,0-6.135-3.161,6.646,6.646,0,0,0-6.456,4.523,6.056,6.056,0,0,0-5.484-3.85c-2.9.057-5.273,2.533-5.814,5.788a7.717,7.717,0,0,0-3.22-.634,7.261,7.261,0,0,0-7.3,7.213,6.9,6.9,0,0,0,2.635,5.251,4.1,4.1,0,0,0-2.269,3.591,4.164,4.164,0,0,0,2.671,3.624,6.612,6.612,0,0,0-1.038,3.723,6,6,0,0,0,4.512,5.932,5.348,5.348,0,0,0,5.178,4.109,5.157,5.157,0,0,0,4.178-2.357,5.779,5.779,0,0,0,6.024,5.5,5.974,5.974,0,0,0,4.98-2.784,5.658,5.658,0,0,0,4.3,1.733,5.277,5.277,0,0,0,5-3.225,7.64,7.64,0,0,0,3.468-.833,3.851,3.851,0,0,0,2.792,1.108,3.693,3.693,0,0,0,3.71-3.67,3.432,3.432,0,0,0-.081-.64,4.76,4.76,0,0,0,4.315-4.777,4.677,4.677,0,0,0-2.28-3.9A6.1,6.1,0,0,0-327.407,131.245Z" transform="translate(-81.535 -30.645)" fill="#fff7db"/>
    <g id="Group_1114" data-name="Group 1114" transform="translate(-461.842 81.218)">
      <path id="Path_643" data-name="Path 643" d="M-372.976,121.916a9.088,9.088,0,0,1,2.262.238,7.589,7.589,0,0,1,6.772-5.392,6.973,6.973,0,0,1,5.377,2.466A8.522,8.522,0,0,1-352,116.088a8.632,8.632,0,0,1,5.962,2.133A6.259,6.259,0,0,1-341.4,116a6.234,6.234,0,0,1,5.56,3.181,7.58,7.58,0,0,1,1.691-.224,7.529,7.529,0,0,1,6.044,2.821,5.677,5.677,0,0,0,.115-1.191,5.985,5.985,0,0,0-6.191-5.769,6.2,6.2,0,0,0-2.5.581,4.834,4.834,0,0,0-4.75-3.539,4.833,4.833,0,0,0-4.467,3.246,6.91,6.91,0,0,0-6.135-3.161,6.646,6.646,0,0,0-6.456,4.523,6.056,6.056,0,0,0-5.484-3.85c-2.9.057-5.273,2.533-5.814,5.788a7.717,7.717,0,0,0-3.22-.634,7.261,7.261,0,0,0-7.3,7.213,6.743,6.743,0,0,0,.068.818A8.952,8.952,0,0,1-372.976,121.916Z" transform="translate(380.308 -111.863)" fill="#fffdf4"/>
    </g>
    <g id="Group_1115" data-name="Group 1115" transform="translate(-459.843 107.239)">
      <path id="Path_644" data-name="Path 644" d="M-328.446,187.271a5.128,5.128,0,0,1-5.071,4.6,5.236,5.236,0,0,1-3.019-.871,9.374,9.374,0,0,1-2.339.537,6.851,6.851,0,0,1-5.9,3.284,7.289,7.289,0,0,1-4.121-1.138,7.41,7.41,0,0,1-5.157,2.189,7.342,7.342,0,0,1-6.838-4.193,6.411,6.411,0,0,1-3.364,1.046,6.691,6.691,0,0,1-6.3-4.36,6.9,6.9,0,0,1-3.255-2.437,6.621,6.621,0,0,0-.8,3.293,6,6,0,0,0,4.512,5.932,5.348,5.348,0,0,0,5.178,4.109,5.157,5.157,0,0,0,4.178-2.357,5.779,5.779,0,0,0,6.024,5.5,5.974,5.974,0,0,0,4.98-2.784,5.658,5.658,0,0,0,4.3,1.733,5.277,5.277,0,0,0,5-3.225,7.639,7.639,0,0,0,3.468-.833,3.851,3.851,0,0,0,2.792,1.108,3.693,3.693,0,0,0,3.71-3.67,3.434,3.434,0,0,0-.081-.64,4.76,4.76,0,0,0,4.315-4.777,4.588,4.588,0,0,0-.9-2.64A6.267,6.267,0,0,1-328.446,187.271Z" transform="translate(374.618 -185.925)" fill="#ffebbf"/>
    </g>
    <g id="Group_1116" data-name="Group 1116" transform="translate(-493.05 73.456)">
      <path id="Path_645" data-name="Path 645" d="M-384.779,96.39a3.724,3.724,0,0,0-1.985-.956,3.791,3.791,0,0,0-2.241.372,3.8,3.8,0,0,0-1.121.879,4.318,4.318,0,0,0-1.839-1.633,4.362,4.362,0,0,0-3.271-.2,4.2,4.2,0,0,0-2.419,2.092,3.8,3.8,0,0,0-.194,3.035,4.11,4.11,0,0,1,.7-2.742,3.781,3.781,0,0,1,2.176-1.52,3.686,3.686,0,0,1,2.561.264,3.655,3.655,0,0,1,1.741,1.867l.422,1.029.506-.988a3.042,3.042,0,0,1,1.179-1.282,3.164,3.164,0,0,1,1.735-.448,3.448,3.448,0,0,1,1.782.57,3.691,3.691,0,0,1,1.288,1.5A3.342,3.342,0,0,0-384.779,96.39Z" transform="translate(423.042 -92.919)"/>
      <path id="Path_646" data-name="Path 646" d="M-252.608,91.67a1.955,1.955,0,0,1,.9-1.481,2.413,2.413,0,0,1,1.823-.374,2.422,2.422,0,0,1,1.564,1.011,1.96,1.96,0,0,1,.292,1.709,2.876,2.876,0,0,0-2.053-1.684,2.633,2.633,0,0,0-1.255.069A3.388,3.388,0,0,0-252.608,91.67Z" transform="translate(328.683 -89.77)"/>
      <path id="Path_647" data-name="Path 647" d="M-283.57,93.418a3.065,3.065,0,0,0-1.7-.68,3.148,3.148,0,0,0-1.844.448,3.191,3.191,0,0,0-.812.713,3.561,3.561,0,0,0-1.564-1.149,3.621,3.621,0,0,0-2.736.065,3.462,3.462,0,0,0-1.846,1.915,3.069,3.069,0,0,0,.092,2.5,3.378,3.378,0,0,1,.434-2.251,3.044,3.044,0,0,1,1.65-1.325,2.947,2.947,0,0,1,2.034.056,2.917,2.917,0,0,1,1.489,1.355l.506.988.421-1.022a2.414,2.414,0,0,1,.832-1.085,2.522,2.522,0,0,1,1.334-.482,2.879,2.879,0,0,1,2.633,1.415A2.7,2.7,0,0,0-283.57,93.418Z" transform="translate(355.721 -91.549)"/>
      <path id="Path_648" data-name="Path 648" d="M-430.068,145.828a3.428,3.428,0,0,1,.457-2.687,3.935,3.935,0,0,1,2.3-1.715,3.952,3.952,0,0,1,2.858.268,3.441,3.441,0,0,1,1.781,2.065,4.951,4.951,0,0,0-2.092-1.3,4.136,4.136,0,0,0-2.265-.015,4.088,4.088,0,0,0-1.926,1.189A4.882,4.882,0,0,0-430.068,145.828Z" transform="translate(443.858 -123.178)"/>
      <path id="Path_649" data-name="Path 649" d="M-462.22,178.138a5.472,5.472,0,0,0-3.636,1.6,5.677,5.677,0,0,0-1.669,3.671,5.909,5.909,0,0,0,.7,3.205,3.054,3.054,0,0,0-.986.41,2.907,2.907,0,0,0-1.133,1.432,2.907,2.907,0,0,0-.087,1.758,2.666,2.666,0,0,0,.918,1.4,2.726,2.726,0,0,1-.288-2.924,2.432,2.432,0,0,1,.992-1,2.09,2.09,0,0,1,1.327-.222l.991.175-.567-.885a5.338,5.338,0,0,1-.82-3.274,5.089,5.089,0,0,1,1.32-3.078,5.184,5.184,0,0,1,3-1.617,5.891,5.891,0,0,1,3.55.59A5.251,5.251,0,0,0-462.22,178.138Z" transform="translate(469.132 -147.087)"/>
      <path id="Path_650" data-name="Path 650" d="M-414.39,166.36a3.727,3.727,0,0,0-2.2-.136,3.79,3.79,0,0,0-1.935,1.191,3.8,3.8,0,0,0-.706,1.238,4.318,4.318,0,0,0-2.32-.818,4.361,4.361,0,0,0-3.1,1.05,4.2,4.2,0,0,0-1.45,2.851,3.8,3.8,0,0,0,.967,2.883,4.109,4.109,0,0,1-.39-2.8,3.782,3.782,0,0,1,1.44-2.229,3.688,3.688,0,0,1,2.471-.723,3.657,3.657,0,0,1,2.317,1.071l.779.793.1-1.1a3.041,3.041,0,0,1,.607-1.633,3.166,3.166,0,0,1,1.437-1.07,3.45,3.45,0,0,1,1.865-.145,3.689,3.689,0,0,1,1.76.905A3.341,3.341,0,0,0-414.39,166.36Z" transform="translate(441.23 -139.295)"/>
      <path id="Path_651" data-name="Path 651" d="M-413.51,204.253a4.269,4.269,0,0,0-2.436.066,4.12,4.12,0,0,0-2.047,1.458,3.8,3.8,0,0,0-.689,1.618,3.981,3.981,0,0,0-2.2-.216,4.049,4.049,0,0,0-2.506,1.568,4.583,4.583,0,0,0-.675,1.3,4.666,4.666,0,0,0-.194,1.426,4.023,4.023,0,0,0,.96,2.561,4.332,4.332,0,0,1,.576-4.744,3.332,3.332,0,0,1,2.009-1.11,3.16,3.16,0,0,1,2.2.466l.873.539-.073-1a3.074,3.074,0,0,1,.5-1.854,3.656,3.656,0,0,1,1.539-1.281,4.148,4.148,0,0,1,4.123.472A3.746,3.746,0,0,0-413.51,204.253Z" transform="translate(440.022 -163.936)"/>
      <path id="Path_652" data-name="Path 652" d="M-163.25,158.04a1.954,1.954,0,0,1,.519-1.652,2.415,2.415,0,0,1,1.682-.8,2.42,2.42,0,0,1,1.76.61,1.958,1.958,0,0,1,.69,1.59,2.877,2.877,0,0,0-2.394-1.147,2.64,2.64,0,0,0-1.2.365A3.39,3.39,0,0,0-163.25,158.04Z" transform="translate(270.738 -132.462)"/>
      <path id="Path_653" data-name="Path 653" d="M-202.78,136.841a2.578,2.578,0,0,0-1.289-.893,2.593,2.593,0,0,0-1.635.027,2.76,2.76,0,0,0-.773.429,5.246,5.246,0,0,0-1.873-2.155,5.041,5.041,0,0,0-3.509-.781,4.841,4.841,0,0,0-3.076,1.74,4.6,4.6,0,0,0-1.02,3.224,5.235,5.235,0,0,1,1.5-2.784,4.554,4.554,0,0,1,2.712-1.223,4.454,4.454,0,0,1,2.826.7,4.678,4.678,0,0,1,1.849,2.282l.37.986.452-.9a1.8,1.8,0,0,1,.832-.8,2.115,2.115,0,0,1,1.208-.173,2.4,2.4,0,0,1,1.911,1.722A2.341,2.341,0,0,0-202.78,136.841Z" transform="translate(304.916 -118.078)"/>
      <path id="Path_654" data-name="Path 654" d="M-207.065,190.782a4.371,4.371,0,0,0-2.4-.9,4.419,4.419,0,0,0-2.555.655,4.4,4.4,0,0,0-1.283,1.227,5.056,5.056,0,0,0-2.351-1.813,5.086,5.086,0,0,0-3.8.067,4.92,4.92,0,0,0-2.628,2.64,4.5,4.5,0,0,0,.016,3.566,4.818,4.818,0,0,1,.51-3.314,4.5,4.5,0,0,1,2.431-2.049,4.409,4.409,0,0,1,3.1.055,4.382,4.382,0,0,1,2.276,2.075l.5.993.425-1.027a3.66,3.66,0,0,1,1.3-1.656,3.794,3.794,0,0,1,2.044-.69,4.1,4.1,0,0,1,2.172.533,4.32,4.32,0,0,1,1.637,1.677A3.972,3.972,0,0,0-207.065,190.782Z" transform="translate(309.119 -154.534)"/>
      <path id="Path_655" data-name="Path 655" d="M-276.414,156.794a2.908,2.908,0,0,0-1.184-1.3,2.909,2.909,0,0,0-1.786-.386,3.055,3.055,0,0,0-1.022.311,5.906,5.906,0,0,0-1.5-2.917,5.677,5.677,0,0,0-3.622-1.773,5.473,5.473,0,0,0-3.822,1.078,5.25,5.25,0,0,0-2,3.252,5.89,5.89,0,0,1,2.366-2.712,5.186,5.186,0,0,1,3.347-.661,5.089,5.089,0,0,1,2.975,1.538,5.337,5.337,0,0,1,1.448,3.049l.124,1.044.654-.765a2.09,2.09,0,0,1,1.166-.672,2.431,2.431,0,0,1,1.4.145,2.724,2.724,0,0,1,1.635,2.44A2.667,2.667,0,0,0-276.414,156.794Z" transform="translate(353.813 -129.293)"/>
      <path id="Path_656" data-name="Path 656" d="M-321.285,189.383a4.209,4.209,0,0,0-2.273-.985,4.261,4.261,0,0,0-2.494.51,4.249,4.249,0,0,0-1.277,1.1,4.869,4.869,0,0,0-2.169-1.834,4.9,4.9,0,0,0-3.669-.11,4.737,4.737,0,0,0-2.65,2.425,4.325,4.325,0,0,0-.141,3.431,4.642,4.642,0,0,1,.654-3.154,4.319,4.319,0,0,1,2.426-1.845,4.229,4.229,0,0,1,2.963.2,4.2,4.2,0,0,1,2.08,2.089l.454,1.016.474-1.005a3.5,3.5,0,0,1,1.32-1.523,3.634,3.634,0,0,1,1.985-.569,3.928,3.928,0,0,1,2.057.605,4.161,4.161,0,0,1,1.5,1.68A3.813,3.813,0,0,0-321.285,189.383Z" transform="translate(382.935 -153.332)"/>
      <path id="Path_657" data-name="Path 657" d="M-341.7,146.654a4.266,4.266,0,0,0-2.268-.89,4.119,4.119,0,0,0-2.453.544,3.8,3.8,0,0,0-1.265,1.221,3.976,3.976,0,0,0-1.94-1.057,4.047,4.047,0,0,0-2.919.466,4.6,4.6,0,0,0-1.129.936,4.664,4.664,0,0,0-.735,1.237,4.022,4.022,0,0,0-.115,2.732,4.331,4.331,0,0,1,2.381-4.143,3.33,3.33,0,0,1,2.283-.238,3.161,3.161,0,0,1,1.844,1.287l.593.837.323-.951a3.072,3.072,0,0,1,1.185-1.511,3.657,3.657,0,0,1,1.917-.58,4.147,4.147,0,0,1,3.612,2.043A3.743,3.743,0,0,0-341.7,146.654Z" transform="translate(394.91 -126.079)"/>
    </g>
    <path id="Path_658" data-name="Path 658" d="M-300.989,133.289a2.627,2.627,0,0,1-2.675-2.573,2.627,2.627,0,0,1,2.572-2.675,2.627,2.627,0,0,1,2.676,2.572A2.628,2.628,0,0,1-300.989,133.289Z" transform="translate(-131.249 -41.139)"/>
    <circle id="Ellipse_18" data-name="Ellipse 18" cx="1.922" cy="1.922" r="1.922" transform="translate(-435.008 89.568) rotate(-45.873)" fill="#fff7db"/>
    <path id="Path_659" data-name="Path 659" d="M-276.528,135.471a2.007,2.007,0,0,1-2.044-1.964,2.007,2.007,0,0,1,1.965-2.044,2.007,2.007,0,0,1,2.043,1.965A2.007,2.007,0,0,1-276.528,135.471Z" transform="translate(-147.526 -43.358)"/>
    <path id="Path_660" data-name="Path 660" d="M-273.968,134.739a1.3,1.3,0,0,1-1.276,1.327,1.3,1.3,0,0,1-1.327-1.276,1.3,1.3,0,0,1,1.276-1.327A1.3,1.3,0,0,1-273.968,134.739Z" transform="translate(-148.823 -44.655)" fill="#fff7db"/>
    <path id="Path_661" data-name="Path 661" d="M-267.96,197.233a2.627,2.627,0,0,1-2.676-2.572,2.628,2.628,0,0,1,2.573-2.676,2.627,2.627,0,0,1,2.676,2.573A2.627,2.627,0,0,1-267.96,197.233Z" transform="translate(-152.673 -82.616)"/>
    <circle id="Ellipse_19" data-name="Ellipse 19" cx="1.922" cy="1.922" r="1.922" transform="translate(-423.403 112.034) rotate(-45.873)" fill="#fff7db"/>
    <path id="Path_662" data-name="Path 662" d="M-331.51,168.921a2.131,2.131,0,0,1-2.17-2.086,2.131,2.131,0,0,1,2.086-2.17,2.131,2.131,0,0,1,2.17,2.086A2.131,2.131,0,0,1-331.51,168.921Z" transform="translate(-111.779 -64.894)"/>
    <path id="Path_663" data-name="Path 663" d="M-328.829,168.062a1.426,1.426,0,0,1-1.4,1.454,1.426,1.426,0,0,1-1.454-1.4,1.425,1.425,0,0,1,1.4-1.454A1.426,1.426,0,0,1-328.829,168.062Z" transform="translate(-113.077 -66.192)" fill="#fff7db"/>
    <path id="Path_664" data-name="Path 664" d="M-353.685,178.5a3.372,3.372,0,0,1-3.434-3.3,3.372,3.372,0,0,1,3.3-3.434,3.372,3.372,0,0,1,3.434,3.3A3.373,3.373,0,0,1-353.685,178.5Z" transform="translate(-96.575 -69.5)"/>
    <circle id="Ellipse_20" data-name="Ellipse 20" cx="2.666" cy="2.666" r="2.666" transform="translate(-453.501 107.668) rotate(-77.667)" fill="#fff7db"/>
    <path id="Path_665" data-name="Path 665" d="M-406.812,331.706a1.409,1.409,0,0,1-.62-.085l.5-1.315-.5,1.312c-.312-.117-3.128-1.183-5.9-2.284-6.624-2.633-8.2-3.258-7.755-6.041.26-1.636.836-2.092,15.424-10.392,3.264-1.857,5.481-1.236,6.124.544a3.892,3.892,0,0,1-1.348,4.02c-1.5.848-2.239,1.264-3.773,2.127-2.407,1.354-4.725,2.659-6.621,3.752,1.832.732,3.98,1.565,6.087,2.359a1.4,1.4,0,0,1,.819,1.811l-1.239,3.288a1.406,1.406,0,0,1-.737.785A1.406,1.406,0,0,1-406.812,331.706Z" transform="translate(-55.035 -160.318)"/>
    <path id="Path_666" data-name="Path 666" d="M-399.114,368.008c-.064.006-.189.008-.254,0a3.482,3.482,0,0,1-2.33-1.518c-.955-1.118-2.989-4.142-2.809-5.844.17-1.6,1.984-2.616,3.6-2.758a4.878,4.878,0,0,1,.571-.017,6.528,6.528,0,0,1,1.5-4.9,14.794,14.794,0,0,1,2.472-2.3,1.4,1.4,0,0,1,.662-.233,1.4,1.4,0,0,1,.364.015c.064.011,1.572.275,2.753.561a3.577,3.577,0,0,1,2.446,3.168c.282,5.485-.411,6.6-.639,6.968C-391.579,362.449-397.1,367.832-399.114,368.008Z" transform="translate(-65.83 -185.395)"/>
    <path id="Path_667" data-name="Path 667" d="M-392.981,354.434s1.513.263,2.662.542a2.213,2.213,0,0,1,1.374,1.874c.1,1.923.152,5.22-.429,6.154-.812,1.306-6.214,6.256-7.331,6.2s-3.948-4.533-3.812-5.811,3.372-2.395,4.708-.536c0,0-1.575-3.908.617-6.353A13.6,13.6,0,0,1-392.981,354.434Z" transform="translate(-68.423 -187.99)" fill="#fff7db"/>
    <path id="Path_668" data-name="Path 668" d="M-388.913,369.614c-.944,1.233-2.857,1.645-4.826,1.342a3.262,3.262,0,0,1-2.593-2.445,8.778,8.778,0,0,0,.524,3.478c-1.336-1.859-4.573-.742-4.708.536s2.7,5.754,3.812,5.811,6.519-4.893,7.331-6.2A6.355,6.355,0,0,0-388.913,369.614Z" transform="translate(-68.423 -197.121)" fill="#ffebbf"/>
    <path id="Path_669" data-name="Path 669" d="M-401.923,316.539c-13.431,7.619-15.006,8.649-15.163,9.635-.266,1.671.687,2.05,6.886,4.514,2.9,1.154,5.854,2.267,5.883,2.278l1.239-3.288c-3.134-1.181-6.525-2.512-8.755-3.446,2.478-1.5,6.758-3.887,10.962-6.255h0a.97.97,0,0,1,1.513.761l.8.187s2.112-1.143.64-3.943C-398.129,316.581-399.2,314.993-401.923,316.539Z" transform="translate(-57.653 -162.979)" fill="#fff7db"/>
    <path id="Path_670" data-name="Path 670" d="M-227.317,373.378c1.624.142,2.911-.374,3.443-1.38,1.095-2.291,1.586-5.313-.546-6.462a4.312,4.312,0,0,0-1.671-.512c-2.1-.184-3.938,1.24-4.917,3.809a2.989,2.989,0,0,0,.213,2.71A4.5,4.5,0,0,0-227.317,373.378Z" transform="translate(-178.232 -194.849)"/>
    <path id="Path_671" data-name="Path 671" d="M-222.523,373.936s1.74-3.646.03-4.567-3.607-.069-4.609,2.561S-223.226,375.264-222.523,373.936Z" transform="translate(-180.824 -197.445)" fill="#f5d2a0"/>
    <path id="Path_672" data-name="Path 672" d="M-243.959,331.706a1.408,1.408,0,0,0,.62-.085l-.5-1.315.5,1.312c.312-.117,3.128-1.183,5.9-2.284,6.624-2.633,8.2-3.258,7.755-6.041-.26-1.636-.835-2.092-15.424-10.392-3.263-1.857-5.481-1.236-6.124.544a3.892,3.892,0,0,0,1.348,4.02c1.5.848,2.24,1.264,3.773,2.127,2.407,1.354,4.725,2.659,6.621,3.752-1.832.732-3.98,1.565-6.087,2.359a1.405,1.405,0,0,0-.82,1.811l1.24,3.288a1.4,1.4,0,0,0,.736.785A1.406,1.406,0,0,0-243.959,331.706Z" transform="translate(-165.151 -160.318)"/>
    <path id="Path_673" data-name="Path 673" d="M-238.108,368.008c.064.006.189.008.254,0a3.482,3.482,0,0,0,2.33-1.518c.955-1.118,2.99-4.142,2.809-5.844-.17-1.6-1.984-2.616-3.6-2.758a4.878,4.878,0,0,0-.571-.017,6.526,6.526,0,0,0-1.5-4.9,14.8,14.8,0,0,0-2.472-2.3,1.4,1.4,0,0,0-.662-.233,1.4,1.4,0,0,0-.364.015c-.064.011-1.572.275-2.753.561a3.576,3.576,0,0,0-2.446,3.168c-.283,5.485.41,6.6.638,6.968C-245.643,362.449-240.121,367.832-238.108,368.008Z" transform="translate(-167.905 -185.395)"/>
    <path id="Path_674" data-name="Path 674" d="M-239.048,354.434s-1.513.263-2.663.542a2.213,2.213,0,0,0-1.374,1.874c-.1,1.923-.151,5.22.429,6.154.812,1.306,6.214,6.256,7.33,6.2s3.948-4.533,3.812-5.811-3.372-2.395-4.708-.536c0,0,1.575-3.908-.617-6.353A13.611,13.611,0,0,0-239.048,354.434Z" transform="translate(-170.505 -187.99)" fill="#fff7db"/>
    <path id="Path_675" data-name="Path 675" d="M-243.06,369.614c.944,1.233,2.857,1.645,4.826,1.342a3.262,3.262,0,0,0,2.593-2.445,8.778,8.778,0,0,1-.524,3.478c1.336-1.859,4.573-.742,4.708.536s-2.7,5.754-3.812,5.811-6.518-4.893-7.33-6.2A6.354,6.354,0,0,1-243.06,369.614Z" transform="translate(-170.561 -197.121)" fill="#ffebbf"/>
    <path id="Path_676" data-name="Path 676" d="M-245.04,316.539c13.432,7.619,15.006,8.649,15.163,9.635.266,1.671-.687,2.05-6.886,4.514-2.9,1.154-5.853,2.267-5.883,2.278l-1.239-3.288c3.134-1.181,6.525-2.512,8.755-3.446-2.478-1.5-6.758-3.887-10.962-6.255h0a.97.97,0,0,0-1.513.761l-.8.187s-2.112-1.143-.64-3.943C-248.834,316.581-247.766,314.993-245.04,316.539Z" transform="translate(-166.341 -162.979)" fill="#fff7db"/>
    <path id="Path_677" data-name="Path 677" d="M-326.735,249.529a9.1,9.1,0,0,0-6.812,3.34,10.7,10.7,0,0,0-7.75-3.138A10.673,10.673,0,0,0-351.746,260.6a10.673,10.673,0,0,0,10.869,10.448,10.544,10.544,0,0,0,7.587-3.4,9.232,9.232,0,0,0,6.975,3.113c5.3-.1,9.52-4.952,9.4-10.806S-321.434,249.424-326.735,249.529Z" transform="translate(-100.06 -119.941)" fill="#ffebbf"/>
    <g id="Group_1118" data-name="Group 1118" transform="translate(-451.808 131.215)">
      <g id="Group_1117" data-name="Group 1117">
        <path id="Path_678" data-name="Path 678" d="M-326.316,275.4a9.231,9.231,0,0,1-6.974-3.113,10.544,10.544,0,0,1-7.587,3.4,10.673,10.673,0,0,1-10.869-10.448A10.673,10.673,0,0,1-341.3,254.368a10.7,10.7,0,0,1,7.75,3.139,9.1,9.1,0,0,1,6.812-3.34c5.3-.1,9.709,4.572,9.824,10.426S-321.015,275.294-326.316,275.4Z" transform="translate(351.748 -254.165)"/>
        <path id="Path_679" data-name="Path 679" d="M-324.769,257.166a8.283,8.283,0,0,0-6.762,3.961,9.583,9.583,0,0,0-7.8-3.759,9.607,9.607,0,0,0-9.415,9.794,9.607,9.607,0,0,0,9.794,9.415,9.581,9.581,0,0,0,7.616-4.023,8.29,8.29,0,0,0,6.945,3.736c4.728-.093,8.476-4.45,8.372-9.731S-320.041,257.073-324.769,257.166Z" transform="translate(349.802 -256.111)" fill="#fff"/>
        <path id="Path_680" data-name="Path 680" d="M-339.186,259.876a10.7,10.7,0,0,1,7.75,3.138,9.1,9.1,0,0,1,6.812-3.34,9.564,9.564,0,0,1,8.659,5.6c-.655-4.661-4.3-8.2-8.638-8.112a8.283,8.283,0,0,0-6.762,3.961,9.583,9.583,0,0,0-7.8-3.759,9.6,9.6,0,0,0-9.328,8.378A10.666,10.666,0,0,1-339.186,259.876Z" transform="translate(349.637 -256.111)" fill="#fff"/>
      </g>
      <path id="Path_681" data-name="Path 681" d="M-311.215,290.126a1.653,1.653,0,0,1-1.62,1.686,1.653,1.653,0,0,1-1.685-1.62,1.653,1.653,0,0,1,1.62-1.686A1.653,1.653,0,0,1-311.215,290.126Z" transform="translate(327.601 -276.44)"/>
      <path id="Path_682" data-name="Path 682" d="M-270.332,291.314a1.653,1.653,0,0,1-1.62,1.686,1.653,1.653,0,0,1-1.686-1.62,1.654,1.654,0,0,1,1.62-1.686A1.653,1.653,0,0,1-270.332,291.314Z" transform="translate(301.082 -277.21)"/>
    </g>
    <path id="Path_683" data-name="Path 683" d="M-349.255,435.615a8.478,8.478,0,0,1,3.134,4.638s.513-2.9-2.673-6.029Z" transform="translate(-101.677 -239.746)"/>
    <path id="Path_684" data-name="Path 684" d="M-264.795,435.613a8.476,8.476,0,0,0-3.134,4.637s-.513-2.9,2.673-6.029Z" transform="translate(-154.41 -239.745)"/>
    <g id="Group_1119" data-name="Group 1119" transform="translate(-492.537 161.897)">
      <path id="Path_685" data-name="Path 685" d="M-416,389.7h-36.016a2.4,2.4,0,0,0-2.4,2.4l2.068,17.5a2.406,2.406,0,0,0,2.4,2.4h31.88a2.406,2.406,0,0,0,2.4-2.4l2.068-17.5A2.4,2.4,0,0,0-416,389.7Zm-30.169,18.248a1.568,1.568,0,0,1-1.566-1.568l-1.127-10.136a1.566,1.566,0,0,1,1.567-1.566,1.565,1.565,0,0,1,1.566,1.566l1.129,10.136A1.569,1.569,0,0,1-446.167,407.944Zm5.83,0a1.568,1.568,0,0,1-1.568-1.568l-.564-10.136a1.566,1.566,0,0,1,1.567-1.566,1.566,1.566,0,0,1,1.567,1.566l.564,10.136A1.568,1.568,0,0,1-440.337,407.944Zm7.393-1.568a1.568,1.568,0,0,1-1.567,1.568,1.568,1.568,0,0,1-1.566-1.568V396.24a1.566,1.566,0,0,1,1.566-1.566,1.567,1.567,0,0,1,1.567,1.566Zm5.828,0a1.568,1.568,0,0,1-1.567,1.568,1.567,1.567,0,0,1-1.566-1.568l.562-10.136a1.566,1.566,0,0,1,1.567-1.566,1.567,1.567,0,0,1,1.568,1.566Zm5.826,0a1.567,1.567,0,0,1-1.567,1.568,1.567,1.567,0,0,1-1.566-1.568l1.129-10.136a1.566,1.566,0,0,1,1.566-1.566,1.565,1.565,0,0,1,1.566,1.566Z" transform="translate(459.07 -372.759)" fill="#a31e5e"/>
      <path id="Path_686" data-name="Path 686" d="M-436.734,414.675l-1.127-10.137c0-.007,0-.014,0-.021a1.564,1.564,0,0,0-.754,1.336l1.127,10.136a1.568,1.568,0,0,0,1.566,1.568,1.569,1.569,0,0,0,1.568-1.547,1.553,1.553,0,0,1-.814.229A1.566,1.566,0,0,1-436.734,414.675Z" transform="translate(448.823 -382.373)" fill="#7c154b"/>
      <path id="Path_687" data-name="Path 687" d="M-419.107,414.675l-.563-10.137c0-.007,0-.014,0-.021a1.564,1.564,0,0,0-.754,1.336l.564,10.136a1.568,1.568,0,0,0,1.568,1.568,1.567,1.567,0,0,0,1.566-1.547,1.555,1.555,0,0,1-.814.229A1.566,1.566,0,0,1-419.107,414.675Z" transform="translate(437.023 -382.373)" fill="#7c154b"/>
      <path id="Path_688" data-name="Path 688" d="M-400.663,434.994a1.566,1.566,0,0,1-1.566-1.566v1.315a1.568,1.568,0,0,0,1.566,1.568,1.568,1.568,0,0,0,1.567-1.568v-1.315A1.567,1.567,0,0,1-400.663,434.994Z" transform="translate(425.222 -401.126)" fill="#7c154b"/>
      <path id="Path_689" data-name="Path 689" d="M-382.7,404.517c0,.007,0,.014,0,.021l-.563,10.137a1.566,1.566,0,0,1-1.567,1.566,1.545,1.545,0,0,1-.813-.229,1.567,1.567,0,0,0,1.566,1.547,1.568,1.568,0,0,0,1.567-1.568l.564-10.136A1.56,1.56,0,0,0-382.7,404.517Z" transform="translate(414.461 -382.373)" fill="#7c154b"/>
      <path id="Path_690" data-name="Path 690" d="M-365.545,404.517c0,.007,0,.014,0,.021l-1.128,10.137a1.567,1.567,0,0,1-1.567,1.566,1.548,1.548,0,0,1-.815-.229,1.566,1.566,0,0,0,1.565,1.547,1.567,1.567,0,0,0,1.567-1.568l1.128-10.136A1.563,1.563,0,0,0-365.545,404.517Z" transform="translate(403.703 -382.373)" fill="#7c154b"/>
      <path id="Path_691" data-name="Path 691" d="M-420.121,378.987h-44.972a2.782,2.782,0,0,0-2.578,2.948,2.783,2.783,0,0,0,2.578,2.95h44.972a2.784,2.784,0,0,0,2.581-2.95A2.783,2.783,0,0,0-420.121,378.987Z" transform="translate(467.671 -365.813)" fill="#7c154b"/>
      <path id="Path_692" data-name="Path 692" d="M-463.619,382.388h44.972a1.876,1.876,0,0,1,1.717,1.587,2.579,2.579,0,0,0,.064-.565,1.993,1.993,0,0,0-1.781-2.149h-44.972a2,2,0,0,0-1.781,2.149,2.538,2.538,0,0,0,.065.565A1.875,1.875,0,0,1-463.619,382.388Z" transform="translate(466.198 -367.288)" fill="#a31e5e"/>
      <path id="Path_693" data-name="Path 693" d="M-438.411,381.627a3.253,3.253,0,0,1-3.252,3.253,3.254,3.254,0,0,1-3.253-3.253,3.253,3.253,0,0,1,3.253-3.252A3.252,3.252,0,0,1-438.411,381.627Z" transform="translate(452.911 -365.416)" fill="#a31e5e"/>
      <path id="Path_694" data-name="Path 694" d="M-438.507,389.21a1.543,1.543,0,0,1-1.532-1.351,1.673,1.673,0,0,0-.012.19,1.543,1.543,0,0,0,1.543,1.543,1.543,1.543,0,0,0,1.543-1.543,1.525,1.525,0,0,0-.012-.19A1.543,1.543,0,0,1-438.507,389.21Z" transform="translate(449.755 -371.568)" fill="#7c154b"/>
      <path id="Path_695" data-name="Path 695" d="M-440.921,379.8a2.852,2.852,0,0,1,2.818,2.422,2.9,2.9,0,0,0,.033-.431,2.851,2.851,0,0,0-2.852-2.85,2.851,2.851,0,0,0-2.851,2.85,2.865,2.865,0,0,0,.032.431A2.853,2.853,0,0,1-440.921,379.8Z" transform="translate(452.169 -365.781)" fill="#7c154b"/>
      <path id="Path_696" data-name="Path 696" d="M-436.811,385.111a1.366,1.366,0,0,1-1.366,1.365,1.365,1.365,0,0,1-1.365-1.365,1.365,1.365,0,0,1,1.365-1.366A1.365,1.365,0,0,1-436.811,385.111Z" transform="translate(449.424 -368.899)" fill="#5e636c"/>
      <path id="Path_697" data-name="Path 697" d="M-359.758,381.627a3.253,3.253,0,0,1-3.254,3.253,3.254,3.254,0,0,1-3.253-3.253,3.253,3.253,0,0,1,3.253-3.252A3.252,3.252,0,0,1-359.758,381.627Z" transform="translate(401.894 -365.416)" fill="#a31e5e"/>
      <path id="Path_698" data-name="Path 698" d="M-359.851,389.21a1.542,1.542,0,0,1-1.53-1.351,1.459,1.459,0,0,0-.011.19,1.542,1.542,0,0,0,1.541,1.543,1.542,1.542,0,0,0,1.543-1.543,1.668,1.668,0,0,0-.011-.19A1.545,1.545,0,0,1-359.851,389.21Z" transform="translate(398.733 -371.568)" fill="#7c154b"/>
      <path id="Path_699" data-name="Path 699" d="M-362.268,379.8a2.853,2.853,0,0,1,2.819,2.422,2.865,2.865,0,0,0,.032-.431,2.851,2.851,0,0,0-2.851-2.85,2.85,2.85,0,0,0-2.851,2.85,3,3,0,0,0,.031.431A2.855,2.855,0,0,1-362.268,379.8Z" transform="translate(401.15 -365.781)" fill="#7c154b"/>
      <path id="Path_700" data-name="Path 700" d="M-358.159,385.111a1.366,1.366,0,0,1-1.366,1.365,1.366,1.366,0,0,1-1.365-1.365,1.366,1.366,0,0,1,1.365-1.366A1.366,1.366,0,0,1-358.159,385.111Z" transform="translate(398.408 -368.899)" fill="#5e636c"/>
      <path id="Path_701" data-name="Path 701" d="M-427.951,355.771l-7.846,10.611a.824.824,0,0,1-1.139.2h0a.825.825,0,0,1-.394-1.089l7.765-10.5" transform="translate(448.047 -350.25)" fill="#a7adbd"/>
      <path id="Path_702" data-name="Path 702" d="M-429.057,355.169l-7.768,10.512c-.017.028.018.159.169.245a.271.271,0,0,0,.3.024l7.8-10.542" transform="translate(447.665 -350.363)" fill="#d4dae8"/>
      <path id="Path_703" data-name="Path 703" d="M-391.11,342.274a.652.652,0,0,0,.085.347l10.759,15a.823.823,0,0,0,1.138.2h0a.827.827,0,0,0,.395-1.089l-10.759-15a.645.645,0,0,0-.252-.245" transform="translate(418.009 -341.491)" fill="#a7adbd"/>
      <path id="Path_704" data-name="Path 704" d="M-387.717,342.333l10.757,15c.015.029-.018.159-.168.245s-.281.051-.3.024l-10.756-15c-.016-.027.019-.158.167-.245S-387.733,342.305-387.717,342.333Z" transform="translate(416.112 -342.017)" fill="#d4dae8"/>
    </g>
    <path id="Path_705" data-name="Path 705" d="M-334.592,331.563a3.878,3.878,0,0,0,3.25,3.9S-336.342,336.191-334.592,331.563Z" transform="translate(-110.947 -173.154)"/>
    <path id="Path_706" data-name="Path 706" d="M-271.278,326.183a3.878,3.878,0,0,0-1.63-4.8S-267.98,322.495-271.278,326.183Z" transform="translate(-151.2 -166.548)"/>
    <path id="Path_707" data-name="Path 707" d="M-295.774,334.593s-3.457-.693-4.614.069-.9,1.757.267,1.259A15.712,15.712,0,0,1-295.774,334.593Z" transform="translate(-132.89 -174.933)"/>
    <path id="Path_708" data-name="Path 708" d="M-307.31,325.969s-14.39-.584-20.143,2.369c-.761.431-2.949,2.327.437.816s10.6-2.938,20.129-2.426Z" transform="translate(-114.911 -169.495)"/>
  </g>
</svg>
