<svg xmlns="http://www.w3.org/2000/svg" width="142.548" height="159.642" viewBox="0 0 142.548 159.642"><defs><style>.a{fill:#161615;}.b{fill:#ffe6b1;}.c{fill:#fff6d3;}.d{fill:#f7c88d;}.e{fill:#fffef2;}.f{fill:#fff;}.g{fill:#cfcecf;}</style></defs><g transform="translate(-102.017 -167.035)"><path class="a" d="M341.476,536.255a2.644,2.644,0,0,1-2.635-2.626c-.107-18.106-2.517-24.979-2.619-25.263a1.36,1.36,0,0,1,.836-1.75l3.2-1.08a1.35,1.35,0,0,1,1.713.848c.019.056,1.792,5.842,2.42,19.08a17.322,17.322,0,0,1,9.9-2.615c2.507,0,10.7.754,10.812,10.454a2.924,2.924,0,0,1-2.929,2.952Z" transform="translate(-155.004 -224.061)"/><path class="b" d="M356.939,526.85c-6.139,0-9.431,2.185-11.144,4.12-.47-14.656-2.361-21.208-2.461-21.5l-3.2,1.08c.024.072,2.591,6.845,2.7,25.725a1.287,1.287,0,0,0,1.283,1.282h20.7a1.572,1.572,0,0,0,1.577-1.584C366.363,532.99,365.279,526.85,356.939,526.85Z" transform="translate(-157.647 -226.711)"/><path class="c" d="M371.35,568.126c4.041,0,4.753-2.053,4.8-3.345-1.255-2.1-3.64-3.872-8.119-3.872-6.139,0-9.431,2.186-11.144,4.12C356.889,568.566,365.455,568.126,371.35,568.126Z" transform="translate(-168.741 -260.769)"/><path class="d" d="M343.334,509.466l-3.2,1.08a33.862,33.862,0,0,1,1.328,5.871c1.109-.191,2.148-.407,3.1-.643A46.644,46.644,0,0,0,343.334,509.466Z" transform="translate(-157.647 -226.711)"/><path class="a" d="M214.5,536.255a2.924,2.924,0,0,1-2.929-2.951c.115-9.7,8.305-10.454,10.812-10.454a17.32,17.32,0,0,1,9.9,2.615c.628-13.254,2.4-19.026,2.42-19.082a1.35,1.35,0,0,1,1.712-.847l3.2,1.08a1.352,1.352,0,0,1,.849,1.712c-.116.321-2.525,7.175-2.633,25.3a2.645,2.645,0,0,1-2.635,2.626Z" transform="translate(-72.534 -224.061)"/><path class="b" d="M225.037,526.85c6.139,0,9.431,2.185,11.144,4.12.47-14.656,2.36-21.208,2.461-21.5l3.2,1.08c-.024.072-2.591,6.845-2.7,25.725a1.287,1.287,0,0,1-1.283,1.282h-20.7a1.572,1.572,0,0,1-1.577-1.584C215.612,532.99,216.7,526.85,225.037,526.85Z" transform="translate(-75.183 -226.711)"/><path class="c" d="M227.665,560.909c-4.479,0-6.864,1.771-8.119,3.872.049,1.292.761,3.345,4.8,3.345,5.895,0,14.461.439,14.461-3.1C237.1,563.094,233.8,560.909,227.665,560.909Z" transform="translate(-77.811 -260.769)"/><path class="d" d="M280.007,516.194c.963.205,2,.39,3.115.544a35.022,35.022,0,0,1,1.379-6.192l-3.2-1.08A48.149,48.149,0,0,0,280.007,516.194Z" transform="translate(-117.84 -226.711)"/><path class="a" d="M245.279,394.081c-10.537.208-16.849-2.289-19.674-3.795a3.852,3.852,0,0,1-2.037-3.318l-.526-26.655c-.164-8.3-12.689-24.649-12.816-24.813a1.352,1.352,0,0,1,.429-2.015l12.861-6.943a1.351,1.351,0,0,1,1.8.5c3.174,5.324,6.865,11.076,8.859,13.655a105.209,105.209,0,0,0-.917-11.918,1.352,1.352,0,0,1,1.315-1.52l21.829-.43a1.352,1.352,0,0,1,1.377,1.417,80.166,80.166,0,0,0,.051,10.018c1.735-2.051,4.944-6.54,7.612-10.541a1.352,1.352,0,0,1,1.63-.5l12.1,4.877a1.352,1.352,0,0,1,.6,2.036c-.12.169-11.991,17-11.827,25.3l.526,26.655a3.849,3.849,0,0,1-1.9,3.395c-2.763,1.617-8.972,4.36-19.509,4.568Z" transform="translate(-71.455 -105.496)"/><path class="c" d="M259.08,330.825l-21.829.431s1.866,14.817.289,14.651-10.733-15.527-10.733-15.527l-12.861,6.943s12.921,16.762,13.1,25.612l.526,26.655a2.491,2.491,0,0,0,1.322,2.151c2.482,1.324,8.605,3.842,19.011,3.636l1.775-.035c10.406-.205,16.425-2.963,18.853-4.383a2.491,2.491,0,0,0,1.236-2.2l-.526-26.655c-.175-8.85,12.076-26.109,12.076-26.109l-12.1-4.876s-7.643,11.463-9.205,12.084S259.08,330.825,259.08,330.825Z" transform="translate(-74.104 -108.145)"/><path class="d" d="M364.772,332.562s-3.718,5.576-6.5,9.16a7.2,7.2,0,0,0,.933.067h.144a7.218,7.218,0,0,0,2.158-.375,7.963,7.963,0,0,0,5.209,1.96l.159,0a7.97,7.97,0,0,0,2.77-.555,5.91,5.91,0,0,0,2.876,1.339c2.36-3.918,4.345-6.716,4.345-6.716Z" transform="translate(-169.658 -109.589)"/><path class="d" d="M229.428,339.72a8.2,8.2,0,0,0,4.178,1.429c-3.1-4.565-6.8-10.769-6.8-10.769l-12.861,6.943s3.01,3.908,6.144,8.943a10.057,10.057,0,0,0,1.35-2.46A10.816,10.816,0,0,0,229.428,339.72Z" transform="translate(-74.104 -108.145)"/><path class="d" d="M298.44,344.055l.19,0a8.906,8.906,0,0,0,6.136-2.536,93.668,93.668,0,0,1-.028-9.819l-21.829.431s.835,6.632.915,10.973a9.223,9.223,0,0,0,5.7,1.965l.187,0a9.18,9.18,0,0,0,5.192-1.706A9.172,9.172,0,0,0,298.44,344.055Z" transform="translate(-119.762 -109.017)"/><path class="b" d="M295.908,477.2l-.137-6.934h0c-1.97,5.923-7.187,9.015-21.109,9.015-15.826,0-20.254-11.77-21.229-15.314l.277,14.065a2.491,2.491,0,0,0,1.322,2.151c2.481,1.324,8.605,3.842,19.011,3.636l1.775-.035c10.406-.205,16.425-2.963,18.853-4.383A2.491,2.491,0,0,0,295.908,477.2Z" transform="translate(-100.247 -196.591)"/><path class="a" d="M233.843,353l5.781,8.837c.356.545,1.224.019.865-.529l-5.781-8.837C234.352,351.928,233.485,352.454,233.843,353Z" transform="translate(-87.22 -122.62)"/><path class="a" d="M316.007,344.73q.086,4.327.171,8.653a.507.507,0,0,0,1.014-.02q-.086-4.326-.171-8.653A.507.507,0,0,0,316.007,344.73Z" transform="translate(-141.674 -117.315)"/><path class="a" d="M376.739,341.909l-5.538,8.47c-.358.547.53,1.038.885.494l5.538-8.471C377.982,341.856,377.094,341.366,376.739,341.909Z" transform="translate(-178.161 -115.621)"/><path class="a" d="M197.812,231.135a11.124,11.124,0,0,1-4.494-.8,6.248,6.248,0,0,1-2.633.628,5.526,5.526,0,0,1-5.7-4.12,5.386,5.386,0,0,1-5.134-5.535,6.306,6.306,0,0,1,.028-.73,6.646,6.646,0,0,1,.332-13.008,6.744,6.744,0,0,1,6.744-6.51,7.127,7.127,0,0,1,1.161.071,7,7,0,0,1,6.713-6.092,6.874,6.874,0,0,1,5.651,2.827,4.178,4.178,0,0,1,2.271-.734,4.344,4.344,0,0,1,3.032,1.208c.087-.007.173-.011.259-.013a4.887,4.887,0,0,1,2.236.487,5.8,5.8,0,0,1,3.174-1.006,5.669,5.669,0,0,1,5.847,5.469,5.441,5.441,0,0,1-.073,1.008,5.973,5.973,0,0,1,3.709,5.372,5.9,5.9,0,0,1-1.966,4.519,4.21,4.21,0,0,1,.331,1.553,4.772,4.772,0,0,1-2.218,3.971,5.293,5.293,0,0,1,.371,1.846,4.949,4.949,0,0,1-4.708,5.161h-.105a5.727,5.727,0,0,1-5.245,3.511,5.981,5.981,0,0,1-3.543-1.062A9.7,9.7,0,0,1,197.812,231.135Z" transform="translate(-48.158 -18.542)"/><path class="b" d="M222.233,212.336a4.607,4.607,0,0,0-4.073-4.462,4.091,4.091,0,0,0,.438-1.918,4.312,4.312,0,0,0-4.469-4.144,4.452,4.452,0,0,0-3.107,1.333,3.322,3.322,0,0,0-2.3-.813,3.691,3.691,0,0,0-.784.108,3.137,3.137,0,0,0-2.508-1.3,3.213,3.213,0,0,0-2.607,1.63,5.587,5.587,0,0,0-5.315-3.723,5.679,5.679,0,0,0-5.458,5.889,5.976,5.976,0,0,0,.047.631,5.755,5.755,0,0,0-2.463-.5,5.374,5.374,0,0,0-5.418,5.32,4.944,4.944,0,0,0,.16,1.14,4.932,4.932,0,0,0-.611-.029,5.266,5.266,0,0,0,.208,10.526c.082,0,.162-.012.243-.018a4.8,4.8,0,0,0-.361,1.93,4.03,4.03,0,0,0,3.8,4.209,3.269,3.269,0,0,0,1.361-.33,3.143,3.143,0,0,0-.111.873c.04,2.023,2.013,3.625,4.407,3.578a4.842,4.842,0,0,0,2.6-.8,9.266,9.266,0,0,0,4.523.97c2.815-.055,5.178-1.133,5.954-2.57a4.467,4.467,0,0,0,3.628,1.658,4.183,4.183,0,0,0,4.245-3.686,3.229,3.229,0,0,0,1.105.174,3.593,3.593,0,0,0,3.384-3.783,3.862,3.862,0,0,0-.89-2.409,3.8,3.8,0,0,0,2.737-3.408,3.077,3.077,0,0,0-.786-1.95A4.584,4.584,0,0,0,222.233,212.336Z" transform="translate(-50.806 -21.19)"/><path class="e" d="M183.921,216.634a6.743,6.743,0,0,1,6.744-6.509,7.1,7.1,0,0,1,1.161.071,7,7,0,0,1,6.713-6.093,6.875,6.875,0,0,1,5.651,2.828,4.173,4.173,0,0,1,2.271-.734,4.343,4.343,0,0,1,3.032,1.208c.087-.007.173-.011.259-.013a4.883,4.883,0,0,1,2.236.487,5.851,5.851,0,0,1,6.254-.2,4.065,4.065,0,0,0,.355-1.727,4.311,4.311,0,0,0-4.469-4.144,4.452,4.452,0,0,0-3.107,1.333,3.322,3.322,0,0,0-2.3-.813,3.691,3.691,0,0,0-.784.108,3.137,3.137,0,0,0-2.508-1.3,3.213,3.213,0,0,0-2.607,1.63,5.587,5.587,0,0,0-5.315-3.723,5.679,5.679,0,0,0-5.458,5.889,5.976,5.976,0,0,0,.047.631,5.754,5.754,0,0,0-2.463-.5,5.374,5.374,0,0,0-5.418,5.32,4.944,4.944,0,0,0,.16,1.14,4.932,4.932,0,0,0-.611-.029,5.188,5.188,0,0,0-5,5.364,5.349,5.349,0,0,0,.777,2.677A6.447,6.447,0,0,1,183.921,216.634Z" transform="translate(-50.806 -21.19)"/><circle class="a" cx="1.863" cy="1.863" r="1.863" transform="matrix(0.265, -0.964, 0.964, 0.265, 143.324, 184.389)"/><path class="e" d="M229.888,212.185a1.187,1.187,0,1,1-1.21-1.163A1.187,1.187,0,0,1,229.888,212.185Z" transform="translate(-83.087 -29.122)"/><path class="a" d="M275.784,218.822a1.553,1.553,0,1,1,1.522-1.584A1.555,1.555,0,0,1,275.784,218.822Z" transform="translate(-113.996 -32.23)"/><path class="e" d="M277.954,218.576a.877.877,0,1,1-.894-.86A.877.877,0,0,1,277.954,218.576Z" transform="translate(-115.319 -33.554)"/><path class="a" d="M241.769,246.276a2.482,2.482,0,1,1,2.433-2.53A2.485,2.485,0,0,1,241.769,246.276Z" transform="translate(-90.848 -49.176)"/><circle class="b" cx="1.806" cy="1.806" r="1.806" transform="matrix(0.112, -0.994, 0.994, 0.112, 148.874, 196.211)"/><circle class="a" cx="1.398" cy="1.398" r="1.398" transform="translate(154.425 193.326) rotate(-50.235)"/><path class="b" d="M262.232,242.871a.722.722,0,1,1-.737-.708A.723.723,0,0,1,262.232,242.871Z" transform="translate(-105.116 -49.739)"/><path class="a" d="M306.225,230.018a5.223,5.223,0,0,1-3.835-1.548,5.979,5.979,0,0,1-1.923.352,5.747,5.747,0,0,1-2.434-.469,5.114,5.114,0,0,1-2.884.935,4.85,4.85,0,0,1-4.356-2.355,5.354,5.354,0,0,1-.723.063,4.976,4.976,0,0,1-5.215-4.7c0-.106,0-.211.005-.316a5.009,5.009,0,0,1-3.9-4.867,5.179,5.179,0,0,1,1.3-3.557,3.622,3.622,0,0,1,1.419-4.692,7.26,7.26,0,0,1,3.07-7.116,8.027,8.027,0,0,1,4.567-1.614,6.444,6.444,0,0,1,2.406.4,7.385,7.385,0,0,1,6.429-3.844,7.632,7.632,0,0,1,4.493,1.351,5.09,5.09,0,0,1,4.091-2.243,5.388,5.388,0,0,1,5.243,4.465,4.512,4.512,0,0,1,1.16-.178,3.833,3.833,0,0,1,2.652.956,3.76,3.76,0,0,1,1.185,2.218,5.823,5.823,0,0,1,1.191-.147,6.261,6.261,0,0,1,6.238,6.263,6.457,6.457,0,0,1-3.075,5.661,4.946,4.946,0,0,1-1.038,4.075,3.79,3.79,0,0,1,.316,1.444c.046,2.34-2.089,4.3-4.8,4.445a5.6,5.6,0,0,1-4.94,2.9,6.153,6.153,0,0,1-2.279-.382A5.1,5.1,0,0,1,306.225,230.018Z" transform="translate(-118.472 -19.042)"/><path class="b" d="M327.7,212.049a4.9,4.9,0,0,0-4.86-4.938,4.585,4.585,0,0,0-2.953,1.165,2.905,2.905,0,0,0-.352-3.58,3.1,3.1,0,0,0-4.28.618,4.791,4.791,0,0,0,.144-1.262,4.136,4.136,0,0,0-3.989-4.255,3.979,3.979,0,0,0-3.672,3.134,6.122,6.122,0,0,0-4.912-2.243,5.932,5.932,0,0,0-5.749,4.437c-1.73-1.425-4.6-1.335-6.873.352-2.425,1.8-3.308,4.779-2.128,6.885a2.266,2.266,0,0,0-1.308,4.046,3.737,3.737,0,0,0-1.8,3.323,3.584,3.584,0,0,0,3.525,3.632,3.229,3.229,0,0,0,.8-.121,3.214,3.214,0,0,0-.433,1.671,3.621,3.621,0,0,0,3.836,3.378,4.031,4.031,0,0,0,1.617-.372,3.232,3.232,0,0,0,3.463,2.665,3.639,3.639,0,0,0,2.734-1.249,4.089,4.089,0,0,0,2.584.783,4.247,4.247,0,0,0,2.354-.719,3.731,3.731,0,0,0,3.4,1.914,3.592,3.592,0,0,0,3.622-3.132,4.555,4.555,0,0,0,3.017,1.015,4.018,4.018,0,0,0,4.026-2.933,4.665,4.665,0,0,0,.7.041c2.069-.041,3.719-1.418,3.687-3.075a2.6,2.6,0,0,0-.713-1.707,3.441,3.441,0,0,0,1.523-2.982,3.642,3.642,0,0,0-.4-1.58A5,5,0,0,0,327.7,212.049Z" transform="translate(-121.12 -21.69)"/><path class="e" d="M293.668,211.144a8.03,8.03,0,0,1,4.567-1.614,6.445,6.445,0,0,1,2.406.4,7.384,7.384,0,0,1,6.429-3.845,7.631,7.631,0,0,1,4.493,1.351,5.09,5.09,0,0,1,4.091-2.243,5.389,5.389,0,0,1,5.243,4.465,4.507,4.507,0,0,1,1.159-.178,3.83,3.83,0,0,1,2.652.956,3.762,3.762,0,0,1,1.186,2.218,5.838,5.838,0,0,1,1.19-.147,6.017,6.017,0,0,1,4.9,2.419,5.179,5.179,0,0,0,.807-2.88,4.9,4.9,0,0,0-4.86-4.938,4.585,4.585,0,0,0-2.953,1.165,2.9,2.9,0,0,0-.352-3.58,3.1,3.1,0,0,0-4.28.618,4.789,4.789,0,0,0,.144-1.262A4.136,4.136,0,0,0,316.5,199.8a3.979,3.979,0,0,0-3.672,3.134,6.122,6.122,0,0,0-4.912-2.243,5.932,5.932,0,0,0-5.749,4.437c-1.73-1.425-4.6-1.335-6.873.352-2.211,1.641-3.134,4.26-2.387,6.306A8.515,8.515,0,0,1,293.668,211.144Z" transform="translate(-126.212 -21.69)"/><circle class="a" cx="2.581" cy="2.581" r="2.581" transform="matrix(0.18, -0.984, 0.984, 0.18, 168.99, 190.829)"/><path class="b" d="M307.255,227.534a1.9,1.9,0,1,1-1.942-1.867A1.9,1.9,0,0,1,307.255,227.534Z" transform="translate(-133.358 -38.818)"/><path class="a" d="M336.993,212.561a1.728,1.728,0,1,1,1.694-1.762A1.73,1.73,0,0,1,336.993,212.561Z" transform="translate(-154.401 -27.853)"/><path class="e" d="M339.335,212.136a1.053,1.053,0,1,1-1.073-1.032A1.053,1.053,0,0,1,339.335,212.136Z" transform="translate(-155.726 -29.177)"/><path class="a" d="M370.77,236.157a2.28,2.28,0,1,1,2.235-2.325A2.283,2.283,0,0,1,370.77,236.157Z" transform="translate(-176.392 -42.745)"/><path class="b" d="M373.654,235.17a1.6,1.6,0,1,1-1.635-1.572A1.6,1.6,0,0,1,373.654,235.17Z" transform="translate(-177.717 -44.069)"/><path class="a" d="M137.79,290.3a6.981,6.981,0,0,1-6.408-4.033,6.32,6.32,0,0,1-2.578.6,5.711,5.711,0,0,1-6.037-5.33,5.021,5.021,0,0,1,.029-.638,5.2,5.2,0,0,1-2.642-4.131,7.572,7.572,0,0,1-5.337-7.246,7.652,7.652,0,0,1,4.543-7.269,6.344,6.344,0,0,1,4.957-8.049,8.038,8.038,0,0,1,10.925-9.7,4.462,4.462,0,0,1,3.876-2.839,3.9,3.9,0,0,1,2.254.674,5.728,5.728,0,0,1,4.869-3.1,5.584,5.584,0,0,1,4.5,2.218c.14-.015.28-.023.419-.025a5.456,5.456,0,0,1,5.527,4.881,6.641,6.641,0,0,1,6.051,6.428,6.462,6.462,0,0,1-.816,3.279,7.518,7.518,0,0,1,3.166,5.891,7.25,7.25,0,0,1-1.405,4.4,3.773,3.773,0,0,1,.813,2.244,4.048,4.048,0,0,1-1.54,3.163,6.636,6.636,0,0,1,.694,2.819c.081,4.1-3.648,7.51-8.312,7.6a9.578,9.578,0,0,1-1.043-.036,7.27,7.27,0,0,1-6.731,6.094,6.535,6.535,0,0,1-4-1.282A6.982,6.982,0,0,1,137.79,290.3Z" transform="translate(-8.474 -47.793)"/><path class="c" d="M164.485,269.029a6.088,6.088,0,0,0,1.9-4.458,6.468,6.468,0,0,0-3.755-5.535,5.158,5.158,0,0,0,1.4-3.634,5.3,5.3,0,0,0-5.453-5.132,5.517,5.517,0,0,0-.652.056,4.085,4.085,0,0,0-5.159-4.741,4.408,4.408,0,0,0-3.859-2.359,4.764,4.764,0,0,0-4.358,4.4,3.165,3.165,0,0,0-2.765-1.974c-1.546.03-2.809,1.536-3.1,3.525a6.68,6.68,0,0,0-9.607,9.019,4.992,4.992,0,0,0-5.191,7.6,6.339,6.339,0,0,0,.294,12.478,4.067,4.067,0,0,0-.055.747,3.82,3.82,0,0,0,2.9,3.691,3.7,3.7,0,0,0-.265,1.439,4.357,4.357,0,0,0,4.658,4.005,4.822,4.822,0,0,0,3.319-1.372,5.6,5.6,0,0,0,11.012.421,5.453,5.453,0,0,0,4.435,2.268c3.052-.06,5.485-2.854,5.583-6.311a8.2,8.2,0,0,0,2.19.253c3.925-.077,7.053-2.864,6.987-6.223a5.436,5.436,0,0,0-1.186-3.25,3.157,3.157,0,0,0,2.033-2.732A2.794,2.794,0,0,0,164.485,269.029Z" transform="translate(-11.122 -50.442)"/><path class="e" d="M152.25,252.609a7.955,7.955,0,0,1,3.4.679,4.462,4.462,0,0,1,3.876-2.839,3.9,3.9,0,0,1,2.254.674,5.729,5.729,0,0,1,4.869-3.1,5.584,5.584,0,0,1,4.5,2.218c.14-.015.28-.023.419-.026a5.456,5.456,0,0,1,5.527,4.881,6.726,6.726,0,0,1,4.491,2.343,5.1,5.1,0,0,0,.38-2.033,5.3,5.3,0,0,0-5.453-5.132,5.517,5.517,0,0,0-.652.056,4.085,4.085,0,0,0-5.159-4.741,4.408,4.408,0,0,0-3.859-2.359,4.764,4.764,0,0,0-4.358,4.4,3.165,3.165,0,0,0-2.765-1.974c-1.546.03-2.809,1.536-3.1,3.525a6.656,6.656,0,0,0-10.6,6.595A8.022,8.022,0,0,1,152.25,252.609Z" transform="translate(-29.048 -50.442)"/><path class="b" d="M165.792,297.349a8.731,8.731,0,0,1-7.213,3.819,9.671,9.671,0,0,1-1.043-.036,7.271,7.271,0,0,1-6.731,6.094,6.537,6.537,0,0,1-4-1.282,6.871,6.871,0,0,1-12.191-.63,6.327,6.327,0,0,1-2.578.6,5.711,5.711,0,0,1-6.037-5.33,4.958,4.958,0,0,1,.029-.638,5.174,5.174,0,0,1-2.555-3.545,4.974,4.974,0,0,0,.419,4.6,6.339,6.339,0,0,0,.294,12.478,4.066,4.066,0,0,0-.055.747,3.82,3.82,0,0,0,2.9,3.691,3.7,3.7,0,0,0-.265,1.439,4.357,4.357,0,0,0,4.658,4.005,4.822,4.822,0,0,0,3.319-1.372,5.6,5.6,0,0,0,11.012.421,5.453,5.453,0,0,0,4.435,2.268c3.052-.06,5.485-2.854,5.583-6.311a8.205,8.205,0,0,0,2.19.253c3.925-.077,7.053-2.864,6.987-6.223a5.436,5.436,0,0,0-1.186-3.25,3.157,3.157,0,0,0,2.033-2.732,2.794,2.794,0,0,0-1.313-2.182,6.088,6.088,0,0,0,1.9-4.458A5.734,5.734,0,0,0,165.792,297.349Z" transform="translate(-11.122 -85.646)"/><path class="a" d="M149.795,296.811a2.483,2.483,0,1,1,2.434-2.532A2.486,2.486,0,0,1,149.795,296.811Z" transform="translate(-29.955 -82.632)"/><path class="c" d="M152.876,295.617a1.807,1.807,0,1,1-1.842-1.771A1.807,1.807,0,0,1,152.876,295.617Z" transform="translate(-31.279 -83.956)"/><path class="a" d="M165.074,281.066a1.7,1.7,0,1,1,1.666-1.734A1.7,1.7,0,0,1,165.074,281.066Z" transform="translate(-40.599 -73.245)"/><path class="c" d="M167.388,280.67a1.024,1.024,0,1,1-1.044-1A1.024,1.024,0,0,1,167.388,280.67Z" transform="translate(-41.924 -74.569)"/><circle class="a" cx="2.905" cy="2.905" r="2.905" transform="translate(121.885 231.869) rotate(-34.698)"/><path class="b" d="M170.631,356.651a2.229,2.229,0,1,1-2.273-2.185A2.229,2.229,0,0,1,170.631,356.651Z" transform="translate(-42.475 -124.091)"/><path class="a" d="M183.846,337.393a1.881,1.881,0,1,1,1.843-1.918A1.883,1.883,0,0,1,183.846,337.393Z" transform="translate(-52.906 -110.298)"/><path class="b" d="M186.338,336.813a1.2,1.2,0,1,1-1.228-1.181A1.2,1.2,0,0,1,186.338,336.813Z" transform="translate(-54.23 -111.622)"/><path class="a" d="M369.082,275.871a4.411,4.411,0,0,1-3.8-2.079,3.586,3.586,0,0,1-1.341.287,3.986,3.986,0,0,1-3.364-1.905,5.971,5.971,0,0,1-3.257,1.048,6.059,6.059,0,0,1-6.14-5.963,6.213,6.213,0,0,1,.025-.7,4.255,4.255,0,0,1-3.121-3.974,3.925,3.925,0,0,1,.02-.485,5.319,5.319,0,0,1-2.465-6.9,6.726,6.726,0,0,1-1.737-4.383,6.576,6.576,0,0,1,3.159-5.807,4.74,4.74,0,0,1-.169-1.165,4.958,4.958,0,0,1,4.916-4.988c.156,0,.313,0,.468.013a4.8,4.8,0,0,1,4.014-2.241,5.049,5.049,0,0,1,.616.025,6.116,6.116,0,0,1,6-4.765,6.528,6.528,0,0,1,3.814,1.123,6.856,6.856,0,0,1,12.848.189,7.587,7.587,0,0,1,2.448-.454,7.247,7.247,0,0,1,7.5,6.948,6.3,6.3,0,0,1,4.28,10.483,7.109,7.109,0,0,1,1.441,4.193,6.761,6.761,0,0,1-4.641,6.707v.05a3.72,3.72,0,0,1-.652,2.185,5.64,5.64,0,0,1,.663,2.546,6.288,6.288,0,0,1-6.374,6.169,6.939,6.939,0,0,1-2.244-.326,6.256,6.256,0,0,1-5.836,3.777,6.847,6.847,0,0,1-3.9-1.094A4.349,4.349,0,0,1,369.082,275.871Z" transform="translate(-160.143 -40.792)"/><path class="c" d="M394.486,252.747a4.941,4.941,0,0,0-2.787-9.056,4.857,4.857,0,0,0-1.057.14,5.542,5.542,0,0,0,.167-1.439,5.887,5.887,0,0,0-6.119-5.64,6.163,6.163,0,0,0-3.335,1.048,5.643,5.643,0,0,0-11.261.675,4.888,4.888,0,0,0-4.514-2.58,4.645,4.645,0,0,0-4.767,4.5,4.005,4.005,0,0,0,.092.758,3.6,3.6,0,0,0-1.939-.516,3.263,3.263,0,0,0-3.216,2.424,3.764,3.764,0,0,0-1.267-.2,3.6,3.6,0,0,0-3.591,3.61,3.432,3.432,0,0,0,.608,1.879,5.135,5.135,0,0,0-3.6,5.093,5.273,5.273,0,0,0,2.1,4.147,3.963,3.963,0,0,0,2.4,6.3,2.756,2.756,0,0,0-.318,1.318,2.943,2.943,0,0,0,3.059,2.82,3.112,3.112,0,0,0,.389-.045,4.768,4.768,0,0,0-.352,1.9,4.7,4.7,0,0,0,4.762,4.638,4.644,4.644,0,0,0,3.777-2.086c.286,1.7,1.462,2.971,2.844,2.943a2.539,2.539,0,0,0,1.962-1.1,3.275,3.275,0,0,0,3.175,2.887,3.183,3.183,0,0,0,2.884-2.222,5.171,5.171,0,0,0,4.186,1.836c2.7-.053,4.859-1.92,4.815-4.169,0-.1-.013-.191-.023-.286a5.431,5.431,0,0,0,3.288,1,4.932,4.932,0,0,0,5.049-4.791,4.394,4.394,0,0,0-1.025-2.715,2.46,2.46,0,0,0,1.014-2.016,2.391,2.391,0,0,0-.358-1.193c.043,0,.085.005.128,0a5.242,5.242,0,0,0,4.869-5.569A5.657,5.657,0,0,0,394.486,252.747Z" transform="translate(-162.792 -43.44)"/><path class="e" d="M349.334,253.99a4.751,4.751,0,0,1-.169-1.165,4.958,4.958,0,0,1,4.916-4.988q.235,0,.468.013a4.8,4.8,0,0,1,4.014-2.241,5.049,5.049,0,0,1,.616.025,6.115,6.115,0,0,1,6-4.764,6.526,6.526,0,0,1,3.815,1.123,6.856,6.856,0,0,1,12.847.189,7.587,7.587,0,0,1,2.448-.454,7.247,7.247,0,0,1,7.5,6.949,6.223,6.223,0,0,1,4.37,2.188,4.933,4.933,0,0,0-4.454-7.174,4.864,4.864,0,0,0-1.057.14,5.526,5.526,0,0,0,.168-1.439,5.887,5.887,0,0,0-6.119-5.64,6.163,6.163,0,0,0-3.335,1.048,5.643,5.643,0,0,0-11.261.675,4.888,4.888,0,0,0-4.514-2.58,4.645,4.645,0,0,0-4.767,4.5,4.005,4.005,0,0,0,.092.758,3.6,3.6,0,0,0-1.939-.516,3.263,3.263,0,0,0-3.216,2.424,3.764,3.764,0,0,0-1.267-.2,3.6,3.6,0,0,0-3.591,3.61,3.432,3.432,0,0,0,.608,1.879,5.135,5.135,0,0,0-3.6,5.093,5.42,5.42,0,0,0,.241,1.476A6.229,6.229,0,0,1,349.334,253.99Z" transform="translate(-162.792 -43.44)"/><path class="b" d="M396.529,275.627a6.921,6.921,0,0,1-3.593-.166,6.256,6.256,0,0,1-5.835,3.777,6.847,6.847,0,0,1-3.9-1.093,4.349,4.349,0,0,1-3.168,1.48,4.411,4.411,0,0,1-3.8-2.079,3.594,3.594,0,0,1-1.341.287,3.988,3.988,0,0,1-3.364-1.905,5.972,5.972,0,0,1-3.257,1.048,6.059,6.059,0,0,1-6.14-5.963,6.2,6.2,0,0,1,.025-.7,4.254,4.254,0,0,1-3.121-3.974,3.932,3.932,0,0,1,.02-.485,5.323,5.323,0,0,1-2.919-4.643,5.254,5.254,0,0,1,.026-.618,2.768,2.768,0,0,0-.411.962,3.762,3.762,0,0,0-1.267-.2,3.6,3.6,0,0,0-3.591,3.609,3.432,3.432,0,0,0,.608,1.879,5.135,5.135,0,0,0-3.6,5.093,5.273,5.273,0,0,0,2.1,4.147,3.963,3.963,0,0,0,2.4,6.3,2.756,2.756,0,0,0-.318,1.318,2.943,2.943,0,0,0,3.059,2.82,3.112,3.112,0,0,0,.389-.045,4.769,4.769,0,0,0-.352,1.9,4.7,4.7,0,0,0,4.762,4.638,4.644,4.644,0,0,0,3.777-2.086c.286,1.7,1.462,2.971,2.844,2.943a2.539,2.539,0,0,0,1.962-1.1,3.276,3.276,0,0,0,3.175,2.887,3.183,3.183,0,0,0,2.884-2.222,5.171,5.171,0,0,0,4.186,1.836c2.7-.053,4.859-1.92,4.815-4.169,0-.1-.013-.191-.023-.287a5.428,5.428,0,0,0,3.288,1,4.932,4.932,0,0,0,5.049-4.791,4.394,4.394,0,0,0-1.025-2.715,2.46,2.46,0,0,0,1.014-2.016,2.391,2.391,0,0,0-.358-1.193c.043,0,.085.005.128,0A5.233,5.233,0,0,0,396.529,275.627Z" transform="translate(-162.792 -61.944)"/><path class="a" d="M421.182,249.424a2.28,2.28,0,1,1,2.235-2.325A2.283,2.283,0,0,1,421.182,249.424Z" transform="translate(-209.768 -51.527)"/><circle class="c" cx="1.604" cy="1.604" r="1.604" transform="translate(209.105 195.762) rotate(-48.672)"/><path class="a" d="M457.517,310a2.116,2.116,0,1,1,2.074-2.157A2.118,2.118,0,0,1,457.517,310Z" transform="translate(-233.935 -91.848)"/><path class="c" d="M460.24,309.178a1.44,1.44,0,1,1-1.468-1.411A1.44,1.44,0,0,1,460.24,309.178Z" transform="translate(-235.259 -93.173)"/><path class="a" d="M400.026,299.917a3.227,3.227,0,1,1,3.162-3.29A3.23,3.23,0,0,1,400.026,299.917Z" transform="translate(-195.122 -83.704)"/><path class="b" d="M403.836,297.965a2.551,2.551,0,1,1-2.6-2.5A2.551,2.551,0,0,1,403.836,297.965Z" transform="translate(-196.446 -85.028)"/><circle class="a" cx="1.787" cy="1.787" r="1.787" transform="matrix(0.688, -0.726, 0.726, 0.688, 209.066, 211.152)"/><path class="c" d="M425.2,295.184a1.111,1.111,0,1,1-1.132-1.089A1.11,1.11,0,0,1,425.2,295.184Z" transform="translate(-212.495 -84.122)"/><path class="a" d="M432.624,344.185a1.416,1.416,0,1,1,1.388-1.444A1.418,1.418,0,0,1,432.624,344.185Z" transform="translate(-217.926 -115.409)"/><path class="b" d="M434.662,344.078a.741.741,0,1,1-.755-.726A.741.741,0,0,1,434.662,344.078Z" transform="translate(-219.251 -116.733)"/><path class="a" d="M456.571,261.887a1.416,1.416,0,1,1,1.388-1.444A1.418,1.418,0,0,1,456.571,261.887Z" transform="translate(-233.781 -60.922)"/><path class="c" d="M458.609,261.78a.741.741,0,1,1-.755-.726A.741.741,0,0,1,458.609,261.78Z" transform="translate(-235.105 -62.246)"/><path class="a" d="M258.95,281.869a7.063,7.063,0,0,1-6.578-4.033,6.164,6.164,0,0,1-3.235,1.006,6.436,6.436,0,0,1-6.064-4.194,7.253,7.253,0,0,1-4.634-6.788,7.782,7.782,0,0,1,.565-3.093,5.109,5.109,0,0,1-2.136-3.973,4.98,4.98,0,0,1,1.486-3.609,7.913,7.913,0,0,1-1.838-4.895,8.343,8.343,0,0,1,8.345-8.316,8.71,8.71,0,0,1,2.175.229,7.3,7.3,0,0,1,6.514-5.186,6.705,6.705,0,0,1,5.171,2.372,8.2,8.2,0,0,1,6.313-3.019,8.3,8.3,0,0,1,5.735,2.052,5.99,5.99,0,0,1,9.81.927,7.291,7.291,0,0,1,1.627-.216A7.116,7.116,0,0,1,289.54,248a6.932,6.932,0,0,1-1.92,4.9,7.312,7.312,0,0,1-1.035,11.739,5.778,5.778,0,0,1,1.081,3.256,5.858,5.858,0,0,1-4.088,5.7,4.932,4.932,0,0,1-4.878,4.422,5.033,5.033,0,0,1-2.9-.838,9,9,0,0,1-2.25.516,6.591,6.591,0,0,1-5.672,3.159,7.014,7.014,0,0,1-3.964-1.095A7.13,7.13,0,0,1,258.95,281.869Z" transform="translate(-89.046 -47.172)"/><path class="c" d="M291.4,260.927a5.908,5.908,0,0,0-3.422-5.267,5.633,5.633,0,0,0,2.862-4.981,5.756,5.756,0,0,0-5.954-5.549,5.969,5.969,0,0,0-2.407.56,4.645,4.645,0,0,0-8.865-.282,6.646,6.646,0,0,0-5.9-3.04,6.392,6.392,0,0,0-6.209,4.351,5.824,5.824,0,0,0-5.275-3.7c-2.789.055-5.072,2.436-5.592,5.567a7.428,7.428,0,0,0-3.1-.61,6.984,6.984,0,0,0-7.02,6.938,6.637,6.637,0,0,0,2.535,5.05,3.942,3.942,0,0,0-2.183,3.454,4.005,4.005,0,0,0,2.569,3.486,6.36,6.36,0,0,0-1,3.581,5.771,5.771,0,0,0,4.339,5.705,5.144,5.144,0,0,0,4.981,3.952,4.96,4.96,0,0,0,4.019-2.267,5.558,5.558,0,0,0,5.794,5.294,5.745,5.745,0,0,0,4.79-2.677,5.442,5.442,0,0,0,4.134,1.667,5.076,5.076,0,0,0,4.8-3.1,7.343,7.343,0,0,0,3.335-.8,3.7,3.7,0,0,0,2.685,1.066,3.552,3.552,0,0,0,3.569-3.53,3.3,3.3,0,0,0-.078-.615,4.578,4.578,0,0,0,4.15-4.595,4.5,4.5,0,0,0-2.193-3.755A5.87,5.87,0,0,0,291.4,260.927Z" transform="translate(-91.694 -49.82)"/><path class="e" d="M247.567,251.954a8.724,8.724,0,0,1,2.175.229A7.3,7.3,0,0,1,256.256,247a6.706,6.706,0,0,1,5.172,2.372,8.2,8.2,0,0,1,6.313-3.02,8.306,8.306,0,0,1,5.734,2.052,5.991,5.991,0,0,1,9.81.927,7.29,7.29,0,0,1,7.44,2.5,5.46,5.46,0,0,0,.11-1.146,5.757,5.757,0,0,0-5.954-5.549,5.966,5.966,0,0,0-2.406.56,4.645,4.645,0,0,0-8.865-.282,6.646,6.646,0,0,0-5.9-3.04,6.392,6.392,0,0,0-6.209,4.351,5.824,5.824,0,0,0-5.275-3.7c-2.789.055-5.072,2.436-5.592,5.567a7.428,7.428,0,0,0-3.1-.61,6.984,6.984,0,0,0-7.02,6.938,6.5,6.5,0,0,0,.066.787A8.61,8.61,0,0,1,247.567,251.954Z" transform="translate(-91.694 -49.82)"/><path class="b" d="M290.614,317.641a4.932,4.932,0,0,1-4.878,4.422,5.033,5.033,0,0,1-2.9-.838,9,9,0,0,1-2.25.516,6.59,6.59,0,0,1-5.672,3.159,7.013,7.013,0,0,1-3.964-1.095,7.183,7.183,0,0,1-11.538-1.927,6.17,6.17,0,0,1-3.236,1.006,6.437,6.437,0,0,1-6.064-4.194,6.638,6.638,0,0,1-3.131-2.344,6.368,6.368,0,0,0-.773,3.168,5.771,5.771,0,0,0,4.339,5.705,5.144,5.144,0,0,0,4.981,3.952,4.96,4.96,0,0,0,4.019-2.267,5.558,5.558,0,0,0,5.794,5.294,5.745,5.745,0,0,0,4.79-2.678,5.441,5.441,0,0,0,4.134,1.667,5.076,5.076,0,0,0,4.8-3.1,7.343,7.343,0,0,0,3.335-.8,3.7,3.7,0,0,0,2.685,1.066,3.551,3.551,0,0,0,3.568-3.53,3.272,3.272,0,0,0-.077-.615,4.579,4.579,0,0,0,4.15-4.595,4.415,4.415,0,0,0-.87-2.539A6.028,6.028,0,0,1,290.614,317.641Z" transform="translate(-95.461 -98.854)"/><path class="a" d="M235.535,226.744a3.581,3.581,0,0,0-1.909-.92,3.594,3.594,0,0,0-3.234,1.2,4.231,4.231,0,0,0-4.915-1.763,4.038,4.038,0,0,0-2.327,2.012,3.648,3.648,0,0,0-.186,2.919,3.953,3.953,0,0,1,.67-2.637,3.637,3.637,0,0,1,2.093-1.462,3.511,3.511,0,0,1,4.138,2.05l.406.989.486-.95a2.926,2.926,0,0,1,1.134-1.233,3.049,3.049,0,0,1,1.669-.431,3.317,3.317,0,0,1,1.714.548,3.543,3.543,0,0,1,1.238,1.446A3.21,3.21,0,0,0,235.535,226.744Z" transform="translate(-79.928 -38.407)"/><path class="a" d="M368.214,222.02a1.88,1.88,0,0,1,.863-1.425,2.367,2.367,0,0,1,3.258.613,1.885,1.885,0,0,1,.281,1.644,2.767,2.767,0,0,0-1.974-1.62,2.536,2.536,0,0,0-1.207.066A3.264,3.264,0,0,0,368.214,222.02Z" transform="translate(-176.239 -35.193)"/><path class="a" d="M336.843,223.805a2.946,2.946,0,0,0-1.633-.654,3.029,3.029,0,0,0-1.773.43,3.07,3.07,0,0,0-.781.686,3.426,3.426,0,0,0-1.5-1.105,3.484,3.484,0,0,0-2.632.062,3.332,3.332,0,0,0-1.775,1.842,2.953,2.953,0,0,0,.088,2.407,3.25,3.25,0,0,1,.417-2.165,2.928,2.928,0,0,1,1.587-1.274,2.835,2.835,0,0,1,1.957.054,2.806,2.806,0,0,1,1.432,1.3l.487.95.405-.983a2.321,2.321,0,0,1,.8-1.044,2.431,2.431,0,0,1,1.283-.464,2.77,2.77,0,0,1,2.532,1.361A2.594,2.594,0,0,0,336.843,223.805Z" transform="translate(-148.642 -37.009)"/><path class="a" d="M190.75,276.076a3.3,3.3,0,0,1,.44-2.584,3.846,3.846,0,0,1,4.962-1.392,3.309,3.309,0,0,1,1.714,1.986,4.762,4.762,0,0,0-2.012-1.254,3.978,3.978,0,0,0-2.178-.014,3.932,3.932,0,0,0-1.853,1.144A4.694,4.694,0,0,0,190.75,276.076Z" transform="translate(-58.682 -69.292)"/><path class="a" d="M158.338,308.56a5.263,5.263,0,0,0-3.5,1.536,5.46,5.46,0,0,0-1.606,3.53,5.684,5.684,0,0,0,.669,3.083,2.929,2.929,0,0,0-.949.394,2.827,2.827,0,0,0-1.173,3.068,2.563,2.563,0,0,0,.883,1.35,2.62,2.62,0,0,1-.277-2.812,2.341,2.341,0,0,1,.954-.966,2.009,2.009,0,0,1,1.277-.213l.953.168-.545-.851a5.135,5.135,0,0,1-.789-3.149,4.9,4.9,0,0,1,1.27-2.961,4.986,4.986,0,0,1,2.89-1.555,5.663,5.663,0,0,1,3.415.568A5.049,5.049,0,0,0,158.338,308.56Z" transform="translate(-32.887 -93.695)"/><path class="a" d="M205.985,296.772a3.579,3.579,0,0,0-2.115-.131,3.6,3.6,0,0,0-2.54,2.336,4.231,4.231,0,0,0-5.217.224,4.038,4.038,0,0,0-1.394,2.742,3.65,3.65,0,0,0,.93,2.773,3.953,3.953,0,0,1-.375-2.7,3.637,3.637,0,0,1,1.386-2.144,3.512,3.512,0,0,1,4.606.335l.749.763.092-1.063a2.925,2.925,0,0,1,.584-1.57,3.041,3.041,0,0,1,1.382-1.029,3.318,3.318,0,0,1,1.794-.14,3.543,3.543,0,0,1,1.693.871A3.213,3.213,0,0,0,205.985,296.772Z" transform="translate(-61.365 -85.742)"/><path class="a" d="M206.9,334.669a4.1,4.1,0,0,0-2.343.064,3.963,3.963,0,0,0-1.968,1.4,3.654,3.654,0,0,0-.662,1.556,3.822,3.822,0,0,0-2.114-.208,3.894,3.894,0,0,0-2.41,1.508,4.411,4.411,0,0,0-.649,1.252,4.488,4.488,0,0,0-.187,1.371,3.871,3.871,0,0,0,.924,2.463,4.166,4.166,0,0,1,.554-4.563,3.207,3.207,0,0,1,1.932-1.068,3.042,3.042,0,0,1,2.116.448l.839.518-.071-.964a2.956,2.956,0,0,1,.483-1.783,3.516,3.516,0,0,1,1.48-1.232,3.988,3.988,0,0,1,3.965.454A3.6,3.6,0,0,0,206.9,334.669Z" transform="translate(-62.598 -110.891)"/><path class="a" d="M457.571,288.368a1.881,1.881,0,0,1,.5-1.589,2.367,2.367,0,0,1,3.31-.18,1.884,1.884,0,0,1,.664,1.53,2.766,2.766,0,0,0-2.3-1.1,2.535,2.535,0,0,0-1.157.351A3.259,3.259,0,0,0,457.571,288.368Z" transform="translate(-235.381 -78.768)"/><path class="a" d="M417.538,267.132a2.515,2.515,0,0,0-2.812-.834,2.663,2.663,0,0,0-.743.413,5.05,5.05,0,0,0-1.8-2.073,4.848,4.848,0,0,0-3.375-.751,4.658,4.658,0,0,0-2.959,1.673,4.423,4.423,0,0,0-.981,3.1,5.037,5.037,0,0,1,1.443-2.678,4.384,4.384,0,0,1,2.609-1.176,4.284,4.284,0,0,1,2.718.676,4.5,4.5,0,0,1,1.778,2.195l.356.948.435-.861a1.732,1.732,0,0,1,.8-.771,2.035,2.035,0,0,1,1.162-.166A2.305,2.305,0,0,1,418,268.483,2.252,2.252,0,0,0,417.538,267.132Z" transform="translate(-200.496 -64.086)"/><path class="a" d="M413.17,321.159a4.2,4.2,0,0,0-2.313-.867,4.2,4.2,0,0,0-3.691,1.81,4.926,4.926,0,0,0-5.919-1.679,4.729,4.729,0,0,0-2.527,2.539,4.331,4.331,0,0,0,.015,3.43,4.634,4.634,0,0,1,.491-3.188,4.328,4.328,0,0,1,2.338-1.971,4.209,4.209,0,0,1,5.172,2.049l.483.956.409-.988a3.518,3.518,0,0,1,1.254-1.592,3.649,3.649,0,0,1,1.966-.664,3.939,3.939,0,0,1,2.089.513,4.155,4.155,0,0,1,1.574,1.613A3.82,3.82,0,0,0,413.17,321.159Z" transform="translate(-196.206 -101.296)"/><path class="a" d="M343.838,286.983a2.827,2.827,0,0,0-2.856-1.623,2.931,2.931,0,0,0-.983.3,5.682,5.682,0,0,0-1.443-2.806,5.459,5.459,0,0,0-3.483-1.705,5.263,5.263,0,0,0-3.676,1.037,5.049,5.049,0,0,0-1.925,3.127,5.664,5.664,0,0,1,2.275-2.608,4.986,4.986,0,0,1,3.22-.636,4.9,4.9,0,0,1,2.862,1.479,5.133,5.133,0,0,1,1.392,2.932l.12,1,.629-.735a2.01,2.01,0,0,1,1.121-.647,2.341,2.341,0,0,1,1.35.139,2.621,2.621,0,0,1,1.573,2.347A2.564,2.564,0,0,0,343.838,286.983Z" transform="translate(-150.589 -75.533)"/><path class="a" d="M298.966,319.742a4.049,4.049,0,0,0-2.186-.947,4.044,4.044,0,0,0-3.627,1.549,4.754,4.754,0,0,0-5.615-1.87,4.557,4.557,0,0,0-2.549,2.332,4.16,4.16,0,0,0-.135,3.3,4.464,4.464,0,0,1,.629-3.034,4.155,4.155,0,0,1,2.333-1.774,4.035,4.035,0,0,1,4.85,2.2l.437.977.456-.967a3.373,3.373,0,0,1,1.27-1.465,3.5,3.5,0,0,1,1.91-.547,3.784,3.784,0,0,1,1.979.582,4,4,0,0,1,1.442,1.616A3.667,3.667,0,0,0,298.966,319.742Z" transform="translate(-120.864 -100.069)"/><path class="a" d="M278.628,277.04a4.106,4.106,0,0,0-2.182-.856,3.964,3.964,0,0,0-2.359.523,3.657,3.657,0,0,0-1.217,1.174A3.827,3.827,0,0,0,271,276.865a3.893,3.893,0,0,0-2.808.448,4.417,4.417,0,0,0-1.086.9,4.489,4.489,0,0,0-.707,1.19,3.869,3.869,0,0,0-.11,2.628,4.167,4.167,0,0,1,2.29-3.985,3.207,3.207,0,0,1,2.2-.229,3.043,3.043,0,0,1,1.774,1.239l.571.8.311-.914a2.957,2.957,0,0,1,1.14-1.453,3.519,3.519,0,0,1,1.843-.557,3.989,3.989,0,0,1,3.474,1.965A3.6,3.6,0,0,0,278.628,277.04Z" transform="translate(-108.642 -72.252)"/><path class="a" d="M319.73,263.51a2.525,2.525,0,1,1,2.474-2.574A2.527,2.527,0,0,1,319.73,263.51Z" transform="translate(-142.436 -60.53)"/><path class="c" d="M322.853,262.274a1.849,1.849,0,1,1-1.885-1.812A1.849,1.849,0,0,1,322.853,262.274Z" transform="translate(-143.759 -61.854)"/><path class="a" d="M344.216,265.74a1.928,1.928,0,1,1,1.889-1.966A1.931,1.931,0,0,1,344.216,265.74Z" transform="translate(-159.049 -62.796)"/><path class="c" d="M346.755,265.111a1.252,1.252,0,1,1-1.277-1.227A1.252,1.252,0,0,1,346.755,265.111Z" transform="translate(-160.373 -64.12)"/><path class="a" d="M352.76,327.454a2.525,2.525,0,1,1,2.474-2.574A2.527,2.527,0,0,1,352.76,327.454Z" transform="translate(-164.303 -102.865)"/><path class="c" d="M355.883,326.218A1.849,1.849,0,1,1,354,324.406,1.848,1.848,0,0,1,355.883,326.218Z" transform="translate(-165.627 -104.189)"/><path class="a" d="M289.228,299.18a2.047,2.047,0,1,1,2.007-2.087A2.05,2.05,0,0,1,289.228,299.18Z" transform="translate(-122.563 -84.778)"/><path class="c" d="M291.884,298.43a1.371,1.371,0,1,1-1.4-1.344A1.372,1.372,0,0,1,291.884,298.43Z" transform="translate(-123.888 -86.101)"/><path class="a" d="M267.005,308.665a3.24,3.24,0,1,1,3.176-3.3A3.244,3.244,0,0,1,267.005,308.665Z" transform="translate(-107.045 -89.478)"/><path class="c" d="M270.829,306.7a2.564,2.564,0,1,1-2.614-2.513A2.564,2.564,0,0,1,270.829,306.7Z" transform="translate(-108.369 -90.802)"/><path class="a" d="M378.169,454.914l-.039-1.939s1.368.774,1.42,3.45Z" transform="translate(-182.804 -189.31)"/><path class="a" d="M271.567,565.984a8.154,8.154,0,0,1,3.014,4.461s.493-2.788-2.571-5.8Z" transform="translate(-112.252 -263.243)"/><path class="a" d="M355.907,565.982a8.154,8.154,0,0,0-3.014,4.461s-.493-2.788,2.571-5.8Z" transform="translate(-166.076 -263.242)"/><path class="f" d="M281.747,394.759a.824.824,0,0,0-.813.335c-.853,1.19-3.039,4.675-2.634,8.659.5,4.928,6.766,5.433,10.09.389s-.98-9.631-.98-9.631A14.874,14.874,0,0,1,281.747,394.759Z" transform="translate(-116.677 -150.603)"/><path class="a" d="M280.949,393.866l.073-.4a1.226,1.226,0,0,0-1.217.5,16.19,16.19,0,0,0-1.678,2.986,12.6,12.6,0,0,0-1.081,4.924,10.189,10.189,0,0,0,.052,1.028,4.771,4.771,0,0,0,1.555,3.2,4.687,4.687,0,0,0,3.113,1.105,8.271,8.271,0,0,0,7.494-7.979,8.708,8.708,0,0,0-1.172-4.213,9.246,9.246,0,0,0-1.178-1.676l-.166-.177-.235.062-.015,0a15.363,15.363,0,0,1-3.465.406,11.305,11.305,0,0,1-2.007-.169l-.073.4-.072.4a12.146,12.146,0,0,0,2.152.182,16,16,0,0,0,3.688-.436l-.1-.393-.3.278,0,0a8.713,8.713,0,0,1,1.108,1.6,7.858,7.858,0,0,1,1.018,3.725,7.465,7.465,0,0,1-6.681,7.165,3.871,3.871,0,0,1-2.578-.905,3.953,3.953,0,0,1-1.28-2.671,9.309,9.309,0,0,1-.048-.945,11.791,11.791,0,0,1,1.016-4.6,15.349,15.349,0,0,1,1.592-2.832.421.421,0,0,1,.34-.178l.07.006Z" transform="translate(-115.88 -149.711)"/><path class="f" d="M324.459,395.11a.063.063,0,0,0-.112.029c-.157,1.019-1.006,7.406,1.845,10.682,3.1,3.567,6.019,3.031,7.328.185,1.1-2.394.047-6.6-.316-7.879a.457.457,0,0,0-.486-.331C331.408,397.925,326.969,398.112,324.459,395.11Z" transform="translate(-147.038 -150.984)"/><path class="a" d="M323.662,394.313l.312-.261a.47.47,0,0,0-.827.228,23.092,23.092,0,0,0-.244,3.361,17.4,17.4,0,0,0,.416,3.94,8.627,8.627,0,0,0,1.769,3.71,9.236,9.236,0,0,0,2.315,1.986,4.489,4.489,0,0,0,2.224.653,3.337,3.337,0,0,0,2.039-.691,4.807,4.807,0,0,0,1.427-1.86,7.1,7.1,0,0,0,.526-2.92,20.793,20.793,0,0,0-.82-5.241.865.865,0,0,0-.832-.629l-.087,0h0c-.275.027-.7.057-1.213.057a11.543,11.543,0,0,1-3.361-.474,6.916,6.916,0,0,1-3.333-2.125l-.312.261-.312.261a7.733,7.733,0,0,0,3.717,2.38,12.351,12.351,0,0,0,3.6.51c.547,0,1-.032,1.293-.061h.006l.049.038a20.037,20.037,0,0,1,.789,5.018,6.316,6.316,0,0,1-.451,2.58,4.009,4.009,0,0,1-1.178,1.551,2.519,2.519,0,0,1-1.549.527,3.678,3.678,0,0,1-1.819-.545,8.426,8.426,0,0,1-2.106-1.814,7.823,7.823,0,0,1-1.591-3.362,16.6,16.6,0,0,1-.394-3.753,22.275,22.275,0,0,1,.235-3.238l-.341-.052.217.268a.348.348,0,0,0,.124-.215l-.341-.052.217.268-.216-.267v.344a.344.344,0,0,0,.216-.077l-.216-.267v0l-.262.219a.344.344,0,0,0,.262.122v-.341l-.262.219Z" transform="translate(-146.24 -150.187)"/><path class="a" d="M297.445,402.866a1.616,1.616,0,1,1-1.8-1.409A1.616,1.616,0,0,1,297.445,402.866Z" transform="translate(-127.253 -155.194)"/><path class="a" d="M332.036,406.384a1.616,1.616,0,1,1-1.8-1.409A1.616,1.616,0,0,1,332.036,406.384Z" transform="translate(-150.155 -157.523)"/><path class="a" d="M309.516,450.309a7.173,7.173,0,0,0-1.431-.518,13.2,13.2,0,0,0-1.482-.295,17.166,17.166,0,0,0-3-.119c-.25.014-.5.021-.75.04l-.748.08c-.5.038-.993.14-1.488.205-.494.088-.983.2-1.475.3l-1.463.363-.012,0a.5.5,0,0,1-.277-.953,28.413,28.413,0,0,1,3.726-.938,30.6,30.6,0,0,1,3.8-.461,23.906,23.906,0,0,1,3.826.11,16.192,16.192,0,0,1,3.7.887,24.753,24.753,0,0,0-3.738-.354c-.311-.01-.623.006-.934.008l-.466.008-.466.028c-.31.02-.62.028-.93.057l-.928.093c-1.236.133-2.461.344-3.679.587s-2.432.558-3.6.915l-.289-.95,1.518-.355c.514-.086,1.026-.176,1.541-.248a19.062,19.062,0,0,1,3.12-.161,14.24,14.24,0,0,1,3.093.414,10.644,10.644,0,0,1,1.477.5A6.026,6.026,0,0,1,309.516,450.309Z" transform="translate(-129.124 -186.004)"/><path class="a" d="M268.232,447.747a3.953,3.953,0,0,1-.262-1.312,5.21,5.21,0,0,1,.105-1.337,4.381,4.381,0,0,1,.487-1.269,2.644,2.644,0,0,1,.955-.965,11.557,11.557,0,0,0-.467,1.186c-.12.394-.212.791-.3,1.192C268.567,446.051,268.45,446.874,268.232,447.747Z" transform="translate(-109.867 -182.617)"/><path class="a" d="M265.04,443.16a2.2,2.2,0,0,1,.042-.76,2.529,2.529,0,0,1,.269-.723,1.881,1.881,0,0,1,.518-.594,1.2,1.2,0,0,1,.741-.23,2.369,2.369,0,0,0-.565.432,3.055,3.055,0,0,0-.395.561C265.417,442.251,265.25,442.7,265.04,443.16Z" transform="translate(-107.92 -181.284)"/><path class="a" d="M360.467,441.9a2.783,2.783,0,0,1,1.089.734,3.714,3.714,0,0,1,.722,1.122,4.194,4.194,0,0,1,.279,1.3,5.047,5.047,0,0,1-.013.659c-.033.217-.068.433-.117.644-.028-.219-.027-.433-.051-.645s-.041-.423-.086-.629a5.2,5.2,0,0,0-.137-.611,4.886,4.886,0,0,0-.194-.59,4.941,4.941,0,0,0-.608-1.078A4.57,4.57,0,0,0,360.467,441.9Z" transform="translate(-171.11 -181.975)"/><path class="a" d="M364.971,438.463a2.666,2.666,0,0,1,.793.448,3.349,3.349,0,0,1,.635.667,2.676,2.676,0,0,1,.4.841,1.963,1.963,0,0,1,.027.917,5.186,5.186,0,0,0-.28-.828,4.6,4.6,0,0,0-.424-.732A10.6,10.6,0,0,0,364.971,438.463Z" transform="translate(-174.092 -179.702)"/><path class="a" d="M268.607,442.376a2.563,2.563,0,0,0,.787.949,4.537,4.537,0,0,0,2.871.852,8.046,8.046,0,0,0,.811-.043,9.389,9.389,0,0,0,2.377-.59c1.139-.425,2.277-.983,3.832-1.506a28.276,28.276,0,0,1,6.328-1.3,17.891,17.891,0,0,1,1.819-.092,22.376,22.376,0,0,1,8.321,1.725,24.329,24.329,0,0,1,2.5,1.186c.294.161.52.3.673.388l.171.106.042.027.012.007.561-.844a22.137,22.137,0,0,0-3.579-1.81,23.381,23.381,0,0,0-8.7-1.8,18.967,18.967,0,0,0-1.921.1,28.093,28.093,0,0,0-8.033,1.9c-.907.362-1.666.7-2.379.969a8.374,8.374,0,0,1-2.126.532,6.987,6.987,0,0,1-.709.038,3.53,3.53,0,0,1-2.247-.637,1.933,1.933,0,0,1-.392-.4,1.246,1.246,0,0,1-.074-.117l-.012-.024h0l-.282.126.285-.119,0-.007-.282.126.285-.119-.936.39Z" transform="translate(-110.293 -180.474)"/><path class="d" d="M278.53,385.419s11.619.052,11.187-3.824c0,0,1.251,1.935.118,3.2S283.41,386.834,278.53,385.419Z" transform="translate(-116.862 -142.052)"/><path class="a" d="M357.768,444.6a3.353,3.353,0,0,1,.645,1.069,4.675,4.675,0,0,1,.295,1.209,3.861,3.861,0,0,1-.461,2.424c-.062-.423-.068-.812-.112-1.2s-.066-.767-.11-1.148C357.948,446.191,357.832,445.44,357.768,444.6Z" transform="translate(-169.323 -183.768)"/><path class="d" d="M333.975,391.455s-6.611,1.4-12.635-4.793a6.49,6.49,0,0,0,5.025,5C330.607,392.437,333.157,392.007,333.975,391.455Z" transform="translate(-145.205 -145.407)"/><path class="a" d="M277.3,385.1c1.3.227,2.585.4,3.864.508.641.032,1.277.093,1.913.075a15.913,15.913,0,0,0,1.891-.091c.311-.036.621-.081.93-.128.3-.068.618-.112.91-.2a4.854,4.854,0,0,0,1.62-.7,1.916,1.916,0,0,0,.8-1.413,3.873,3.873,0,0,0-.388-1.833,3.312,3.312,0,0,1,.886,1.821,2.316,2.316,0,0,1-.008.549,2.7,2.7,0,0,1-.044.278l-.091.27a2.107,2.107,0,0,1-.268.5,3.47,3.47,0,0,1-.369.425,3.561,3.561,0,0,1-.894.617,6.066,6.066,0,0,1-.974.4c-.329.119-.663.172-.995.261-.335.057-.672.111-1.009.152a14.12,14.12,0,0,1-4.017-.211A13.623,13.623,0,0,1,277.3,385.1Z" transform="translate(-116.049 -141.869)"/><path class="a" d="M321.28,386.266a7.672,7.672,0,0,0,2.05,3.261,8.435,8.435,0,0,0,.73.586c.128.088.266.161.4.243l.2.12c.069.036.142.065.212.1.143.062.281.13.421.2s.294.1.44.156a5.712,5.712,0,0,0,.906.244,18.5,18.5,0,0,0,3.857.406,11.4,11.4,0,0,0,3.874-.612,5.928,5.928,0,0,1-1.807.959,9.681,9.681,0,0,1-2.017.443,12.773,12.773,0,0,1-4.121-.206,6.687,6.687,0,0,1-1.022-.3c-.167-.065-.336-.12-.5-.193s-.321-.161-.478-.248c-.078-.043-.158-.083-.235-.13l-.222-.154c-.146-.1-.3-.2-.437-.313a5.812,5.812,0,0,1-.766-.748A5.916,5.916,0,0,1,321.28,386.266Z" transform="translate(-145.166 -145.145)"/><path class="a" d="M275.983,430.947a17.609,17.609,0,0,0,2.833-.74,18.137,18.137,0,0,0,2.663-1.176,13.832,13.832,0,0,0,2.38-1.624,11.82,11.82,0,0,0,1.923-2.091l.651.488a12.514,12.514,0,0,1-2.195,2.08,14.333,14.333,0,0,1-2.577,1.51,18.466,18.466,0,0,1-2.785,1.006A17.68,17.68,0,0,1,275.983,430.947Z" transform="translate(-115.176 -170.999)"/><path class="a" d="M340.758,432.31a16.647,16.647,0,0,1-2.2-.318,18.757,18.757,0,0,1-2.157-.586,16.232,16.232,0,0,1-2.084-.85,15.326,15.326,0,0,1-1.963-1.144l.5-.646a14.681,14.681,0,0,0,1.76,1.254,15.676,15.676,0,0,0,1.938,1.006,18.429,18.429,0,0,0,2.061.769A16.514,16.514,0,0,0,340.758,432.31Z" transform="translate(-152.497 -173.282)"/><path class="g" d="M138.985,205.463l6.1-1.548v144.47l-6.1-2.128Z" transform="translate(-24.475 -24.417)"/><path class="g" d="M316.356,167.035l5.8.338v159.3h-5.8Z" transform="translate(-141.906)"/><path class="g" d="M396.759,185.189l6.1,2.7V333.627l-6.1,2.366Z" transform="translate(-195.137 -12.019)"/><path class="g" d="M478.719,213.042l6.1,2.172V342.126l-6.1,2.353Z" transform="translate(-249.4 -30.46)"/><path class="a" d="M137.275,208.5V349.29h1.156V208.5" transform="translate(-23.342 -27.45)"/><path class="a" d="M156.486,348.385V203.915H155.33v144.47" transform="translate(-35.296 -24.417)"/><path class="a" d="M314.646,167.035V326.677H315.8V167.035" transform="translate(-140.774)"/><path class="a" d="M332.976,327.339v-159.3H331.82v159.3" transform="translate(-152.144 -0.662)"/><path class="a" d="M395.048,185.189v150.8H396.2v-150.8" transform="translate(-194.005 -12.019)"/><path class="a" d="M414.26,338.924V193.189H413.1V338.924" transform="translate(-205.959 -17.316)"/><path class="g" d="M222.919,178.216l6.1-2.028V332.737h-6.1Z" transform="translate(-80.045 -6.06)"/><path class="a" d="M221.209,182.189V336.71h1.156V182.189" transform="translate(-78.912 -10.033)"/><path class="a" d="M240.42,332.737V176.188h-1.156V332.737" transform="translate(-90.866 -6.06)"/><path class="a" d="M477.065,213.042V344.479h1.118V213.042" transform="translate(-248.305 -30.46)"/><path class="a" d="M496.238,346.381V219.469H495.12V346.381" transform="translate(-260.259 -34.714)"/><path class="g" d="M102.046,500.641l142.529-2.128v5.224l-142.529,2.515Z" transform="translate(-0.019 -219.459)"/><path class="a" d="M102.038,500.119l142.529-2.128-.016-1.088-142.529,2.128" transform="translate(-0.003 -218.393)"/><path class="a" d="M244.546,512.362l-142.529,2.515.019,1.088,142.529-2.515" transform="translate(0 -228.628)"/><path class="g" d="M102.046,293.889l142.529-2.128v5.224L102.046,299.5Z" transform="translate(-0.019 -82.576)"/><path class="a" d="M102.038,293.367l142.529-2.128-.016-1.088-142.529,2.128" transform="translate(-0.003 -81.51)"/><path class="a" d="M244.546,305.61l-142.529,2.515.019,1.088L244.565,306.7" transform="translate(0 -91.745)"/><path class="b" d="M210.507,466.42h8.334a2.686,2.686,0,0,0,2.275-1.27,2.533,2.533,0,0,1,.068.567l0,.049a2.567,2.567,0,0,1-2.559,2.512H210.67a2.568,2.568,0,0,1-2.561-2.561,2.149,2.149,0,0,1,.107-.592A2.685,2.685,0,0,0,210.507,466.42Z" transform="translate(-70.239 -197.354)"/><path class="c" d="M204.783,438.507v.44a2.571,2.571,0,0,0,1.874,2.467l-.033.058a7.993,7.993,0,0,0-.61,1.388,2.685,2.685,0,0,0,2.291,1.3h8.334a2.686,2.686,0,0,0,2.275-1.27,2.534,2.534,0,0,1,.068.567l0,.049a2.884,2.884,0,0,0,3.147-.085c2.04-1.541.541-5.58-.458-7.578a2.331,2.331,0,0,0-2.781-1.1,2.526,2.526,0,0,0,.095-.678,2.568,2.568,0,0,0-2.561-2.561h-7.953a2.558,2.558,0,0,0-1.723,4.452S204.783,436.816,204.783,438.507Zm12.9,2.71-.034-.025.038-.023Z" transform="translate(-68.037 -175.089)"/><path class="a" d="M246.651,440.459a3.3,3.3,0,0,1,.6-.058,1.968,1.968,0,0,1,.9.194,1.608,1.608,0,0,1,.714.751,16.719,16.719,0,0,1,.95,2.318,8.88,8.88,0,0,1,.477,2.609,3.442,3.442,0,0,1-.2,1.234,1.921,1.921,0,0,1-.64.867,2.014,2.014,0,0,1-1.252.424,3.22,3.22,0,0,1-1.362-.347l-.381.8a4.091,4.091,0,0,0,1.743.434,2.911,2.911,0,0,0,1.785-.6,2.81,2.81,0,0,0,.932-1.255,4.308,4.308,0,0,0,.259-1.552,9.721,9.721,0,0,0-.519-2.878,17.647,17.647,0,0,0-1-2.444,2.5,2.5,0,0,0-1.1-1.143,2.849,2.849,0,0,0-1.3-.29,4.172,4.172,0,0,0-.759.073l.162.868Z" transform="translate(-95.626 -180.401)"/><path class="a" d="M207.574,459.555c-.015.027-.054.09-.1.169a4.69,4.69,0,0,0-.543,1.13,3.13,3.13,0,0,0-.093.468,3.676,3.676,0,0,0-.033.426,3.01,3.01,0,0,0,3,3h7.953a3.009,3.009,0,0,0,3-3,2.971,2.971,0,0,0-.079-.666,3.009,3.009,0,0,0-1.026-1.656l-.28.342.288-.335-.352-.3-.575.67.356.305,0,0a2.127,2.127,0,0,1,.725,1.17,2.119,2.119,0,0,1-2.062,2.588H209.8a2.126,2.126,0,0,1-2.119-2.119,2.741,2.741,0,0,1,.025-.312,2.363,2.363,0,0,1,.063-.328,3.282,3.282,0,0,1,.292-.66c.054-.1.107-.181.155-.258s.09-.141.127-.21l-.773-.427Z" transform="translate(-69.374 -193.387)"/><path class="a" d="M206.145,440.82l.022-.04.007-.012.283-.492-.546-.153a2.13,2.13,0,0,1-1.551-2.041v-.44a1.761,1.761,0,0,1,.247-.892,3.092,3.092,0,0,1,.906-.941,4.035,4.035,0,0,1,.4-.246c.05-.027.09-.047.116-.06l.028-.013.006,0-.015-.032.015.033h0l-.015-.032.015.033.618-.274-.5-.456a2.119,2.119,0,0,1,1.425-3.684h7.953a2.119,2.119,0,0,1,0,4.238h-5.163v.883h5.163a3,3,0,1,0,0-6.005H207.6a3,3,0,0,0-2.021,5.219l.3-.326-.179-.4a4.747,4.747,0,0,0-1.093.717,3.654,3.654,0,0,0-.767.913,2.649,2.649,0,0,0-.365,1.334v.44a3.012,3.012,0,0,0,2.2,2.892l.119-.426-.383-.22-.036.065.773.427Z" transform="translate(-67.172 -174.224)"/><path class="a" d="M223.019,450.595h5.475a3.01,3.01,0,0,0,3-3v-.44a2.939,2.939,0,0,0-.45-1.5,3.565,3.565,0,0,0-1.028-1.1l-.5.732a2.69,2.69,0,0,1,.767.822,2.065,2.065,0,0,1,.323,1.045v.44a2.126,2.126,0,0,1-2.119,2.119h-5.475v.883Z" transform="translate(-80.111 -183.734)"/><path class="a" d="M222.767,442.406a1.315,1.315,0,0,1,.453.575,1.757,1.757,0,0,1,.151.725,1.7,1.7,0,0,1-.156.725,1.425,1.425,0,0,1-.448.577c.013-.252.053-.467.069-.681s.028-.417.031-.621A9.761,9.761,0,0,0,222.767,442.406Z" transform="translate(-79.944 -182.313)"/><path class="a" d="M222.244,457.274a1.312,1.312,0,0,1,.453.575,1.748,1.748,0,0,1,.151.725,1.7,1.7,0,0,1-.155.725,1.427,1.427,0,0,1-.448.577c.013-.252.052-.467.069-.681s.028-.417.031-.621A9.814,9.814,0,0,0,222.244,457.274Z" transform="translate(-79.598 -192.156)"/><path class="b" d="M397.087,466.42h-8.334a2.685,2.685,0,0,1-2.275-1.27,2.535,2.535,0,0,0-.069.567l0,.049a2.567,2.567,0,0,0,2.558,2.512h7.953a2.568,2.568,0,0,0,2.561-2.561,2.16,2.16,0,0,0-.107-.592A2.686,2.686,0,0,1,397.087,466.42Z" transform="translate(-188.286 -197.354)"/><path class="c" d="M390.5,435.947a2.558,2.558,0,0,0-1.723-4.452H380.82a2.568,2.568,0,0,0-2.561,2.561,2.541,2.541,0,0,0,.095.678,2.331,2.331,0,0,0-2.781,1.1c-1,2-2.5,6.038-.458,7.578a2.884,2.884,0,0,0,3.147.085l0-.049a2.533,2.533,0,0,1,.069-.567,2.685,2.685,0,0,0,2.275,1.27h8.334a2.686,2.686,0,0,0,2.291-1.3,8.012,8.012,0,0,0-.61-1.388l-.033-.058a2.571,2.571,0,0,0,1.874-2.467v-.44C392.458,436.816,390.5,435.947,390.5,435.947Zm-10.941,5.222.038.023-.034.025Z" transform="translate(-180.135 -175.089)"/><path class="a" d="M377.474,439.591a4.166,4.166,0,0,0-.759-.073,2.849,2.849,0,0,0-1.3.29,2.5,2.5,0,0,0-1.1,1.143,17.655,17.655,0,0,0-1,2.444,9.734,9.734,0,0,0-.52,2.878,4.316,4.316,0,0,0,.259,1.552,2.809,2.809,0,0,0,.932,1.255,2.912,2.912,0,0,0,1.785.6,4.092,4.092,0,0,0,1.743-.434l-.381-.8a3.223,3.223,0,0,1-1.362.347,2.015,2.015,0,0,1-1.253-.424,1.921,1.921,0,0,1-.64-.867,3.443,3.443,0,0,1-.2-1.234,8.882,8.882,0,0,1,.478-2.609,16.791,16.791,0,0,1,.95-2.318,1.607,1.607,0,0,1,.714-.751,1.969,1.969,0,0,1,.9-.194,3.3,3.3,0,0,1,.6.058l.161-.868Z" transform="translate(-179.269 -180.401)"/><path class="a" d="M397.516,459.983c.038.068.079.132.127.21a3.829,3.829,0,0,1,.446.917,2.315,2.315,0,0,1,.063.328,2.846,2.846,0,0,1,.026.312,2.126,2.126,0,0,1-2.119,2.119h-7.953a2.118,2.118,0,0,1-1.337-3.757l0,0,.356-.306-.575-.67-.352.3.287.335-.28-.342a3.008,3.008,0,0,0-1.026,1.656,2.97,2.97,0,0,0-.08.666,3.01,3.01,0,0,0,3,3h7.953a3.009,3.009,0,0,0,3-3,3.531,3.531,0,0,0-.033-.426,3.12,3.12,0,0,0-.093-.468,4.116,4.116,0,0,0-.369-.84c-.064-.113-.124-.211-.174-.29s-.089-.142-.1-.169l-.773.427Z" transform="translate(-187.42 -193.387)"/><path class="a" d="M398.289,440.393l-.036-.065-.383.22.119.426a3.012,3.012,0,0,0,2.2-2.892v-.44a2.652,2.652,0,0,0-.366-1.334,3.956,3.956,0,0,0-1.164-1.223,4.472,4.472,0,0,0-.7-.406l-.179.4.3.326a3,3,0,0,0-2.021-5.219h-7.953a3,3,0,1,0,0,6.005h5.163v-.883h-5.163a2.119,2.119,0,0,1,0-4.238h7.953a2.116,2.116,0,0,1,1.425,3.684l-.5.456.618.274.069-.155-.07.155h0l.069-.155-.07.155a3.956,3.956,0,0,1,.891.593,2.743,2.743,0,0,1,.569.683,1.761,1.761,0,0,1,.241.88v.44a2.13,2.13,0,0,1-1.551,2.041l-.546.153.283.492.007.012.022.04.773-.427Z" transform="translate(-187.42 -174.224)"/><path class="a" d="M393.581,449.711h-5.476a2.127,2.127,0,0,1-2.119-2.119v-.44a2.069,2.069,0,0,1,.323-1.045,2.7,2.7,0,0,1,.767-.822l-.5-.732a3.568,3.568,0,0,0-1.028,1.1,2.94,2.94,0,0,0-.45,1.5v.44a3.01,3.01,0,0,0,3,3h5.476v-.883Z" transform="translate(-187.42 -183.734)"/><path class="a" d="M409.259,442.406a9.822,9.822,0,0,0-.1,1.3c0,.2.008.409.031.621s.056.429.069.681a1.429,1.429,0,0,1-.448-.577,1.7,1.7,0,0,1-.155-.725,1.747,1.747,0,0,1,.151-.725A1.312,1.312,0,0,1,409.259,442.406Z" transform="translate(-203.013 -182.313)"/><path class="a" d="M409.782,457.274a9.761,9.761,0,0,0-.1,1.3c0,.2.009.409.031.621s.056.429.069.681a1.424,1.424,0,0,1-.448-.577,1.7,1.7,0,0,1-.156-.725,1.753,1.753,0,0,1,.151-.725A1.312,1.312,0,0,1,409.782,457.274Z" transform="translate(-203.359 -192.156)"/></g></svg>