<svg xmlns="http://www.w3.org/2000/svg" viewBox="0 0 156.63 155.9"><defs><style>.cls-1{fill:#1d1d1b;}.cls-2{fill:#646363;}.cls-3{isolation:isolate;}.cls-4{fill:#fff;}</style></defs><g id="black"><g id="Group_1160" data-name="Group 1160"><path id="Path_934" data-name="Path 934" class="cls-1" d="M156.63,149.87s-.7-1.8-.7-18.3c0-11.6-1-34-1.5-46.1a20.93,20.93,0,0,0-6.5-14.1L86.53,9.07a23.14,23.14,0,0,0-15.2-6.3L23.13.27,3.83-.13s48.8,42.2,97.7,89.9S156.63,149.87,156.63,149.87Z" transform="translate(-0.03 0.13)"/><path id="Path_926" data-name="Path 926" class="cls-2" d="M3.93,0C2.13.57.83,2.77,0,5.67h10.4L3.93,0" transform="translate(-0.03 0.13)"/><path id="Path_938" data-name="Path 938" class="cls-2" d="M147.83,138.27v17.5c5.11-1.3,9.21-3.4,8.8-5.8C154.83,146.47,147.83,138.27,147.83,138.27Z" transform="translate(-0.03 0.13)"/></g></g><g id="newOL"><g id="SALE"><g class="cls-3"><path class="cls-4" d="M83,47.26l-1.69-1.68L83.24,36l-5.76,5.76L75.8,40.09l8.4-8.41,1.69,1.69-2,9.58,5.77-5.77,1.68,1.68Z" transform="translate(-0.03 0.13)"/><path class="cls-4" d="M93.35,43.57l-2.1,2.11,2.82,2.82-1.33,1.33L89.91,47l-2.22,2.22,3.19,3.19L89.5,53.79l-4.86-4.87,8.4-8.4,4.87,4.87-1.37,1.37Z" transform="translate(-0.03 0.13)"/><path class="cls-4" d="M110.64,58.14l-10.74,6-2-2,4.4-7.55L94.7,59l-2-2,6.15-10.66,1.8,1.8-5,8,8.23-4.81,1.87,1.87-4.87,8.09,8-5Z" transform="translate(-0.03 0.13)"/><path class="cls-4" d="M116.28,63.78l-8.4,8.39-1.68-1.68,8.39-8.39Z" transform="translate(-0.03 0.13)"/><path class="cls-4" d="M116.72,81,115,79.32,117,69.75l-5.75,5.76-1.69-1.68,8.41-8.4,1.68,1.68-2,9.58,5.77-5.77,1.68,1.68Z" transform="translate(-0.03 0.13)"/></g></g></g></svg>