<svg xmlns="http://www.w3.org/2000/svg" viewBox="0 0 157.15 155.72"><defs><style>.cls-1{fill:#1d1d1b;}.cls-2{fill:#706f6f;}.cls-3{isolation:isolate;}.cls-4{fill:#fff;}</style></defs><g id="purple_copy" data-name="purple copy"><g id="Group_1160" data-name="Group 1160"><path id="Path_934" data-name="Path 934" class="cls-1" d="M157.12,149.93s-.67-1.84-.67-18.31c0-11.64-1-34-1.55-46.05a21,21,0,0,0-6.48-14.13L87.06,9.13A22.74,22.74,0,0,0,71.9,2.87L23.71.42,4.42,0s48.8,42.22,97.69,89.89S157.12,149.93,157.12,149.93Z" transform="translate(0 0)"/><path id="Path_926" data-name="Path 926" class="cls-2" d="M4.48,0C2.29.56.94,3,0,6H11.32L4.48,0" transform="translate(0 0)"/><path id="Path_938" data-name="Path 938" class="cls-2" d="M148.33,138.24l0,17.48c5.15-1.3,9.18-3.37,8.75-5.79C155.31,146.5,148.33,138.24,148.33,138.24Z" transform="translate(0 0)"/></g></g><g id="newOL"><g id="SALE"><g class="cls-3"><path class="cls-4" d="M83,47.26l-1.69-1.68L83.24,36l-5.76,5.76L75.8,40.09l8.4-8.41,1.69,1.69-2,9.58,5.77-5.77,1.68,1.68Z" transform="translate(0 0)"/><path class="cls-4" d="M93.35,43.57l-2.1,2.11,2.82,2.82-1.33,1.33L89.91,47l-2.22,2.22,3.19,3.19L89.5,53.79l-4.86-4.87,8.4-8.4,4.87,4.87-1.37,1.37Z" transform="translate(0 0)"/><path class="cls-4" d="M110.64,58.14l-10.74,6-2-2,4.4-7.55L94.7,59l-2-2,6.15-10.66,1.8,1.8-5,8,8.23-4.81,1.87,1.87-4.87,8.09,8-5Z" transform="translate(0 0)"/><path class="cls-4" d="M116.28,63.78l-8.4,8.39-1.68-1.68,8.39-8.39Z" transform="translate(0 0)"/><path class="cls-4" d="M116.72,81,115,79.32,117,69.75l-5.75,5.76-1.69-1.68,8.41-8.4,1.68,1.68-2,9.58,5.77-5.77,1.68,1.68Z" transform="translate(0 0)"/></g></g></g></svg>