<svg id="Layer_1" data-name="Layer 1" xmlns="http://www.w3.org/2000/svg" viewBox="0 0 646.15 98.12">
  <defs>
    <style>
      .cls-1 {
        fill: #b2b1b1;
      }

      .cls-2 {
        fill: #a42260;
      }

      .cls-3 {
        fill: #231e21;
      }

      .cls-4 {
        fill: #fef9cd;
      }

      .cls-5 {
        fill: #fff;
      }

      .cls-6 {
        fill: #a41f5f;
      }
    </style>
  </defs>
  <g>
    <path class="cls-1" d="M62.06,95A20.57,20.57,0,0,1,70,86.7a22.51,22.51,0,0,1,11.52-3A21.6,21.6,0,0,1,95,88a20.68,20.68,0,0,1,7.52,11.69H90.66a9.87,9.87,0,0,0-3.76-4.35,11,11,0,0,0-13.61,2.08Q70.2,101,70.2,107t3.09,9.55a10.92,10.92,0,0,0,13.61,2.08,9.87,9.87,0,0,0,3.76-4.35h11.87A20.51,20.51,0,0,1,95,125.94,21.7,21.7,0,0,1,81.5,130.2a22.51,22.51,0,0,1-11.52-3A20.62,20.62,0,0,1,62.06,119a26.84,26.84,0,0,1,0-24.07" transform="translate(65.87 -67.49)"/>
    <path class="cls-1" d="M131.16,105.18a7.45,7.45,0,0,0-10.93,0,9.14,9.14,0,0,0-2.24,6.53,9.37,9.37,0,0,0,2.24,6.59,7.38,7.38,0,0,0,10.93,0,10.74,10.74,0,0,0,0-13.13m-22.1-3.31a15.62,15.62,0,0,1,5.59-6.5,14.29,14.29,0,0,1,7.89-2.27,13.22,13.22,0,0,1,6.53,1.56,11.25,11.25,0,0,1,4.33,4.09V93.62h10.79v36.25H133.4v-5.13a11.79,11.79,0,0,1-4.39,4.09,13.22,13.22,0,0,1-6.53,1.56,14,14,0,0,1-7.83-2.31,15.73,15.73,0,0,1-5.59-6.56,22.36,22.36,0,0,1-2-9.84,22.13,22.13,0,0,1,2-9.81" transform="translate(65.87 -67.49)"/>
    <path class="cls-1" d="M185.55,93.62v36.25h-10.8v-4.94a11.92,11.92,0,0,1-4.45,3.87,13.33,13.33,0,0,1-6.22,1.46,13.65,13.65,0,0,1-7.13-1.85,12.36,12.36,0,0,1-4.8-5.36,18.64,18.64,0,0,1-1.71-8.25V93.62h10.74V113.3A8.13,8.13,0,0,0,163,119a6.33,6.33,0,0,0,4.92,2,6.41,6.41,0,0,0,5-2,8.13,8.13,0,0,0,1.83-5.66V93.62Z" transform="translate(65.87 -67.49)"/>
  </g>
  <rect class="cls-1" x="257.92" y="14.3" width="10.8" height="48.08"/>
  <g>
    <path class="cls-1" d="M220.21,129.87h-10.8V93.62h10.8Zm-10-41.74a5.67,5.67,0,0,1-1.8-4.26,5.73,5.73,0,0,1,1.8-4.32,6.43,6.43,0,0,1,4.64-1.72,6.35,6.35,0,0,1,4.58,1.72,5.73,5.73,0,0,1,1.8,4.32,5.67,5.67,0,0,1-1.8,4.26,6.39,6.39,0,0,1-4.58,1.72,6.47,6.47,0,0,1-4.64-1.72" transform="translate(65.87 -67.49)"/>
    <path class="cls-1" d="M261.56,129.87H250.77V81.79h10.79Zm-15.84-27h-5.81v27h-10.8v-27H225.2V93.62h3.91v-1q0-6.69,3.73-10.17t10.92-3.48a15.24,15.24,0,0,1,1.77.07v9.42c-2.07-.13-3.52.17-4.36.91s-1.26,2.06-1.26,4v.33h5.81Z" transform="translate(65.87 -67.49)"/>
    <path class="cls-1" d="M290.7,118.44q2.18-2.34,2.18-6.7t-2.12-6.69a7,7,0,0,0-10.45,0q-2.08,2.31-2.08,6.72t2,6.7a6.56,6.56,0,0,0,5.15,2.34,6.94,6.94,0,0,0,5.27-2.34m-14.59,9.68a16.45,16.45,0,0,1-6.5-6.5,21.57,21.57,0,0,1,0-19.72,16.51,16.51,0,0,1,6.57-6.53,20.37,20.37,0,0,1,18.69,0,16.48,16.48,0,0,1,6.56,6.53,21.27,21.27,0,0,1,0,19.69,16.65,16.65,0,0,1-6.63,6.53,19.41,19.41,0,0,1-9.37,2.27,19.11,19.11,0,0,1-9.32-2.27" transform="translate(65.87 -67.49)"/>
  </g>
  <polygon class="cls-1" points="423.21 26.12 413.68 62.38 401.75 62.38 396.19 38.86 390.44 62.38 378.57 62.38 368.98 26.12 379.77 26.12 384.76 52.05 390.7 26.12 402.12 26.12 408.12 51.92 413.05 26.12 423.21 26.12"/>
  <g>
    <path class="cls-1" d="M380.82,108.24a5.78,5.78,0,0,0-1.89-4.55A6.82,6.82,0,0,0,374.2,102a6.72,6.72,0,0,0-4.58,1.62,7.34,7.34,0,0,0-2.31,4.62Zm10.86,6.17H367.25a7.62,7.62,0,0,0,2.12,5.16,6.31,6.31,0,0,0,4.57,1.79,5.65,5.65,0,0,0,5.62-3.51h11.49a16.33,16.33,0,0,1-3.19,6.43,16,16,0,0,1-5.77,4.49,18.19,18.19,0,0,1-7.77,1.62,18.56,18.56,0,0,1-9.22-2.27,16,16,0,0,1-6.31-6.5,22.75,22.75,0,0,1,0-19.75,15.75,15.75,0,0,1,6.28-6.5,18.65,18.65,0,0,1,9.28-2.27,18.32,18.32,0,0,1,9.09,2.21,15.59,15.59,0,0,1,6.22,6.3,19.51,19.51,0,0,1,2.24,9.55,28.38,28.38,0,0,1-.19,3.25" transform="translate(65.87 -67.49)"/>
    <path class="cls-1" d="M413.09,95a11.89,11.89,0,0,1,6.31-1.72V105h-3q-4,0-6.06,1.78c-1.35,1.2-2,3.28-2,6.27v16.83H397.56V93.62h10.79v6A14.41,14.41,0,0,1,413.09,95" transform="translate(65.87 -67.49)"/>
    <path class="cls-2" d="M464.74,98.68a8.23,8.23,0,0,0-3.44-3.47A11,11,0,0,0,456,94a10.69,10.69,0,0,0-8.4,3.54q-3.17,3.54-3.16,9.45,0,6.3,3.32,9.84c2.21,2.37,5.25,3.54,9.12,3.54a10.84,10.84,0,0,0,6.72-2.07,11.74,11.74,0,0,0,4-6h-13.7v-8.19h23.49v10.33a22,22,0,0,1-4.07,7.73,21.69,21.69,0,0,1-7.29,5.79,22.08,22.08,0,0,1-10,2.21,23.08,23.08,0,0,1-11.71-3,20.73,20.73,0,0,1-8-8.22,26.67,26.67,0,0,1,0-24.07,20.73,20.73,0,0,1,8-8.25,22.92,22.92,0,0,1,11.68-3,22.23,22.23,0,0,1,13.41,4,18.79,18.79,0,0,1,7.23,11Z" transform="translate(65.87 -67.49)"/>
    <path class="cls-2" d="M494.22,129.87H483.43V93.62h10.79Zm-10-41.74a5.67,5.67,0,0,1-1.8-4.26,5.73,5.73,0,0,1,1.8-4.32,6.42,6.42,0,0,1,4.64-1.72,6.33,6.33,0,0,1,4.57,1.72,5.73,5.73,0,0,1,1.8,4.32,5.67,5.67,0,0,1-1.8,4.26,6.37,6.37,0,0,1-4.57,1.72,6.46,6.46,0,0,1-4.64-1.72" transform="translate(65.87 -67.49)"/>
    <path class="cls-2" d="M519.73,102.84h-5.81v27H503.13v-27h-3.92V93.62h3.92v-1q0-6.69,3.72-10.17c2.48-2.32,6.13-3.48,10.92-3.48a15.24,15.24,0,0,1,1.77.07v9.42c-2.06-.13-3.51.17-4.36.91s-1.26,2.06-1.26,4v.33h5.81Z" transform="translate(65.87 -67.49)"/>
    <path class="cls-2" d="M545.68,120.45v9.42h-5.49q-5.88,0-9.16-3t-3.28-9.65V102.84h-4.3V93.62h4.3V84.78h10.79v8.84h7.07v9.22h-7.07V117.4a3.13,3.13,0,0,0,.76,2.34,3.68,3.68,0,0,0,2.53.71Z" transform="translate(65.87 -67.49)"/>
    <path class="cls-2" d="M557.8,128.77a14.16,14.16,0,0,1-5.68-4.45,12,12,0,0,1-2.34-6.34h10.67a4.27,4.27,0,0,0,1.71,3.06,5.9,5.9,0,0,0,3.72,1.16,5.23,5.23,0,0,0,3.13-.81,2.51,2.51,0,0,0,1.1-2.11,2.45,2.45,0,0,0-1.58-2.31,32.32,32.32,0,0,0-5.11-1.65,47.24,47.24,0,0,1-6.31-1.92,10.87,10.87,0,0,1-4.36-3.18,8.84,8.84,0,0,1-1.83-5.88,10.24,10.24,0,0,1,1.67-5.69,11.39,11.39,0,0,1,4.93-4.06,18.44,18.44,0,0,1,7.73-1.49q6.63,0,10.45,3.38a13.26,13.26,0,0,1,4.39,9h-10a4.47,4.47,0,0,0-1.61-3,5.5,5.5,0,0,0-3.57-1.1,4.8,4.8,0,0,0-2.9.75,2.4,2.4,0,0,0-1,2,2.5,2.5,0,0,0,1.61,2.34,25.25,25.25,0,0,0,5,1.56,54,54,0,0,1,6.38,2,10.94,10.94,0,0,1,4.32,3.25,9.4,9.4,0,0,1,1.93,6,9.71,9.71,0,0,1-1.74,5.68,11.5,11.5,0,0,1-5,3.93,18.64,18.64,0,0,1-7.54,1.43,19.82,19.82,0,0,1-8.21-1.62" transform="translate(65.87 -67.49)"/>
    <path class="cls-3" d="M.58,164.85a1.81,1.81,0,0,1-1.8-1.8C-1.29,150.69-2.94,146-3,145.8a.92.92,0,0,1,0-.71.9.9,0,0,1,.53-.48l2.19-.74a.93.93,0,0,1,.29-.05.93.93,0,0,1,.88.63s1.22,4,1.65,13a11.85,11.85,0,0,1,6.76-1.79c1.71,0,7.31.52,7.39,7.14a2,2,0,0,1-2,2Z" transform="translate(65.87 -67.49)"/>
    <path class="cls-4" d="M9.33,156.61c-4.19,0-6.44,1.5-7.61,2.82C1.4,149.42.11,145,0,144.75l-2.18.73c0,.05,1.77,4.68,1.84,17.57a.89.89,0,0,0,.88.87H14.72a1.07,1.07,0,0,0,1.07-1.08c0-2-.76-6.23-6.46-6.23" transform="translate(65.87 -67.49)"/>
    <path class="cls-4" d="M11.6,161.54c2.76,0,3.24-1.4,3.28-2.28-.86-1.44-2.49-2.65-5.55-2.64-4.19,0-6.44,1.49-7.61,2.81,0,2.41,5.85,2.11,9.88,2.11" transform="translate(65.87 -67.49)"/>
    <path class="cls-3" d="M2.87,158.39a5.57,5.57,0,0,0-2.05,3.05s-.34-1.91,1.75-4Z" transform="translate(65.87 -67.49)"/>
    <path class="cls-3" d="M-32.34,158.14a2,2,0,0,1-1.3-.84,2,2,0,0,1-.31-1.5c1.26-6.5,6.85-6,8.54-5.7a11.82,11.82,0,0,1,6.33,3c2-8.83,3.93-12.49,3.95-12.53a.93.93,0,0,1,1-.46,1,1,0,0,1,.29.1l2,1.12a.93.93,0,0,1,.36,1.25c-.12.2-2.57,4.52-4.85,16.68a1.8,1.8,0,0,1-2.09,1.44Z" transform="translate(65.87 -67.49)"/>
    <path class="cls-4" d="M-25.58,151c4.13.74,6.07,2.61,7,4.12,2.1-9.79,4.17-14,4.27-14.15l2,1.12s-2.57,4.28-4.95,17a.88.88,0,0,1-1,.71l-13.91-2.52A1.07,1.07,0,0,1-33,156c.38-2,1.86-6,7.46-5" transform="translate(65.87 -67.49)"/>
    <path class="cls-4" d="M-25.58,151c-3-.55-4.82.35-5.92,1.61-.13.87.1,2.34,2.82,2.83,4,.72,9.66,2.06,10.09-.32-.92-1.51-2.86-3.38-7-4.12" transform="translate(65.87 -67.49)"/>
    <path class="cls-4" d="M-16,145.35c.63.25,1.3.5,2,.74a23.47,23.47,0,0,1,1.68-4l-2-1.12A34.27,34.27,0,0,0-16,145.35" transform="translate(65.87 -67.49)"/>
    <path class="cls-3" d="M11.42,134.84a15.65,15.65,0,0,1-3.64-1.05.94.94,0,0,1-.47-1.22l.93-2.11a.91.91,0,0,1,1-.54.9.9,0,0,1,.22.06,12.57,12.57,0,0,0,2.71.74,11.43,11.43,0,0,0,1.72.15,6.91,6.91,0,0,0,6.57-3.71.92.92,0,0,1,.95-.45.94.94,0,0,1,.31.1l2,1.15a.92.92,0,0,1,.44.55.94.94,0,0,1-.09.7c-3.6,6.33-10,6-12.64,5.63" transform="translate(65.87 -67.49)"/>
    <path class="cls-3" d="M23.46,131.44a7,7,0,0,1-2.63-1.12c-1.66-1.06-3.87-2.47-3-5.29-1.64-1.45-2.25-2.64-1.81-3.53a3,3,0,0,1,3-1.38,3.08,3.08,0,0,1,1.66.84c0-.34.06-.69.11-1a4,4,0,0,1,1.4-2.72,2.4,2.4,0,0,1,1.8-.43l.2,0a2.38,2.38,0,0,1,1.91,2.54,3,3,0,0,1,2.21-.64,2.55,2.55,0,0,1,1.23.58c1.46,1.24,1,2.7.32,3.75a2.89,2.89,0,0,1,.78,0,2.29,2.29,0,0,1,1.84,1.48c.83,2.15-1.2,3.12-2.18,3.58a9.89,9.89,0,0,1-2.47.74l-.06.11c-.89,1.33-2.18,2.82-4.33,2.47" transform="translate(65.87 -67.49)"/>
    <path class="cls-3" d="M-26.86,141a2.18,2.18,0,0,1-2.06-1.29c-.44-1.61-.4-3.62,1.11-4.11a2.8,2.8,0,0,1,1.14-.14c1.38.13,2.4,1.27,2.73,3a2,2,0,0,1-.46,1.73,2.93,2.93,0,0,1-2.46.77" transform="translate(65.87 -67.49)"/>
    <path class="cls-4" d="M-28,139.43s-.7-2.56.51-3,2.34.38,2.68,2.2-2.9,1.7-3.19.76" transform="translate(65.87 -67.49)"/>
    <path class="cls-3" d="M-8.07,146.16c-7.1-1.14-11-3.59-12.75-4.94a2.63,2.63,0,0,1-1-2.48l2.9-18c.9-5.6-5.53-18.11-5.59-18.23a.93.93,0,0,1,0-.78,1,1,0,0,1,.57-.53l9.49-3.09a.9.9,0,0,1,.43,0,.92.92,0,0,1,.72.59c1.48,4,3.26,8.28,4.29,10.25a73.22,73.22,0,0,0,.83-8.12.93.93,0,0,1,.34-.66.93.93,0,0,1,.73-.2L7.6,102.33a.93.93,0,0,1,.62.4.91.91,0,0,1,.13.72,53.63,53.63,0,0,0-1.18,6.74c1.41-1.17,4.11-3.79,6.39-6.16a.93.93,0,0,1,1.16-.14l7.53,4.75a.92.92,0,0,1,.16,1.44c-.11.1-10.13,10-11,15.56l-2.89,18a2.63,2.63,0,0,1-1.69,2c-2.06.75-6.56,1.84-13.67.69Z" transform="translate(65.87 -67.49)"/>
    <path class="cls-4" d="M7.45,103.24l-14.72-2.37s-.55,10.19-1.59,9.88S-14.18,99-14.18,99l-9.48,3.1S-17,115-18,120.91l-2.89,18a1.69,1.69,0,0,0,.62,1.6c1.51,1.19,5.32,3.63,12.33,4.76l1.2.19c7,1.13,11.39,0,13.2-.65a1.69,1.69,0,0,0,1.1-1.32l2.89-18c1-6,11.29-16.07,11.29-16.07l-7.53-4.75s-6.53,6.77-7.66,7,.88-8.43.88-8.43" transform="translate(65.87 -67.49)"/>
    <path class="cls-4" d="M14.23,104.67S11.05,108,8.75,110a4,4,0,0,0,.62.15l.09,0a5,5,0,0,0,1.5,0,5.42,5.42,0,0,0,3.26,2l.11,0a5.38,5.38,0,0,0,1.92,0A4.05,4.05,0,0,0,18,113.41c2.07-2.35,3.74-4,3.74-4Z" transform="translate(65.87 -67.49)"/>
    <path class="cls-4" d="M-13.55,105.61a5.67,5.67,0,0,0,2.63,1.47c-1.53-3.45-3.26-8.07-3.26-8.07l-9.48,3.1s1.54,3,3,6.76a7,7,0,0,0,1.2-1.49,7.39,7.39,0,0,0,5.87-1.77" transform="translate(65.87 -67.49)"/>
    <path class="cls-4" d="M1.72,110.78l.12,0a6.07,6.07,0,0,0,4.44-1,64,64,0,0,1,1.17-6.6l-14.72-2.37s-.24,4.56-.72,7.49a6.3,6.3,0,0,0,3.59,2l.13,0a6.2,6.2,0,0,0,3.69-.51,6.25,6.25,0,0,0,2.3.9" transform="translate(65.87 -67.49)"/>
    <path class="cls-4" d="M7.58,143.46l.75-4.67c-2,3.74-5.93,5.18-15.28,3.49-10.63-1.93-12.17-10.38-12.4-12.88l-1.52,9.49a1.69,1.69,0,0,0,.62,1.6c1.51,1.19,5.32,3.63,12.33,4.76l1.2.19c7,1.13,11.39,0,13.2-.65a1.71,1.71,0,0,0,1.1-1.33" transform="translate(65.87 -67.49)"/>
    <path class="cls-3" d="M-19.25,103.75q1.39,3.31,2.81,6.64a.34.34,0,0,0,.64-.25c-.94-2.22-1.87-4.43-2.81-6.64-.17-.41-.82-.17-.64.25" transform="translate(65.87 -67.49)"/>
    <path class="cls-3" d="M-.27,105.13C-.59,107.07-.9,109-1.21,111a.34.34,0,0,0,.68.11c.31-1.94.63-3.89.94-5.83a.34.34,0,0,0-.68-.11" transform="translate(65.87 -67.49)"/>
    <path class="cls-3" d="M16.15,107.32l-4.75,5c-.31.32.23.76.53.44l4.76-5c.3-.32-.23-.76-.54-.44" transform="translate(65.87 -67.49)"/>
    <path class="cls-3" d="M-15,92.16A7.39,7.39,0,0,1-18,91.08a4.26,4.26,0,0,1-1.85.1,3.75,3.75,0,0,1-3.32-3.46,3.67,3.67,0,0,1-2.78-4.34,3.88,3.88,0,0,1,.11-.49A4.5,4.5,0,0,1-28.48,78,4.49,4.49,0,0,1-24,74.19a4.61,4.61,0,0,1,5.33-3.55,4.13,4.13,0,0,1,.77.19,4.78,4.78,0,0,1,5.25-3.28,4.7,4.7,0,0,1,3.45,2.59,2.83,2.83,0,0,1,1.62-.22A3,3,0,0,1-5.7,71.1l.17,0a3.22,3.22,0,0,1,1.45.6,3.84,3.84,0,0,1,2.25-.29,3.86,3.86,0,0,1,3.26,4.38,3,3,0,0,1-.17.67A4.08,4.08,0,0,1,3.1,80.55a4,4,0,0,1-1.87,2.8,2.81,2.81,0,0,1,0,1.08,3.23,3.23,0,0,1-2,2.4,3.72,3.72,0,0,1,0,1.29A3.37,3.37,0,0,1-4.48,91h-.07A3.92,3.92,0,0,1-8.5,92.72a4.06,4.06,0,0,1-2.25-1.15,6.6,6.6,0,0,1-4.3.59" transform="translate(65.87 -67.49)"/>
    <path class="cls-4" d="M2.19,80.41A3.16,3.16,0,0,0,0,76.91a2.77,2.77,0,0,0,.52-1.23A2.93,2.93,0,0,0-2,72.35a3,3,0,0,0-2.25.52A2.3,2.3,0,0,0-5.67,72a2.49,2.49,0,0,0-.54,0,2.18,2.18,0,0,0-1.53-1.19,2.22,2.22,0,0,0-1.95.78,3.84,3.84,0,0,0-3.12-3.15,3.88,3.88,0,0,0-4.38,3.3,3,3,0,0,0,0,.43,4,4,0,0,0-1.6-.64,3.68,3.68,0,0,0-4.29,2.92,3.4,3.4,0,0,0,0,.78,2.59,2.59,0,0,0-.4-.09,3.54,3.54,0,0,0-4,3,3.53,3.53,0,0,0,2.87,4.1l.17,0A3.43,3.43,0,0,0-25,83.52a2.75,2.75,0,0,0,2,3.29,2.21,2.21,0,0,0,1,0,1.9,1.9,0,0,0-.18.57,2.75,2.75,0,0,0,2.52,2.94,3.26,3.26,0,0,0,1.85-.22,6.25,6.25,0,0,0,2.92,1.2c1.9.31,3.61-.13,4.31-1a3,3,0,0,0,2.24,1.56,2.85,2.85,0,0,0,3.3-2,2.2,2.2,0,0,0,.72.25A2.45,2.45,0,0,0-1.6,88a2.66,2.66,0,0,0-.3-1.73A2.58,2.58,0,0,0,.35,84.29a2.08,2.08,0,0,0-.29-1.41,3.11,3.11,0,0,0,2.13-2.47" transform="translate(65.87 -67.49)"/>
    <path class="cls-4" d="M-24.07,78.63a4.59,4.59,0,0,1,5.32-3.55,4.13,4.13,0,0,1,.77.19A4.79,4.79,0,0,1-12.73,72a4.69,4.69,0,0,1,3.46,2.59,2.79,2.79,0,0,1,1.61-.22,3,3,0,0,1,1.89,1.18l.18,0a3.29,3.29,0,0,1,1.44.59,3.93,3.93,0,0,1,2.25-.28,4,4,0,0,1,2,.91,2.53,2.53,0,0,0,.45-1.11A2.93,2.93,0,0,0-2,72.35a3,3,0,0,0-2.25.52A2.3,2.3,0,0,0-5.67,72a2.49,2.49,0,0,0-.54,0,2.18,2.18,0,0,0-1.53-1.19,2.22,2.22,0,0,0-1.95.78,3.84,3.84,0,0,0-3.12-3.15,3.88,3.88,0,0,0-4.38,3.3,3,3,0,0,0,0,.43,4,4,0,0,0-1.6-.64,3.68,3.68,0,0,0-4.29,2.92,3.4,3.4,0,0,0,0,.78,2.71,2.71,0,0,0-.41-.09,3.54,3.54,0,0,0-4,3,3.53,3.53,0,0,0,.2,1.89,4.38,4.38,0,0,1,3.3-1.41" transform="translate(65.87 -67.49)"/>
    <path class="cls-3" d="M-14.37,73.1a1.27,1.27,0,0,1-1.06-1.45A1.28,1.28,0,0,1-14,70.59a1.27,1.27,0,0,1,1.05,1.46,1.26,1.26,0,0,1-1.45,1" transform="translate(65.87 -67.49)"/>
    <path class="cls-4" d="M-13.37,72a.81.81,0,0,1-.93.67.81.81,0,0,1-.67-.93.81.81,0,0,1,.93-.67.81.81,0,0,1,.67.93" transform="translate(65.87 -67.49)"/>
    <path class="cls-3" d="M-3.73,76.17A1.05,1.05,0,0,1-4.61,75a1.06,1.06,0,0,1,1.22-.88,1.06,1.06,0,0,1,.87,1.22,1,1,0,0,1-1.21.87" transform="translate(65.87 -67.49)"/>
    <path class="cls-4" d="M-3,75.22a.61.61,0,0,1-.69.5.6.6,0,0,1-.5-.69.59.59,0,0,1,.69-.49.59.59,0,0,1,.5.68" transform="translate(65.87 -67.49)"/>
    <path class="cls-3" d="M-12.31,81.91A1.7,1.7,0,0,1-13.72,80a1.7,1.7,0,0,1,2-1.41,1.7,1.7,0,0,1,1.4,2,1.69,1.69,0,0,1-1.94,1.4" transform="translate(65.87 -67.49)"/>
    <path class="cls-4" d="M-10.83,80.43a1.23,1.23,0,0,1-1.41,1,1.23,1.23,0,0,1-1-1.41,1.23,1.23,0,0,1,1.41-1,1.22,1.22,0,0,1,1,1.41" transform="translate(65.87 -67.49)"/>
    <path class="cls-3" d="M-8.31,80.86a1,1,0,0,1-.79-1.09A1,1,0,0,1-8,79a1,1,0,0,1,.79,1.09,1,1,0,0,1-1.1.79" transform="translate(65.87 -67.49)"/>
    <path class="cls-4" d="M-7.67,80a.49.49,0,0,1-.56.41.5.5,0,0,1-.41-.57.5.5,0,0,1,.57-.41.49.49,0,0,1,.4.57" transform="translate(65.87 -67.49)"/>
    <path class="cls-3" d="M10.74,95.72a3.52,3.52,0,0,1-2.38-1.51,4,4,0,0,1-1.34,0,3.79,3.79,0,0,1-1.58-.61,3.55,3.55,0,0,1-2.05.28A3.33,3.33,0,0,1,.75,91.76a2.7,2.7,0,0,1-.49,0,3.4,3.4,0,0,1-2.93-3.8,1.55,1.55,0,0,1,0-.21,3.42,3.42,0,0,1-2-3.74,3.51,3.51,0,0,1,1.31-2.23,2.33,2.33,0,0,1-.06-1,2.45,2.45,0,0,1,1.58-1.93A5,5,0,0,1,1.1,74.35a5.54,5.54,0,0,1,3.27-.53,4.29,4.29,0,0,1,1.56.57,5,5,0,0,1,4.79-1.8A5.11,5.11,0,0,1,13.57,74a3.48,3.48,0,0,1,3-1,3.68,3.68,0,0,1,3,3.64,3.05,3.05,0,0,1,.8,0,2.55,2.55,0,0,1,2.2,2.6,3.68,3.68,0,0,1,.81,0,4.26,4.26,0,0,1,3.43,5,4.38,4.38,0,0,1-2.75,3.43,3.64,3.64,0,0,1,0,.57,3.45,3.45,0,0,1-1.16,2,2.59,2.59,0,0,1,0,1,3.24,3.24,0,0,1-3.77,2.41,3.81,3.81,0,0,1-3.67,1.34A4.09,4.09,0,0,1,14,94.57a3.51,3.51,0,0,1-3.24,1.15" transform="translate(65.87 -67.49)"/>
    <path class="cls-4" d="M25.9,84.16a3.34,3.34,0,0,0-2.66-3.91,3.14,3.14,0,0,0-2.13.42,2,2,0,0,0,.2-2.45,2.12,2.12,0,0,0-2.95-.1,3.32,3.32,0,0,0,.25-.83,2.83,2.83,0,0,0-2.16-3.35A2.72,2.72,0,0,0,13.6,75.6a4.17,4.17,0,0,0-3-2.1,4,4,0,0,0-4.4,2.28,3.87,3.87,0,0,0-4.66-.6A3.78,3.78,0,0,0-.76,79.54,1.55,1.55,0,0,0-2.5,80.83a1.54,1.54,0,0,0,.37,1.27,2.58,2.58,0,0,0-1.62,2A2.45,2.45,0,0,0-1.82,87a2,2,0,0,0,.55,0,2.15,2.15,0,0,0-.49,1.07A2.47,2.47,0,0,0,.41,90.81a2.67,2.67,0,0,0,1.13-.06,2.21,2.21,0,0,0,2,2.22,2.5,2.5,0,0,0,2-.51,2.75,2.75,0,0,0,1.64.84,2.86,2.86,0,0,0,1.67-.2,2.51,2.51,0,0,0,2.05,1.7,2.44,2.44,0,0,0,2.81-1.66,3.12,3.12,0,0,0,1.91,1,2.74,2.74,0,0,0,3.06-1.48,2.47,2.47,0,0,0,.47.11A2.35,2.35,0,0,0,22,91.21,1.82,1.82,0,0,0,21.72,90a2.31,2.31,0,0,0,1.38-1.81A2.47,2.47,0,0,0,23,87a3.39,3.39,0,0,0,2.87-2.88" transform="translate(65.87 -67.49)"/>
    <path class="cls-4" d="M-.27,78.79A5.42,5.42,0,0,1,3,78.26a4.33,4.33,0,0,1,1.57.56A5.05,5.05,0,0,1,9.35,77a5.25,5.25,0,0,1,2.85,1.46,3.47,3.47,0,0,1,3-1,3.67,3.67,0,0,1,3,3.64,3.05,3.05,0,0,1,.8,0,2.63,2.63,0,0,1,1.67,1,2.59,2.59,0,0,1,.52,1.64,3.73,3.73,0,0,1,.82,0A4.16,4.16,0,0,1,25,86a3.55,3.55,0,0,0,.89-1.83,3.34,3.34,0,0,0-2.66-3.91,3.14,3.14,0,0,0-2.13.42,2,2,0,0,0,.2-2.45,2.12,2.12,0,0,0-2.95-.1,3.32,3.32,0,0,0,.25-.83,2.83,2.83,0,0,0-2.16-3.35A2.72,2.72,0,0,0,13.6,75.6a4.17,4.17,0,0,0-3-2.1,4,4,0,0,0-4.4,2.28,3.87,3.87,0,0,0-4.66-.6A3.89,3.89,0,0,0-.86,79.12a4.75,4.75,0,0,1,.59-.33" transform="translate(65.87 -67.49)"/>
    <path class="cls-3" d="M2.58,80.61a1.76,1.76,0,1,1,2-1.46,1.77,1.77,0,0,1-2,1.46" transform="translate(65.87 -67.49)"/>
    <path class="cls-4" d="M4.14,79.07a1.3,1.3,0,1,1-1.07-1.49,1.29,1.29,0,0,1,1.07,1.49" transform="translate(65.87 -67.49)"/>
    <path class="cls-3" d="M10.47,77.44a1.17,1.17,0,0,1-1-1.35,1.18,1.18,0,1,1,1,1.35" transform="translate(65.87 -67.49)"/>
    <path class="cls-4" d="M11.37,76.39a.72.72,0,0,1-.82.6.73.73,0,0,1-.6-.83.72.72,0,0,1,1.42.23" transform="translate(65.87 -67.49)"/>
    <path class="cls-3" d="M17.33,84.72a1.56,1.56,0,1,1,1.79-1.29,1.56,1.56,0,0,1-1.79,1.29" transform="translate(65.87 -67.49)"/>
    <path class="cls-4" d="M18.66,83.36a1.09,1.09,0,1,1-.91-1.25,1.08,1.08,0,0,1,.91,1.25" transform="translate(65.87 -67.49)"/>
    <path class="cls-3" d="M-32.36,109.78a4.76,4.76,0,0,1-3.81-3.49,4.19,4.19,0,0,1-1.8.09,3.89,3.89,0,0,1-3.41-4.32,3.2,3.2,0,0,1,.1-.42,3.52,3.52,0,0,1-1.27-3.1A5.16,5.16,0,0,1-45.26,93a5.24,5.24,0,0,1,3.94-4.33,4.43,4.43,0,0,1,0-1.15A4.34,4.34,0,0,1-37,83.89a5.46,5.46,0,0,1,0-1.51,5.49,5.49,0,0,1,6.29-4.55,5.5,5.5,0,0,1,2.2.87,3.07,3.07,0,0,1,2.95-1.44,2.73,2.73,0,0,1,1.43.73,3.92,3.92,0,0,1,3.65-1.49,3.8,3.8,0,0,1,2.76,2l.28,0a3.73,3.73,0,0,1,3.12,4,4.52,4.52,0,0,1,3.28,5,4.37,4.37,0,0,1-.94,2.1A5.15,5.15,0,0,1-10.55,94,5,5,0,0,1-12,96.81a2.59,2.59,0,0,1,.27,1.61,2.75,2.75,0,0,1-1.42,1.93,4.43,4.43,0,0,1,.12,2c-.44,2.77-3.36,4.6-6.51,4.1a5.73,5.73,0,0,1-.69-.16,5,5,0,0,1-5.27,3.28,4.5,4.5,0,0,1-2.53-1.35,4.74,4.74,0,0,1-4.3,1.58" transform="translate(65.87 -67.49)"/>
    <path class="cls-4" d="M-13.29,96.64a4.11,4.11,0,0,0,1.82-2.76,4.43,4.43,0,0,0-1.84-4.18,3.51,3.51,0,0,0,1.38-2.27,3.6,3.6,0,0,0-3-4.11l-.44,0a2.85,2.85,0,0,0,.16-.59,2.8,2.8,0,0,0-2.31-3.21,2.63,2.63,0,0,0-.74,0,3,3,0,0,0-2.31-2.06,3.26,3.26,0,0,0-3.46,2.43,2.15,2.15,0,0,0-1.62-1.66,2.51,2.51,0,0,0-2.51,2,4.56,4.56,0,0,0-2.64-1.43,4.56,4.56,0,0,0-5.23,3.78,4.62,4.62,0,0,0,.32,2.54,3.49,3.49,0,0,0-.72-.2,3.41,3.41,0,0,0-3.91,2.82,3.3,3.3,0,0,0,.22,1.85,4.13,4.13,0,0,0-4.19,3.64A4.12,4.12,0,0,0-41.48,98a2.09,2.09,0,0,0-.13.49,2.62,2.62,0,0,0,1.49,2.84,2.49,2.49,0,0,0-.35.93,3,3,0,0,0,2.64,3.26,3.32,3.32,0,0,0,2.4-.52,3.92,3.92,0,0,0,3.22,3.92,3.91,3.91,0,0,0,4.13-2.29,3.71,3.71,0,0,0,2.7,2.06,4.19,4.19,0,0,0,4.52-3.56,5.48,5.48,0,0,0,1.44.43c2.65.43,5.09-1.06,5.45-3.32a3.74,3.74,0,0,0-.4-2.33,2.17,2.17,0,0,0,1.7-1.59,1.92,1.92,0,0,0-.62-1.63" transform="translate(65.87 -67.49)"/>
    <path class="cls-4" d="M-31.55,81.94a5.41,5.41,0,0,1,2.2.87,3,3,0,0,1,3-1.44A2.66,2.66,0,0,1-25,82.1a3.9,3.9,0,0,1,3.65-1.49,3.79,3.79,0,0,1,2.75,2,1.36,1.36,0,0,1,.29,0,3.73,3.73,0,0,1,3.12,3.95,4.61,4.61,0,0,1,2.73,2.12,3.45,3.45,0,0,0,.5-1.32,3.6,3.6,0,0,0-3-4.11l-.44,0a2.85,2.85,0,0,0,.16-.59,2.8,2.8,0,0,0-2.31-3.21,2.63,2.63,0,0,0-.74,0,3,3,0,0,0-2.31-2.06,3.26,3.26,0,0,0-3.46,2.43,2.15,2.15,0,0,0-1.62-1.66,2.51,2.51,0,0,0-2.51,2,4.5,4.5,0,0,0-2.64-1.43,4.56,4.56,0,0,0-5.23,3.78,5.32,5.32,0,0,0,0,.79,5.45,5.45,0,0,1,4.57-1.37" transform="translate(65.87 -67.49)"/>
    <path class="cls-4" d="M-11.57,92.18a6,6,0,0,1-5.31,1.68,4.15,4.15,0,0,1-.7-.15A5,5,0,0,1-22.84,97a4.47,4.47,0,0,1-2.53-1.35,4.77,4.77,0,0,1-4.3,1.58,4.77,4.77,0,0,1-3.82-3.49,4.18,4.18,0,0,1-1.8.09A3.91,3.91,0,0,1-38.7,89.5c0-.14.06-.28.1-.42a3.53,3.53,0,0,1-1.28-2.7,3.49,3.49,0,0,0-.5,1.3,3.31,3.31,0,0,0,.22,1.85,4.13,4.13,0,0,0-4.19,3.64A4.12,4.12,0,0,0-41.48,98a2.09,2.09,0,0,0-.13.49,2.62,2.62,0,0,0,1.49,2.84,2.68,2.68,0,0,0-.35.93,3,3,0,0,0,2.64,3.26,3.32,3.32,0,0,0,2.4-.52,3.92,3.92,0,0,0,3.22,3.92,3.9,3.9,0,0,0,4.13-2.3,3.7,3.7,0,0,0,2.7,2.07,4.19,4.19,0,0,0,4.52-3.56,5.48,5.48,0,0,0,1.44.43c2.65.43,5.09-1.06,5.45-3.33a3.72,3.72,0,0,0-.4-2.32,2.17,2.17,0,0,0,1.7-1.59,1.92,1.92,0,0,0-.62-1.63,4.15,4.15,0,0,0,1.83-2.76,4,4,0,0,0-.11-1.7" transform="translate(65.87 -67.49)"/>
    <path class="cls-3" d="M-35.27,89.6a1.69,1.69,0,0,1-1.41-1.94,1.69,1.69,0,0,1,1.94-1.41,1.69,1.69,0,0,1,1.41,1.94,1.69,1.69,0,0,1-1.94,1.41" transform="translate(65.87 -67.49)"/>
    <path class="cls-4" d="M-33.79,88.12a1.23,1.23,0,0,1-1.41,1,1.23,1.23,0,0,1-1-1.41,1.23,1.23,0,0,1,1.41-1,1.23,1.23,0,0,1,1,1.41" transform="translate(65.87 -67.49)"/>
    <path class="cls-3" d="M-31.39,85.89a1.16,1.16,0,0,1-1-1.33,1.16,1.16,0,0,1,1.33-1,1.16,1.16,0,0,1,1,1.33,1.16,1.16,0,0,1-1.33,1" transform="translate(65.87 -67.49)"/>
    <path class="cls-4" d="M-30.51,84.86a.7.7,0,0,1-.8.58.7.7,0,0,1-.58-.8.69.69,0,0,1,.8-.58.7.7,0,0,1,.58.8" transform="translate(65.87 -67.49)"/>
    <path class="cls-3" d="M-33.74,104.68a2,2,0,0,1-1.65-2.28,2,2,0,0,1,2.28-1.64A2,2,0,0,1-31.47,103a2,2,0,0,1-2.27,1.65" transform="translate(65.87 -67.49)"/>
    <path class="cls-4" d="M-31.92,103a1.53,1.53,0,0,1-1.75,1.26,1.52,1.52,0,0,1-1.26-1.74,1.52,1.52,0,0,1,1.74-1.26A1.52,1.52,0,0,1-31.92,103" transform="translate(65.87 -67.49)"/>
    <path class="cls-3" d="M-29.39,99.63a1.27,1.27,0,0,1-1.06-1.47A1.29,1.29,0,0,1-29,97.09a1.29,1.29,0,0,1,1.06,1.48,1.29,1.29,0,0,1-1.47,1.06" transform="translate(65.87 -67.49)"/>
    <path class="cls-4" d="M-28.37,98.49a.83.83,0,0,1-.95.68.82.82,0,0,1-.68-.94.83.83,0,0,1,.95-.68.82.82,0,0,1,.68.94" transform="translate(65.87 -67.49)"/>
    <path class="cls-3" d="M22,114.49a3,3,0,0,1-2.3-1.86,2.42,2.42,0,0,1-.93,0,2.73,2.73,0,0,1-2-1.69,4.08,4.08,0,0,1-2.32.31,4.15,4.15,0,0,1-3.4-4.76,3.84,3.84,0,0,1,.11-.46,2.92,2.92,0,0,1-1.62-3,3,3,0,0,1,.08-.32,3.64,3.64,0,0,1-1.4-3.48,3.56,3.56,0,0,1,.58-1.46,4.57,4.57,0,0,1-.63-3.16A4.47,4.47,0,0,1,11,91.08a3.14,3.14,0,0,1,0-.81,3.4,3.4,0,0,1,3.91-2.75l.32.07a3.28,3.28,0,0,1,3-1,3,3,0,0,1,.41.09,4.18,4.18,0,0,1,4.61-2.47,4.41,4.41,0,0,1,2.42,1.22,4.68,4.68,0,0,1,8.61,1.69,5.38,5.38,0,0,1,1.7,0,5,5,0,0,1,4.19,5.59,4.3,4.3,0,0,1,1.6,7.56,4.85,4.85,0,0,1,.46,3,4.61,4.61,0,0,1-3.94,3.94v0a2.55,2.55,0,0,1-.71,1.39,3.74,3.74,0,0,1,.14,1.79,4.3,4.3,0,0,1-5,3.37,4.91,4.91,0,0,1-1.47-.5,4.26,4.26,0,0,1-4.38,1.83,4.64,4.64,0,0,1-2.49-1.21,3,3,0,0,1-2.31.61" transform="translate(65.87 -67.49)"/>
    <path class="cls-4" d="M40.47,100a3.38,3.38,0,0,0-.77-6.43,3,3,0,0,0-.73,0,3.75,3.75,0,0,0,.29-.95A4,4,0,0,0,35.84,88a4.19,4.19,0,0,0-2.37.29,3.85,3.85,0,0,0-7.65-.91A3.35,3.35,0,0,0,23.1,85.1a3.17,3.17,0,0,0-3.75,2.44,2.3,2.3,0,0,0,0,.52,2.47,2.47,0,0,0-1.24-.58,2.24,2.24,0,0,0-2.46,1.24,2.5,2.5,0,0,0-.82-.29,2.45,2.45,0,0,0-2.85,2,2.26,2.26,0,0,0,.18,1.34,3.5,3.5,0,0,0-3,3,3.59,3.59,0,0,0,.9,3,2.76,2.76,0,0,0-.85,1.58,2.69,2.69,0,0,0,1.7,3,1.82,1.82,0,0,0-.37.85,2,2,0,0,0,1.71,2.26,1.14,1.14,0,0,0,.26,0,3.2,3.2,0,0,0,5,4A2.16,2.16,0,0,0,19,111.75a1.73,1.73,0,0,0,1.45-.5,2.23,2.23,0,0,0,1.78,2.33,2.19,2.19,0,0,0,2.21-1.14A3.49,3.49,0,0,0,27,114.18,3.11,3.11,0,0,0,30.73,112c0-.06,0-.13,0-.19a3.71,3.71,0,0,0,2.08,1.08,3.38,3.38,0,0,0,4-2.61,3,3,0,0,0-.36-1.95,1.61,1.61,0,0,0,.83-2.07h.09a3.58,3.58,0,0,0,4-3.14,3.87,3.87,0,0,0-.85-3.14" transform="translate(65.87 -67.49)"/>
    <path class="cls-4" d="M10,95.28a3.6,3.6,0,0,1,0-.8,3.38,3.38,0,0,1,3.91-2.75,2.84,2.84,0,0,1,.31.06,3.27,3.27,0,0,1,3-1,2.71,2.71,0,0,1,.41.09,4.18,4.18,0,0,1,4.61-2.47,4.44,4.44,0,0,1,2.43,1.22,4.79,4.79,0,0,1,4.73-2.18,4.85,4.85,0,0,1,3.88,3.87,5.1,5.1,0,0,1,1.7,0,5,5,0,0,1,4.19,5.58,4.26,4.26,0,0,1,2.67,2,3.37,3.37,0,0,0-2.12-5.36,3,3,0,0,0-.73,0,4.2,4.2,0,0,0,.29-.95A4,4,0,0,0,35.83,88a4.17,4.17,0,0,0-2.36.29,3.85,3.85,0,0,0-7.65-.91A3.35,3.35,0,0,0,23.1,85.1a3.17,3.17,0,0,0-3.75,2.44,2.3,2.3,0,0,0,0,.52,2.51,2.51,0,0,0-1.24-.58,2.24,2.24,0,0,0-2.46,1.24,2.5,2.5,0,0,0-.82-.29,2.45,2.45,0,0,0-2.85,2,2.34,2.34,0,0,0,.17,1.34,3.6,3.6,0,0,0-3,4,4.39,4.39,0,0,1,.91-.48" transform="translate(65.87 -67.49)"/>
    <path class="cls-4" d="M41.31,103.14a4.84,4.84,0,0,1-2.4-.55,4.26,4.26,0,0,1-4.38,1.82,4.58,4.58,0,0,1-2.48-1.21,2.92,2.92,0,0,1-2.31.61,3,3,0,0,1-2.3-1.86,2.47,2.47,0,0,1-.94,0,2.69,2.69,0,0,1-2-1.69,4,4,0,0,1-2.32.31,4.14,4.14,0,0,1-3.4-4.75c0-.16.06-.31.1-.47a2.88,2.88,0,0,1-1.61-3c0-.11,0-.21.07-.32a3.63,3.63,0,0,1-1.39-3.48,3,3,0,0,1,.09-.41,1.94,1.94,0,0,0-.39.6,2.64,2.64,0,0,0-.83-.29,2.47,2.47,0,0,0-2.86,2,2.43,2.43,0,0,0,.18,1.34,3.5,3.5,0,0,0-3,3,3.58,3.58,0,0,0,.9,3,2.76,2.76,0,0,0-.85,1.58,2.69,2.69,0,0,0,1.7,3,1.94,1.94,0,0,0-.38.85,2,2,0,0,0,1.72,2.26,1.18,1.18,0,0,0,.26,0,3.2,3.2,0,0,0,5,4A2.16,2.16,0,0,0,19,111.75a1.74,1.74,0,0,0,1.46-.5,2.23,2.23,0,0,0,1.78,2.33,2.19,2.19,0,0,0,2.21-1.14A3.51,3.51,0,0,0,27,114.18,3.11,3.11,0,0,0,30.73,112c0-.07,0-.13,0-.2a3.71,3.71,0,0,0,2.08,1.08,3.38,3.38,0,0,0,4-2.61,3,3,0,0,0-.36-1.95,1.68,1.68,0,0,0,.93-1.23,1.59,1.59,0,0,0-.1-.84h.09a3.56,3.56,0,0,0,3.94-3.09" transform="translate(65.87 -67.49)"/>
    <path class="cls-3" d="M28.23,89.81A1.56,1.56,0,1,1,30,88.52a1.56,1.56,0,0,1-1.79,1.29" transform="translate(65.87 -67.49)"/>
    <path class="cls-4" d="M29.56,88.45a1.09,1.09,0,1,1-.91-1.26,1.09,1.09,0,0,1,.91,1.26" transform="translate(65.87 -67.49)"/>
    <path class="cls-3" d="M33.94,104.9a1.46,1.46,0,0,1-1.2-1.66,1.45,1.45,0,1,1,1.2,1.66" transform="translate(65.87 -67.49)"/>
    <path class="cls-4" d="M35.14,103.63a1,1,0,0,1-1.94-.31,1,1,0,1,1,1.94.31" transform="translate(65.87 -67.49)"/>
    <path class="cls-3" d="M21.63,101.32a2.2,2.2,0,1,1,2.52-1.82,2.2,2.2,0,0,1-2.52,1.82" transform="translate(65.87 -67.49)"/>
    <path class="cls-4" d="M23.7,99.43a1.74,1.74,0,1,1-1.44-2,1.75,1.75,0,0,1,1.44,2" transform="translate(65.87 -67.49)"/>
    <path class="cls-3" d="M26.55,99.9a1.22,1.22,0,1,1,1.4-1,1.23,1.23,0,0,1-1.4,1" transform="translate(65.87 -67.49)"/>
    <path class="cls-4" d="M27.49,98.81A.75.75,0,1,1,26,98.57a.75.75,0,1,1,1.49.24" transform="translate(65.87 -67.49)"/>
    <path class="cls-3" d="M26.68,111a1,1,0,0,1-.8-1.11,1,1,0,0,1,1.11-.8,1,1,0,1,1-.31,1.91" transform="translate(65.87 -67.49)"/>
    <path class="cls-4" d="M27.33,110.08a.5.5,0,0,1-.58.42.51.51,0,0,1-.42-.58.52.52,0,0,1,.58-.42.51.51,0,0,1,.42.58" transform="translate(65.87 -67.49)"/>
    <path class="cls-3" d="M35.5,93.26a1,1,0,0,1-.8-1.11,1,1,0,1,1,.8,1.11" transform="translate(65.87 -67.49)"/>
    <path class="cls-4" d="M36.15,92.38a.5.5,0,1,1-1-.16.5.5,0,1,1,1,.16" transform="translate(65.87 -67.49)"/>
    <path class="cls-3" d="M-4.14,109.48A4.81,4.81,0,0,1-8.06,106a4.21,4.21,0,0,1-2.3.28,4.38,4.38,0,0,1-3.56-3.55,5,5,0,0,1-2.29-5.13,5.21,5.21,0,0,1,.76-2,3.5,3.5,0,0,1-1-2.93A3.43,3.43,0,0,1-15,90.39a5.45,5.45,0,0,1-.64-3.51A5.7,5.7,0,0,1-9,82.31a5.94,5.94,0,0,1,1.44.41,5,5,0,0,1,5-2.69A4.6,4.6,0,0,1,.64,82.26,5.57,5.57,0,0,1,5.25,81a5.66,5.66,0,0,1,3.6,2.07,4.09,4.09,0,0,1,6.48,1.82,5.26,5.26,0,0,1,1.12,0,4.87,4.87,0,0,1,4.09,5.51,4.72,4.72,0,0,1-1.89,3.06,5.06,5.06,0,0,1,1,3.9,5,5,0,0,1-3.14,3.87,4,4,0,0,1-3.11,5.64,3.44,3.44,0,0,1-5.67,1.46,6.17,6.17,0,0,1-1.57.08A4.52,4.52,0,0,1,2,109.89a4.82,4.82,0,0,1-2.53-1.22,4.85,4.85,0,0,1-3.59.81" transform="translate(65.87 -67.49)"/>
    <path class="cls-4" d="M18.76,97.26a4,4,0,0,0-1.66-4,3.85,3.85,0,0,0,2.53-3,3.94,3.94,0,0,0-3.33-4.46,4.1,4.1,0,0,0-1.68.09A3.17,3.17,0,0,0,8.7,84.67a4.56,4.56,0,0,0-3.6-2.76A4.35,4.35,0,0,0,.4,84.07a4,4,0,0,0-3.09-3.13A4.23,4.23,0,0,0-7.13,84a5,5,0,0,0-2-.78A4.76,4.76,0,0,0-14.69,87a4.49,4.49,0,0,0,1.08,3.7,2.68,2.68,0,0,0-1.88,2.06,2.72,2.72,0,0,0,1.3,2.65,4.37,4.37,0,0,0-1.11,2.29,4,4,0,0,0,2.22,4.36,3.52,3.52,0,0,0,2.87,3.26,3.39,3.39,0,0,0,3-1A3.79,3.79,0,0,0-4,108.57a3.91,3.91,0,0,0,3.54-1.22A3.73,3.73,0,0,0,2.13,109a3.47,3.47,0,0,0,3.6-1.5,5,5,0,0,0,2.34-.14,2.56,2.56,0,0,0,1.68,1,2.43,2.43,0,0,0,2.83-1.94,3,3,0,0,0,0-.42A3.14,3.14,0,0,0,16,103.45a3.07,3.07,0,0,0-1-2.79,4,4,0,0,0,3.83-3.4" transform="translate(65.87 -67.49)"/>
    <path class="cls-4" d="M-9.6,85.89a5.75,5.75,0,0,1,1.43.42,5,5,0,0,1,5-2.69A4.62,4.62,0,0,1,0,85.85a5.57,5.57,0,0,1,4.61-1.26,5.61,5.61,0,0,1,3.6,2.07,4.09,4.09,0,0,1,6.48,1.82,5.29,5.29,0,0,1,1.12,0,5,5,0,0,1,3.57,2.53,3.81,3.81,0,0,0,.22-.75,3.94,3.94,0,0,0-3.33-4.46,4.1,4.1,0,0,0-1.68.09,3.17,3.17,0,0,0-5.93-1.27A4.53,4.53,0,0,0,5.1,81.91,4.35,4.35,0,0,0,.4,84.07a4,4,0,0,0-3.09-3.13A4.23,4.23,0,0,0-7.13,84a5.17,5.17,0,0,0-2-.78A4.77,4.77,0,0,0-14.7,87c0,.18,0,.36-.05.54A5.91,5.91,0,0,1-9.6,85.89" transform="translate(65.87 -67.49)"/>
    <path class="cls-4" d="M14.76,101.87A3.36,3.36,0,0,1,11,104.24a3.42,3.42,0,0,1-1.85-.91,6.24,6.24,0,0,1-1.58.07,4.48,4.48,0,0,1-4.19,1.43A4.82,4.82,0,0,1,.8,103.61a4.85,4.85,0,0,1-3.59.81,4.82,4.82,0,0,1-3.93-3.51A4.17,4.17,0,0,1-9,101.2a4.4,4.4,0,0,1-3.57-3.56,4.46,4.46,0,0,1-1.81-2,4.38,4.38,0,0,0-.91,2,4,4,0,0,0,2.22,4.36,3.52,3.52,0,0,0,2.87,3.26,3.39,3.39,0,0,0,3-1A3.79,3.79,0,0,0-4,108.57a3.91,3.91,0,0,0,3.54-1.22A3.73,3.73,0,0,0,2.13,109a3.5,3.5,0,0,0,3.61-1.5,4.94,4.94,0,0,0,2.33-.14,2.54,2.54,0,0,0,1.68,1,2.41,2.41,0,0,0,2.82-1.94,2,2,0,0,0,0-.42,3.12,3.12,0,0,0,3.34-2.58,3,3,0,0,0-.27-1.82,4.51,4.51,0,0,1-.91.24" transform="translate(65.87 -67.49)"/>
    <path class="cls-3" d="M-8.1,76.59a2.46,2.46,0,0,0-1.17-.85,2.52,2.52,0,0,0-1.49,0,2.46,2.46,0,0,0-.83.44,2.72,2.72,0,0,0-1-1.27,2.86,2.86,0,0,0-2.08-.52,2.76,2.76,0,0,0-1.81,1.07A2.46,2.46,0,0,0-17,77.38a2.64,2.64,0,0,1,.77-1.69A2.5,2.5,0,0,1-14.61,75a2.48,2.48,0,0,1,1.63.47,2.46,2.46,0,0,1,.9,1.41l.16.72.44-.58a2,2,0,0,1,.91-.69A2.12,2.12,0,0,1-9.4,76.2a2.36,2.36,0,0,1,1.09.58,2.38,2.38,0,0,1,.65,1.12,2.22,2.22,0,0,0-.44-1.31" transform="translate(65.87 -67.49)"/>
    <path class="cls-3" d="M16.52,80a1.31,1.31,0,0,1,.75-.86,1.64,1.64,0,0,1,2.12.81,1.3,1.3,0,0,1,0,1.14,1.91,1.91,0,0,0-1.13-1.33,1.72,1.72,0,0,0-.82-.1,2.13,2.13,0,0,0-.91.34" transform="translate(65.87 -67.49)"/>
    <path class="cls-3" d="M14,79.53a2,2,0,0,0-1-.64,2,2,0,0,0-1.24.07,2.12,2.12,0,0,0-.61.37,2.32,2.32,0,0,0-.88-.93,2.39,2.39,0,0,0-1.77-.28,2.29,2.29,0,0,0-1.42,1,2,2,0,0,0-.23,1.63,2.18,2.18,0,0,1,.54-1.4,2,2,0,0,1,1.22-.66A1.89,1.89,0,0,1,10.69,80l.22.7.39-.61a1.62,1.62,0,0,1,.66-.61,1.69,1.69,0,0,1,.92-.15,1.89,1.89,0,0,1,1.54,1.22,1.84,1.84,0,0,0-.43-1" transform="translate(65.87 -67.49)"/>
    <path class="cls-3" d="M-26.16,86.12a2.28,2.28,0,0,1,.61-1.68,2.53,2.53,0,0,1,1.69-.84,2.57,2.57,0,0,1,1.82.51,2.24,2.24,0,0,1,.9,1.54,3.24,3.24,0,0,0-1.19-1.09,2.8,2.8,0,0,0-1.47-.27,2.66,2.66,0,0,0-1.38.54,3.15,3.15,0,0,0-1,1.29" transform="translate(65.87 -67.49)"/>
    <path class="cls-3" d="M-31.59,90.74a3.58,3.58,0,0,0-2.53.61,3.72,3.72,0,0,0-1.51,2.18,3.93,3.93,0,0,0,.07,2.15,2,2,0,0,0-.68.15,1.88,1.88,0,0,0-.9.79,2,2,0,0,0-.27,1.13,1.81,1.81,0,0,0,.43,1,1.79,1.79,0,0,1,.16-1.92,1.53,1.53,0,0,1,.76-.53,1.33,1.33,0,0,1,.88,0l.62.23-.26-.64A3.5,3.5,0,0,1-35,93.7a3.35,3.35,0,0,1,1.22-1.84,3.4,3.4,0,0,1,2.13-.69,3.89,3.89,0,0,1,2.22.8,3.44,3.44,0,0,0-2.19-1.23" transform="translate(65.87 -67.49)"/>
    <path class="cls-3" d="M-18.24,90.5a2.45,2.45,0,0,0-1.41-.34A2.43,2.43,0,0,0-21,90.7a2.48,2.48,0,0,0-.6.72,2.86,2.86,0,0,0-1.4-.8,2.83,2.83,0,0,0-2.13.31,2.75,2.75,0,0,0-1.27,1.67,2.48,2.48,0,0,0,.29,2,2.69,2.69,0,0,1,.07-1.86,2.52,2.52,0,0,1,1.2-1.27,2.44,2.44,0,0,1,1.68-.18,2.44,2.44,0,0,1,1.37,1l.41.6.19-.7a2,2,0,0,1,.58-1,2.1,2.1,0,0,1,1.06-.53,2.24,2.24,0,0,1,1.22.13,2.33,2.33,0,0,1,1,.79,2.23,2.23,0,0,0-.9-1" transform="translate(65.87 -67.49)"/>
    <path class="cls-3" d="M-20,99a2.75,2.75,0,0,0-1.58-.25,2.67,2.67,0,0,0-1.49.71,2.42,2.42,0,0,0-.64,1,2.61,2.61,0,0,0-1.39-.4,2.67,2.67,0,0,0-1.8.72,3.1,3.1,0,0,0-.59.77,2.9,2.9,0,0,0-.29.89,2.63,2.63,0,0,0,.32,1.77,2.85,2.85,0,0,1,.92-3,2.25,2.25,0,0,1,1.43-.48,2.07,2.07,0,0,1,1.37.56l.5.45.07-.66a2,2,0,0,1,.54-1.13,2.36,2.36,0,0,1,1.15-.65,2.69,2.69,0,0,1,2.6.79A2.43,2.43,0,0,0-20,99" transform="translate(65.87 -67.49)"/>
    <path class="cls-3" d="M34.05,99a1.25,1.25,0,0,1,.53-1,1.55,1.55,0,0,1,1.18-.32,1.57,1.57,0,0,1,1.06.6,1.3,1.3,0,0,1,.26,1.11,1.89,1.89,0,0,0-1.41-1,1.78,1.78,0,0,0-.82.09,2.1,2.1,0,0,0-.8.55" transform="translate(65.87 -67.49)"/>
    <path class="cls-3" d="M31.39,94a1.66,1.66,0,0,0-.73-.73,1.69,1.69,0,0,0-1.06-.18,2.11,2.11,0,0,0-.55.19,3.41,3.41,0,0,0-1-1.61,3.29,3.29,0,0,0-2.18-.92,3.16,3.16,0,0,0-2.19.77,3,3,0,0,0-1,2A3.42,3.42,0,0,1,24,91.82a3,3,0,0,1,1.9-.48,2.91,2.91,0,0,1,1.74.79,3.06,3.06,0,0,1,.93,1.69l.12.68.4-.53a1.2,1.2,0,0,1,.63-.42,1.45,1.45,0,0,1,.8,0,1.58,1.58,0,0,1,1,1.34,1.53,1.53,0,0,0-.14-1" transform="translate(65.87 -67.49)"/>
    <path class="cls-3" d="M29.29,105.24a2.87,2.87,0,0,0-3.18-.74,3,3,0,0,0-1,.65,3.29,3.29,0,0,0-1.31-1.45,3.33,3.33,0,0,0-2.46-.4,3.2,3.2,0,0,0-2,1.4A3,3,0,0,0,19,107a3.17,3.17,0,0,1,.72-2.08,3,3,0,0,1,1.81-1,2.87,2.87,0,0,1,2,.4,2.82,2.82,0,0,1,1.22,1.61l.21.7.4-.62a2.39,2.39,0,0,1,1-.91,2.52,2.52,0,0,1,1.41-.21,2.67,2.67,0,0,1,1.34.6,2.82,2.82,0,0,1,.86,1.27,2.66,2.66,0,0,0-.66-1.48" transform="translate(65.87 -67.49)"/>
    <path class="cls-3" d="M14.38,96.7a2,2,0,0,0-.61-1,2,2,0,0,0-1.11-.45,1.84,1.84,0,0,0-.7.08,3.87,3.87,0,0,0-.63-2.06A3.7,3.7,0,0,0,9.2,91.72,3.65,3.65,0,0,0,6.6,92a3.5,3.5,0,0,0-1.67,1.87,3.88,3.88,0,0,1,1.85-1.47,3.35,3.35,0,0,1,4,1.3,3.61,3.61,0,0,1,.58,2.14l0,.69.51-.41a1.3,1.3,0,0,1,.83-.3,1.62,1.62,0,0,1,.89.26,1.77,1.77,0,0,1,.77,1.76,1.78,1.78,0,0,0,.08-1.1" transform="translate(65.87 -67.49)"/>
    <path class="cls-3" d="M3.2,100.38a2.86,2.86,0,0,0-1.35-.9,2.83,2.83,0,0,0-1.68,0,2.78,2.78,0,0,0-.95.56A3.21,3.21,0,0,0-2,98.64a3.21,3.21,0,0,0-2.35-.5,3.07,3.07,0,0,0-2,1.26,2.82,2.82,0,0,0-.49,2.2,3,3,0,0,1,.79-2,2.8,2.8,0,0,1,1.78-.91,2.79,2.79,0,0,1,1.89.47,2.74,2.74,0,0,1,1.1,1.6l.18.71.42-.6a2.4,2.4,0,0,1,1-.83A2.38,2.38,0,0,1,1.73,100a2.52,2.52,0,0,1,1.26.63,2.68,2.68,0,0,1,.77,1.26,2.52,2.52,0,0,0-.56-1.46" transform="translate(65.87 -67.49)"/>
    <path class="cls-3" d="M-.44,89.4a2.76,2.76,0,0,0-1.36-.84,2.74,2.74,0,0,0-1.65.06,2.57,2.57,0,0,0-1,.64,2.65,2.65,0,0,0-1.13-.91,2.65,2.65,0,0,0-1.94,0,2.88,2.88,0,0,0-.84.47,3,3,0,0,0-.62.72,2.6,2.6,0,0,0-.39,1.75,2.84,2.84,0,0,1,2-2.4,2.2,2.2,0,0,1,1.5.11,2,2,0,0,1,1,1.05l.29.61.32-.58a2.05,2.05,0,0,1,.94-.83,2.33,2.33,0,0,1,1.31-.15A2.71,2.71,0,0,1,.18,90.8a2.42,2.42,0,0,0-.62-1.4" transform="translate(65.87 -67.49)"/>
    <path class="cls-3" d="M4.69,89.07a1.72,1.72,0,1,1,2-1.43,1.73,1.73,0,0,1-2,1.43" transform="translate(65.87 -67.49)"/>
    <path class="cls-4" d="M6.21,87.57a1.26,1.26,0,1,1-1-1.45,1.27,1.27,0,0,1,1,1.45" transform="translate(65.87 -67.49)"/>
    <path class="cls-3" d="M10,90A1.33,1.33,0,0,1,8.89,88.5a1.32,1.32,0,0,1,1.51-1.09,1.3,1.3,0,0,1,1.09,1.5A1.32,1.32,0,0,1,10,90" transform="translate(65.87 -67.49)"/>
    <path class="cls-4" d="M11,88.84a.86.86,0,0,1-1,.71.86.86,0,0,1,.27-1.69.86.86,0,0,1,.71,1" transform="translate(65.87 -67.49)"/>
    <path class="cls-3" d="M9.56,105a1.72,1.72,0,1,1,.55-3.4,1.72,1.72,0,0,1-.55,3.4" transform="translate(65.87 -67.49)"/>
    <path class="cls-4" d="M11.08,103.45a1.26,1.26,0,0,1-1.45,1,1.24,1.24,0,0,1-1-1.44,1.26,1.26,0,1,1,2.49.4" transform="translate(65.87 -67.49)"/>
    <path class="cls-3" d="M-3.84,95.45A1.4,1.4,0,0,1-5,93.85a1.4,1.4,0,0,1,1.6-1.16,1.4,1.4,0,0,1,1.16,1.6,1.4,1.4,0,0,1-1.6,1.16" transform="translate(65.87 -67.49)"/>
    <path class="cls-4" d="M-2.69,94.22A1,1,0,0,1-3.77,95a.94.94,0,0,1-.77-1.08.92.92,0,0,1,1.07-.77.94.94,0,0,1,.78,1.07" transform="translate(65.87 -67.49)"/>
    <path class="cls-3" d="M-8.93,97.85a2.22,2.22,0,0,1-1.83-2.54,2.21,2.21,0,0,1,2.53-1.83A2.22,2.22,0,0,1-6.39,96a2.22,2.22,0,0,1-2.54,1.83" transform="translate(65.87 -67.49)"/>
    <path class="cls-4" d="M-6.85,95.94a1.74,1.74,0,0,1-2,1.45,1.75,1.75,0,0,1-1.45-2,1.75,1.75,0,0,1,2-1.45,1.74,1.74,0,0,1,1.45,2" transform="translate(65.87 -67.49)"/>
    <path class="cls-3" d="M-1.77,133.66c-6.1-1-10.6-2.19-12.85-8.83l.66-.23c2,5.79,5.38,7.26,12.3,8.38,5.51.88,7.9-.68,8.42-1.11l-.38-3.05,1.11,3.31-.11.12c-.09.1-2.44,2.49-9.15,1.41" transform="translate(65.87 -67.49)"/>
    <path class="cls-3" d="M-3.84,137l0-2.24.29,0a6,6,0,0,0,1.57.1,4.61,4.61,0,0,0,.06-1.55l.69-.06c.11,1.28,0,2-.4,2.21a4,4,0,0,1-1.73,0Z" transform="translate(65.87 -67.49)"/>
    <path class="cls-3" d="M-23.72,136.81a1.06,1.06,0,0,1-.39-.13l.47-.79-.48.79c-.18-.12-1.88-1.13-3.54-2.17-4-2.48-4.92-3.07-4.3-4.81.35-1,.78-1.26,11.18-4.91,2.33-.82,3.69-.16,3.89,1.07a2.55,2.55,0,0,1-1.34,2.44l-2.69.93c-1.71.59-3.36,1.16-4.71,1.65,1.09.69,2.38,1.48,3.65,2.24a.91.91,0,0,1,.32,1.26l-1.19,2a.91.91,0,0,1-.56.42.84.84,0,0,1-.31,0" transform="translate(65.87 -67.49)"/>
    <path class="cls-4" d="M11.57,133.92a14,14,0,0,1-3.41-1l.93-2.11-.47,1.06.46-1.06a13.64,13.64,0,0,0,4.79,1,7.85,7.85,0,0,0,7.38-4.17l2,1.14c-2.9,5.08-7.88,5.78-11.69,5.16" transform="translate(65.87 -67.49)"/>
    <path class="cls-3" d="M-27,143.7l-.16,0c-.48-.11-.89-.5-1.33-1.25s-1.45-3-1.13-4.11A2.46,2.46,0,0,1-27,137a2.2,2.2,0,0,1,.37.06,4.32,4.32,0,0,1,1.55-3,9.56,9.56,0,0,1,1.86-1.19.92.92,0,0,1,.46-.08.86.86,0,0,1,.23.06s1,.36,1.71.68a2.33,2.33,0,0,1,1.21,2.34c-.46,3.57-1,4.21-1.23,4.42-.67.75-4.87,3.58-6.19,3.46" transform="translate(65.87 -67.49)"/>
    <path class="cls-4" d="M-22.86,133.66s.95.35,1.66.67a1.45,1.45,0,0,1,.67,1.37c-.16,1.25-.52,3.39-1,3.93-.68.74-4.75,3.31-5.46,3.14s-2-3.39-1.79-4.2,2.46-1.15,3.11.21c0,0-.56-2.71,1.14-4a9.69,9.69,0,0,1,1.67-1.08" transform="translate(65.87 -67.49)"/>
    <path class="cls-4" d="M-20.94,138.05a3.3,3.3,0,0,1-3.27.3,2.11,2.11,0,0,1-1.39-1.88,5.82,5.82,0,0,0-.07,2.31c-.65-1.36-2.87-1-3.11-.21s1.07,4,1.79,4.2,4.78-2.4,5.46-3.14a4.16,4.16,0,0,0,.59-1.58" transform="translate(65.87 -67.49)"/>
    <path class="cls-4" d="M31.64,124.87c-.43-1.1-1.74-1.15-3-.5a21.6,21.6,0,0,0-2.49,1.52l-.15-.14a11.31,11.31,0,0,0,2.6-2.42c1.12-1.53,1.42-2.47.41-3.33s-2.36-.21-3.3,1.14a24.58,24.58,0,0,0-1.76,3l-.16-.1a10.94,10.94,0,0,0,1.31-3.43c.29-1.75.15-2.65-1.06-3s-2.06.83-2.28,2.35a23.28,23.28,0,0,0-.18,2.77,3.22,3.22,0,0,0-.3.91c-1.26-4-4-2.65-4.42-1.83s2.07,2.83,2.07,2.83c-1.11,2.56.7,3.7,2.44,4.8,2.7,1.73,4.16,1.23,5.69-1.08a1.23,1.23,0,0,0,.18-.43,9.55,9.55,0,0,0,2.73-.74c1.51-.72,2.13-1.32,1.71-2.42" transform="translate(65.87 -67.49)"/>
    <path class="cls-4" d="M28,124.69c-.79.44-1.5.93-1.89,1.2l-.15-.14a13.79,13.79,0,0,0,1.78-1.48,2.77,2.77,0,0,1-2.69-2.18c-.52.85-.93,1.67-1.12,2,.26.15.52.32.8.52a7,7,0,0,1,2.41,3.54.84.84,0,0,0,.05-.17,9.71,9.71,0,0,0,2.46-.63c-.87-.19-2-.81-1.65-2.71" transform="translate(65.87 -67.49)"/>
    <path class="cls-4" d="M24.77,121.81a2.27,2.27,0,0,1-3.18-.39c0,.53,0,1-.05,1.41a1.24,1.24,0,0,0-.17.38,6.55,6.55,0,0,1,2.4.84,13,13,0,0,0,1-2.24" transform="translate(65.87 -67.49)"/>
    <path class="cls-3" d="M22,127.25a1.54,1.54,0,0,0,1.18-1.54c-.07-1.21-1.83-1.3-1.85-1.3h-.27l.05-.27a3.17,3.17,0,0,0-.54-1.95L21,122a4.27,4.27,0,0,1,.62,2c.79.09,2,.54,2.06,1.71.08,1.64-1.65,1.57-1.65,1.57" transform="translate(65.87 -67.49)"/>
    <path class="cls-3" d="M21.83,123.29a10.41,10.41,0,0,1,5,4.07s-.44-3.62-5-4.07" transform="translate(65.87 -67.49)"/>
    <path class="cls-4" d="M-20.17,125.55c-9.57,3.35-10.71,3.83-10.92,4.45-.37,1.05.2,1.41,3.92,3.73,1.74,1.08,3.51,2.15,3.53,2.16l1.19-2c-1.89-1.13-3.92-2.39-5.26-3.25,1.78-.68,4.83-1.72,7.82-2.76,0,0,.84-.31.89.67l.49.21s1.5-.49.88-2.47c-.09-.29-.59-1.44-2.54-.76" transform="translate(65.87 -67.49)"/>
    <path class="cls-3" d="M9.21,133.34l.21-1.3a2.64,2.64,0,0,1,.53,2.49Z" transform="translate(65.87 -67.49)"/>
  </g>
  <rect class="cls-3" x="22.54" y="121.77" width="4.73" height="0.46" transform="translate(-29.73 23.16) rotate(-63.88)"/>
  <rect class="cls-3" x="25.51" y="124.28" width="4.44" height="0.46" transform="translate(-2.82 -26.5) rotate(-36.55)"/>
  <g>
    <path class="cls-4" d="M5.25,112.52a6,6,0,0,0-4.8,1.36,7,7,0,0,0-4.64-2.94,7,7,0,0,0-8,5.8,7,7,0,0,0,5.8,8,7,7,0,0,0,5.3-1.31A6.09,6.09,0,0,0,3,126.29c3.44.55,6.73-2.09,7.35-5.88s-1.69-7.34-5.13-7.89" transform="translate(65.87 -67.49)"/>
    <path class="cls-3" d="M2.84,127.34a6.05,6.05,0,0,1-4.14-2.83,7,7,0,0,1-5.3,1.31,7,7,0,0,1-5.8-8,7,7,0,0,1,8-5.8,7.06,7.06,0,0,1,4.64,2.94,6,6,0,0,1,4.8-1.36c3.43.55,5.73,4.09,5.12,7.89s-3.9,6.43-7.34,5.88" transform="translate(65.87 -67.49)"/>
    <path class="cls-5" d="M5,114.25A5.46,5.46,0,0,0,.11,116a6.26,6.26,0,0,0-4.6-3.34,6.3,6.3,0,0,0-7.23,5.22,6.33,6.33,0,0,0,5.23,7.24,6.31,6.31,0,0,0,5.39-1.71A5.47,5.47,0,0,0,3,126.66c3.07.49,6-1.89,6.55-5.31S8,114.75,5,114.25" transform="translate(65.87 -67.49)"/>
    <path class="cls-5" d="M-4.79,114.3a7,7,0,0,1,4.64,2.93,6,6,0,0,1,4.79-1.36,6.29,6.29,0,0,1,4.94,4.64A5.89,5.89,0,0,0,5,114.25,5.46,5.46,0,0,0,.11,116a6.26,6.26,0,0,0-4.6-3.34,6.32,6.32,0,0,0-7,4.32,7,7,0,0,1,6.71-2.7" transform="translate(65.87 -67.49)"/>
    <path class="cls-3" d="M-5.11,119.13a1.09,1.09,0,0,1-1.24.9,1.08,1.08,0,0,1-.9-1.25,1.09,1.09,0,0,1,1.24-.9,1.1,1.1,0,0,1,.9,1.25" transform="translate(65.87 -67.49)"/>
    <path class="cls-3" d="M4.51,120.68a1.09,1.09,0,1,1-.9-1.25,1.1,1.1,0,0,1,.9,1.25" transform="translate(65.87 -67.49)"/>
    <path class="cls-3" d="M-19.54,153.91A5.52,5.52,0,0,1-18,157.27s.67-1.81-1-4.21Z" transform="translate(65.87 -67.49)"/>
    <path class="cls-6" d="M-15.57,132.27a2.32,2.32,0,0,1-2.3,2.32H-35.49a2.33,2.33,0,0,1-2.32-2.32V128a2.32,2.32,0,0,1,2.32-2.3h17.62a2.31,2.31,0,0,1,2.3,2.3ZM-18.5,160.4a2.3,2.3,0,0,1-2.31,2.3H-35.49a2.32,2.32,0,0,1-2.32-2.3V139.81a2.33,2.33,0,0,1,2.32-2.31h14.68a2.31,2.31,0,0,1,2.31,2.31Zm-10-49.85a2.59,2.59,0,0,1,2.56,2c1.05,3-2.52,7.07-4.7,8.6a8.08,8.08,0,0,1-4.23,1.58c-1.47,0-2.63-.84-2.63-3.24,0-3.27,5.47-8.89,9-8.89m-15.39,12.13h0c-3.28,0-8.9-5.47-8.9-9a2.58,2.58,0,0,1,2-2.55,3.47,3.47,0,0,1,1.14-.2c2.8,0,6.12,3,7.46,4.89,1.81,2.58,2.95,6.86-1.65,6.86m3.15,9.59A2.32,2.32,0,0,1-43,134.59H-60.65A2.33,2.33,0,0,1-63,132.27V128a2.32,2.32,0,0,1,2.31-2.3H-43a2.31,2.31,0,0,1,2.31,2.3Zm0,28.13A2.3,2.3,0,0,1-43,162.7H-57.73A2.32,2.32,0,0,1-60,160.4V139.81a2.33,2.33,0,0,1,2.32-2.31H-43a2.31,2.31,0,0,1,2.31,2.31ZM-18,122.69h-9.64c2.48-2.19,6.25-6.77,4.66-11.23a5.69,5.69,0,0,0-5.46-4c-3.51,0-6.78,2.88-8,4.13a17.73,17.73,0,0,0-2.64,3.35c-.18-.31-.37-.62-.56-.89-1.75-2.49-5.86-6.2-10-6.2a6.76,6.76,0,0,0-2.19.37,5.72,5.72,0,0,0-3.89,6.65c.47,2.7,2.58,5.66,5.13,7.82h-9.85a5.39,5.39,0,0,0-5.38,5.38V133A5.33,5.33,0,0,0-64,137a2.24,2.24,0,0,1,.75,1.7v21.47a5.41,5.41,0,0,0,5.38,5.4h37.16a5.42,5.42,0,0,0,5.4-5.4V138.74a2.23,2.23,0,0,1,.73-1.7A5.32,5.32,0,0,0-12.65,133v-4.89a5.42,5.42,0,0,0-5.4-5.38" transform="translate(65.87 -67.49)"/>
    <path class="cls-5" d="M-40.73,128v4.3A2.32,2.32,0,0,1-43,134.59H-60.65A2.33,2.33,0,0,1-63,132.27V128a2.32,2.32,0,0,1,2.32-2.3H-43a2.31,2.31,0,0,1,2.31,2.3" transform="translate(65.87 -67.49)"/>
    <path class="cls-5" d="M-15.57,128v4.3a2.32,2.32,0,0,1-2.3,2.32H-35.49a2.33,2.33,0,0,1-2.32-2.32V128a2.32,2.32,0,0,1,2.32-2.3h17.62a2.31,2.31,0,0,1,2.3,2.3" transform="translate(65.87 -67.49)"/>
    <path class="cls-5" d="M-18.5,139.81V160.4a2.3,2.3,0,0,1-2.31,2.3H-35.49a2.32,2.32,0,0,1-2.32-2.3V139.81a2.33,2.33,0,0,1,2.32-2.31h14.68a2.31,2.31,0,0,1,2.31,2.31" transform="translate(65.87 -67.49)"/>
    <path class="cls-5" d="M-40.73,139.81V160.4A2.3,2.3,0,0,1-43,162.7H-57.73A2.32,2.32,0,0,1-60,160.4V139.81a2.33,2.33,0,0,1,2.32-2.31H-43a2.31,2.31,0,0,1,2.31,2.31" transform="translate(65.87 -67.49)"/>
  </g>
</svg>
