<svg xmlns="http://www.w3.org/2000/svg" viewBox="0 0 157.15 155.72"><defs><style>.cls-1{fill:#a32a68;}.cls-2{fill:#d9569a;}.cls-3{isolation:isolate;}.cls-4{fill:#fff;}</style></defs><g id="purple"><g id="Group_1160" data-name="Group 1160"><path id="Path_934" data-name="Path 934" class="cls-1" d="M157.12,149.93s-.67-1.84-.67-18.31c0-11.64-1-34-1.55-46.05a21,21,0,0,0-6.48-14.13L87.06,9.13A22.74,22.74,0,0,0,71.9,2.87L23.71.42,4.42,0s48.8,42.22,97.69,89.89S157.12,149.93,157.12,149.93Z" transform="translate(0 0)"/><path id="Path_926" data-name="Path 926" class="cls-2" d="M4.48,0C2.29.56.94,3,0,6H11.32L4.48,0" transform="translate(0 0)"/><path id="Path_938" data-name="Path 938" class="cls-2" d="M148.33,138.24l0,17.48c5.15-1.3,9.18-3.37,8.75-5.79C155.31,146.5,148.33,138.24,148.33,138.24Z" transform="translate(0 0)"/></g></g><g id="on_sale_OL" data-name="on sale OL"><g id="SALE"><g class="cls-3"><path class="cls-4" d="M72.33,35.68a5.83,5.83,0,0,1,0-3.1,6.4,6.4,0,0,1,4.43-4.42,5.79,5.79,0,0,1,3.09,0,6.36,6.36,0,0,1,4.33,4.33,5.75,5.75,0,0,1,0,3.08A6.45,6.45,0,0,1,79.75,40a5.89,5.89,0,0,1-3.09,0,6.42,6.42,0,0,1-4.33-4.33Zm4.79,2.2A3.36,3.36,0,0,0,79,37.81a4.58,4.58,0,0,0,1.8-1.16A4.34,4.34,0,0,0,82,34.85,3.23,3.23,0,0,0,82,33a4,4,0,0,0-2.67-2.67,3.35,3.35,0,0,0-1.88.06,5,5,0,0,0-3,2.95,3.3,3.3,0,0,0-.07,1.89,3.65,3.65,0,0,0,1,1.68A3.57,3.57,0,0,0,77.12,37.88Z" transform="translate(0 0)"/><path class="cls-4" d="M86.74,51l-1.68-1.68,2-9.57-5.76,5.75-1.68-1.68,8.4-8.4,1.68,1.68-2,9.58,5.77-5.77,1.69,1.69Z" transform="translate(0 0)"/><path class="cls-4" d="M92.8,56.65a3.71,3.71,0,0,1-.25-2,3.2,3.2,0,0,1,.91-1.75l1.81,1.8a1.66,1.66,0,0,0-.46,1.18,1.86,1.86,0,0,0,.61,1.21,2,2,0,0,0,1.21.64,1.32,1.32,0,0,0,1.08-.4,1.21,1.21,0,0,0,.38-.84,2.34,2.34,0,0,0-.19-.95,13.79,13.79,0,0,0-.64-1.25,15,15,0,0,1-.85-1.8,3.27,3.27,0,0,1-.17-1.59,2.85,2.85,0,0,1,.9-1.64,3.28,3.28,0,0,1,1.67-.92,3.31,3.31,0,0,1,1.9.2,5.35,5.35,0,0,1,1.83,1.24A4.77,4.77,0,0,1,104,52.54a3.31,3.31,0,0,1-.87,2.66l-1.85-1.85a1.38,1.38,0,0,0,.35-1.08,1.92,1.92,0,0,0-.63-1.19,1.63,1.63,0,0,0-1-.54A1.28,1.28,0,0,0,99,51a1,1,0,0,0-.34.78,2.41,2.41,0,0,0,.19.92,14,14,0,0,0,.62,1.25,14.5,14.5,0,0,1,.85,1.81,3.47,3.47,0,0,1,.17,1.61A2.86,2.86,0,0,1,99.56,59a3.37,3.37,0,0,1-3.54.79,4.8,4.8,0,0,1-1.94-1.25A5.48,5.48,0,0,1,92.8,56.65Z" transform="translate(0 0)"/><path class="cls-4" d="M105.33,66.41,102,63.07l-2.16,1.05-1.76-1.77L109.49,57l2,2-5.39,11.42-1.78-1.78Zm.89-1.8,2.29-4.72-4.72,2.29Z" transform="translate(0 0)"/><path class="cls-4" d="M110.21,71.82,113,74.59l-1.33,1.33-4.45-4.44,8.39-8.4,1.68,1.69Z" transform="translate(0 0)"/><path class="cls-4" d="M121.42,71.64l-2.1,2.11,2.82,2.82-1.33,1.34L118,75.08l-2.22,2.22L119,80.49l-1.37,1.37L112.71,77l8.4-8.4L126,73.46l-1.37,1.37Z" transform="translate(0 0)"/></g></g></g></svg>