<svg xmlns="http://www.w3.org/2000/svg" viewBox="0 0 157.15 155.72"><defs><style>.cls-1{fill:#c1c1c1;}.cls-2{fill:#dadada;}.cls-3{isolation:isolate;}.cls-4{fill:#fff;}</style></defs><g id="grey"><g id="Group_1160" data-name="Group 1160"><path id="Path_934" data-name="Path 934" class="cls-1" d="M157.12,149.93s-.67-1.84-.67-18.31c0-11.64-1-34-1.55-46.05a21,21,0,0,0-6.48-14.13L87.06,9.13A22.74,22.74,0,0,0,71.9,2.87L23.71.42,4.42,0s48.8,42.22,97.69,89.89S157.12,149.93,157.12,149.93Z" transform="translate(0 0)"/><path id="Path_926" data-name="Path 926" class="cls-2" d="M4.48,0C2.29.56.94,3,0,6H11.32L4.48,0" transform="translate(0 0)"/><path id="Path_938" data-name="Path 938" class="cls-2" d="M148.33,138.24l0,17.48c5.15-1.3,9.18-3.37,8.75-5.79C155.31,146.5,148.33,138.24,148.33,138.24Z" transform="translate(0 0)"/></g></g><g id="out_of_stock_OL" data-name="out of stock OL"><g id="SALE"><g class="cls-3"><path class="cls-4" d="M55.8,19.15a5.83,5.83,0,0,1,0-3.1,6.12,6.12,0,0,1,1.64-2.79,6,6,0,0,1,2.79-1.63,5.79,5.79,0,0,1,3.09,0A6.36,6.36,0,0,1,67.62,16a5.75,5.75,0,0,1,0,3.08,6.45,6.45,0,0,1-4.42,4.43,5.89,5.89,0,0,1-3.09,0,6.42,6.42,0,0,1-4.33-4.33Zm4.79,2.2a3.36,3.36,0,0,0,1.88-.07,4.69,4.69,0,0,0,1.81-1.16,4.42,4.42,0,0,0,1.14-1.8,3.2,3.2,0,0,0,.07-1.86,4,4,0,0,0-2.67-2.68,3.35,3.35,0,0,0-1.88.06A5,5,0,0,0,58,16.79a3.3,3.3,0,0,0-.07,1.89,3.65,3.65,0,0,0,1,1.68A3.57,3.57,0,0,0,60.59,21.35Z" transform="translate(0 0)"/><path class="cls-4" d="M73,20.49l-5.19,5.2a2.5,2.5,0,0,0-.86,1.75A2.79,2.79,0,0,0,69.45,30a2.54,2.54,0,0,0,1.75-.86l5.19-5.19,1.7,1.69-5.18,5.18a4.82,4.82,0,0,1-2.28,1.35A4.14,4.14,0,0,1,68.29,32a5.56,5.56,0,0,1-2.1-1.35,5.43,5.43,0,0,1-1.33-2.07,4.07,4.07,0,0,1-.1-2.32A4.91,4.91,0,0,1,66.13,24l5.18-5.18Z" transform="translate(0 0)"/><path class="cls-4" d="M85.32,32.83,84,34.19,81.73,32l-7,7L73,37.3l7-7L77.81,28l1.36-1.36Z" transform="translate(0 0)"/><path class="cls-4" d="M83,46.37a5.79,5.79,0,0,1,0-3.09,6.4,6.4,0,0,1,4.42-4.43,5.93,5.93,0,0,1,3.1,0,6.42,6.42,0,0,1,4.33,4.33,5.85,5.85,0,0,1,0,3.08,6,6,0,0,1-1.64,2.78,6.18,6.18,0,0,1-2.79,1.65,5.75,5.75,0,0,1-3.08,0A6.36,6.36,0,0,1,83,46.37Zm4.79,2.21a3.27,3.27,0,0,0,1.88-.08,4.55,4.55,0,0,0,1.8-1.15,4.45,4.45,0,0,0,1.15-1.8,3.23,3.23,0,0,0,.07-1.87A4,4,0,0,0,90,41a3.15,3.15,0,0,0-1.87.06,4.34,4.34,0,0,0-1.8,1.15A4.58,4.58,0,0,0,85.21,44a3.39,3.39,0,0,0-.07,1.89,3.94,3.94,0,0,0,2.68,2.67Z" transform="translate(0 0)"/><path class="cls-4" d="M103.74,51.24l-1.36,1.36-3.5-3.5-2.15,2.15,2.68,2.69-1.33,1.33L95.4,52.59l-3.55,3.55-1.68-1.69,8.39-8.39Z" transform="translate(0 0)"/><path class="cls-4" d="M100.74,64.59a3.71,3.71,0,0,1-.25-2,3.25,3.25,0,0,1,.92-1.75l1.8,1.8a1.67,1.67,0,0,0-.45,1.19,1.83,1.83,0,0,0,.61,1.21,2,2,0,0,0,1.2.64,1.3,1.3,0,0,0,1.08-.41,1.18,1.18,0,0,0,.39-.84,2.35,2.35,0,0,0-.2-1c-.13-.32-.35-.73-.63-1.25a14,14,0,0,1-.86-1.8,3.39,3.39,0,0,1-.17-1.59,2.91,2.91,0,0,1,.91-1.63,3.15,3.15,0,0,1,1.67-.93,3.38,3.38,0,0,1,1.89.2,5.3,5.3,0,0,1,1.83,1.25A4.66,4.66,0,0,1,112,60.49a3.32,3.32,0,0,1-.86,2.65l-1.85-1.85a1.35,1.35,0,0,0,.34-1.08A1.93,1.93,0,0,0,109,59a1.68,1.68,0,0,0-1-.54,1.32,1.32,0,0,0-1,.44,1.11,1.11,0,0,0-.34.78,2.39,2.39,0,0,0,.2.92,12.24,12.24,0,0,0,.61,1.25,13.76,13.76,0,0,1,.85,1.81,3.39,3.39,0,0,1,.17,1.62,2.84,2.84,0,0,1-.89,1.63,3.32,3.32,0,0,1-1.6.9,3.5,3.5,0,0,1-1.94-.1A5,5,0,0,1,102,66.47,5.67,5.67,0,0,1,100.74,64.59Z" transform="translate(0 0)"/><path class="cls-4" d="M120.53,68l-1.36,1.35-2.23-2.23-7,7-1.69-1.68,7-7L113,63.24l1.36-1.36Z" transform="translate(0 0)"/><path class="cls-4" d="M115.47,78.82a5.83,5.83,0,0,1,0-3.1,6.12,6.12,0,0,1,1.64-2.79,6,6,0,0,1,2.79-1.63,5.79,5.79,0,0,1,3.09,0,6.36,6.36,0,0,1,4.33,4.33,5.75,5.75,0,0,1,0,3.08,6.45,6.45,0,0,1-4.42,4.43,5.79,5.79,0,0,1-3.09,0,6,6,0,0,1-2.72-1.61A6.19,6.19,0,0,1,115.47,78.82Zm4.79,2.2a3.35,3.35,0,0,0,1.88-.07A4.69,4.69,0,0,0,124,79.79a4.42,4.42,0,0,0,1.14-1.8,3.2,3.2,0,0,0,.07-1.86,4,4,0,0,0-2.67-2.68,3.35,3.35,0,0,0-1.88.06,5,5,0,0,0-3,2.95,3.3,3.3,0,0,0-.07,1.89,3.65,3.65,0,0,0,1,1.68A3.57,3.57,0,0,0,120.26,81Z" transform="translate(0 0)"/><path class="cls-4" d="M129.19,80.62a5.64,5.64,0,0,1,3.05,0,6.44,6.44,0,0,1,4.46,4.81,5.34,5.34,0,0,1-.52,3.47L134.25,87a2.83,2.83,0,0,0,.09-1.72,3.35,3.35,0,0,0-.91-1.5,3.6,3.6,0,0,0-1.65-1,3.34,3.34,0,0,0-1.85.08A5,5,0,0,0,127,85.79a3.2,3.2,0,0,0-.08,1.86,3.49,3.49,0,0,0,1,1.65,3.22,3.22,0,0,0,1.51.9,2.84,2.84,0,0,0,1.72-.1L133.05,92a5.33,5.33,0,0,1-3.48.53,6,6,0,0,1-3.18-1.76,6,6,0,0,1-1.63-2.71,5.64,5.64,0,0,1,0-3,6.1,6.1,0,0,1,1.65-2.77A6.18,6.18,0,0,1,129.19,80.62Z" transform="translate(0 0)"/><path class="cls-4" d="M136.48,100.77l.69-6.79-3.74,3.74L131.75,96l8.39-8.39,1.68,1.68-3.76,3.77,6.81-.71,2,2-7.62.7-.68,7.78Z" transform="translate(0 0)"/></g></g></g></svg>