<svg id="Layer_1" data-name="Layer 1" xmlns="http://www.w3.org/2000/svg" viewBox="0 0 239 21"><defs><style>.cls-1{fill:#c2c0c0;}.cls-2{isolation:isolate;}.cls-3{fill:#fff;}</style></defs><rect id="Rectangle_223-2" data-name="Rectangle 223-2" class="cls-1" width="239" height="21"/><g id="PersonalisE" class="cls-2"><g class="cls-2"><path class="cls-3" d="M251.161,417.136a2.994,2.994,0,0,1-1.28,1.223,4.736,4.736,0,0,1-2.256.473h-2.016v4.512h-1.824v-11.12h3.84a4.84,4.84,0,0,1,2.168.44,3.055,3.055,0,0,1,1.328,1.191,3.273,3.273,0,0,1,.44,1.681A3.362,3.362,0,0,1,251.161,417.136Zm-1.984-.264a1.728,1.728,0,0,0,.512-1.336q0-1.825-2.064-1.824h-2.016v3.632h2.016A2.224,2.224,0,0,0,249.177,416.872Z" transform="translate(-178 -407.344)"/><path class="cls-3" d="M255.128,413.7v3.265h3.84v1.487h-3.84v3.408h4.321v1.489h-6.144V412.208h6.144V413.7Z" transform="translate(-178 -407.344)"/><path class="cls-3" d="M267.464,423.344,264.9,418.9h-1.392v4.448h-1.824v-11.12h3.84a4.771,4.771,0,0,1,2.168.448,3.1,3.1,0,0,1,1.328,1.2,3.269,3.269,0,0,1,.44,1.68,3.333,3.333,0,0,1-.631,1.975,3.205,3.205,0,0,1-1.945,1.208l2.752,4.609Zm-3.952-5.9h2.016a2.11,2.11,0,0,0,1.544-.511,1.842,1.842,0,0,0,.52-1.376,1.779,1.779,0,0,0-.512-1.352,2.171,2.171,0,0,0-1.552-.488h-2.016Z" transform="translate(-178 -407.344)"/><path class="cls-3" d="M273.449,423.063a3.291,3.291,0,0,1-1.408-1.111,2.82,2.82,0,0,1-.512-1.681h1.951a1.762,1.762,0,0,0,.569,1.185,2.008,2.008,0,0,0,1.415.464,2.184,2.184,0,0,0,1.473-.456,1.481,1.481,0,0,0,.527-1.176,1.284,1.284,0,0,0-.327-.912,2.207,2.207,0,0,0-.816-.544,12.348,12.348,0,0,0-1.352-.416,12.667,12.667,0,0,1-1.768-.584,2.907,2.907,0,0,1-1.16-.92,2.659,2.659,0,0,1-.48-1.664,2.961,2.961,0,0,1,.48-1.681,3.065,3.065,0,0,1,1.344-1.1,4.878,4.878,0,0,1,2-.384,4.172,4.172,0,0,1,2.648.808,2.982,2.982,0,0,1,1.144,2.216h-2.016a1.465,1.465,0,0,0-.577-1.041,2.127,2.127,0,0,0-1.392-.431,1.976,1.976,0,0,0-1.279.4,1.394,1.394,0,0,0-.5,1.152,1.165,1.165,0,0,0,.312.839,2.2,2.2,0,0,0,.792.521,12.194,12.194,0,0,0,1.312.416,13.816,13.816,0,0,1,1.8.607,3,3,0,0,1,1.183.937,2.683,2.683,0,0,1,.489,1.687,3.048,3.048,0,0,1-.456,1.6A3.308,3.308,0,0,1,277.521,423a4.383,4.383,0,0,1-2.057.456A4.965,4.965,0,0,1,273.449,423.063Z" transform="translate(-178 -407.344)"/><path class="cls-3" d="M283.68,422.728a5.4,5.4,0,0,1-2.064-2.033,6.034,6.034,0,0,1,0-5.863,5.414,5.414,0,0,1,2.064-2.024,6,6,0,0,1,5.728,0,5.351,5.351,0,0,1,2.056,2.024,6.09,6.09,0,0,1,0,5.863,5.34,5.34,0,0,1-2.056,2.033,6,6,0,0,1-5.728,0Zm4.824-1.36a3.492,3.492,0,0,0,1.352-1.44,4.616,4.616,0,0,0,.488-2.168,4.566,4.566,0,0,0-.488-2.16,3.45,3.45,0,0,0-1.352-1.424,4.152,4.152,0,0,0-3.936,0,3.456,3.456,0,0,0-1.352,1.424,4.578,4.578,0,0,0-.488,2.16,4.629,4.629,0,0,0,.488,2.168,3.5,3.5,0,0,0,1.352,1.44,4.094,4.094,0,0,0,3.936,0Z" transform="translate(-178 -407.344)"/><path class="cls-3" d="M303.145,423.344H301.32l-5.488-8.3v8.3h-1.824V412.208h1.824l5.488,8.288v-8.288h1.825Z" transform="translate(-178 -407.344)"/><path class="cls-3" d="M312.248,421.071h-4.656l-.8,2.273h-1.9l3.984-11.136h2.112l3.984,11.136h-1.92Zm-.512-1.487-1.808-5.168-1.824,5.168Z" transform="translate(-178 -407.344)"/><path class="cls-3" d="M318.521,421.872h3.759v1.472H316.7v-11.12h1.825Z" transform="translate(-178 -407.344)"/><path class="cls-3" d="M325.624,412.224v11.12H323.8v-11.12Z" transform="translate(-178 -407.344)"/><path class="cls-3" d="M329.672,423.063a3.285,3.285,0,0,1-1.408-1.111,2.82,2.82,0,0,1-.512-1.681H329.7a1.77,1.77,0,0,0,.568,1.185,2.011,2.011,0,0,0,1.417.464,2.179,2.179,0,0,0,1.471-.456,1.48,1.48,0,0,0,.529-1.176,1.281,1.281,0,0,0-.329-.912,2.2,2.2,0,0,0-.815-.544,12.238,12.238,0,0,0-1.353-.416,12.693,12.693,0,0,1-1.767-.584,2.907,2.907,0,0,1-1.16-.92,2.653,2.653,0,0,1-.481-1.664,2.954,2.954,0,0,1,.481-1.681,3.062,3.062,0,0,1,1.343-1.1,4.888,4.888,0,0,1,2-.384,4.175,4.175,0,0,1,2.649.808A2.981,2.981,0,0,1,335.4,415.1h-2.015a1.467,1.467,0,0,0-.576-1.041,2.134,2.134,0,0,0-1.393-.431,1.976,1.976,0,0,0-1.279.4,1.394,1.394,0,0,0-.5,1.152,1.164,1.164,0,0,0,.311.839,2.209,2.209,0,0,0,.792.521,12.223,12.223,0,0,0,1.313.416,13.692,13.692,0,0,1,1.8.607,3,3,0,0,1,1.184.937,2.689,2.689,0,0,1,.488,1.687,3.038,3.038,0,0,1-.456,1.6A3.288,3.288,0,0,1,333.743,423a4.375,4.375,0,0,1-2.055.456A4.963,4.963,0,0,1,329.672,423.063Z" transform="translate(-178 -407.344)"/><path class="cls-3" d="M339.512,413.7v3.265h3.84v1.487h-3.84v3.408h4.32v1.489h-6.144V412.208h6.144V413.7Z" transform="translate(-178 -407.344)"/></g></g></svg>