<svg xmlns="http://www.w3.org/2000/svg" width="45.018" height="34.982" viewBox="0 0 45.018 34.982"><defs><style>.a{fill:#161615;}.b{fill:#d90010;}.c{fill:#e54800;}.d{fill:#f78b00;}</style></defs><g transform="translate(-164.862 -473.875)"><g transform="translate(167.133 503.466)"><path class="a" d="M183.065,648.408a1.361,1.361,0,0,0-.459-.3,1.539,1.539,0,0,0-.582-.108,2.211,2.211,0,0,0-.348.029,1.528,1.528,0,0,0-.353.1,1.332,1.332,0,0,0-.329.2,1.209,1.209,0,0,0-.271.325,1.324,1.324,0,0,0-.5-.482,1.485,1.485,0,0,0-.727-.175,1.685,1.685,0,0,0-.285.025,1.3,1.3,0,0,0-.292.086,1.156,1.156,0,0,0-.517.434v-.45h-.774v3.682h.781v-2.041a1.1,1.1,0,0,1,.074-.417.9.9,0,0,1,.2-.306.827.827,0,0,1,.292-.186,1,1,0,0,1,.357-.064.769.769,0,0,1,.612.25,1.056,1.056,0,0,1,.218.715v2.048h.781v-2.041a1.1,1.1,0,0,1,.074-.417.9.9,0,0,1,.2-.306.827.827,0,0,1,.292-.186,1,1,0,0,1,.357-.064.769.769,0,0,1,.612.25,1.056,1.056,0,0,1,.217.715v2.048h.781v-2.314a1.6,1.6,0,0,0-.106-.592A1.349,1.349,0,0,0,183.065,648.408Z" transform="translate(-177.623 -646.599)"/><path class="a" d="M217.5,648.541a1.441,1.441,0,0,0-.477-.394,1.457,1.457,0,0,0-.68-.148,1.8,1.8,0,0,0-1.307.546,1.863,1.863,0,0,0-.392.613,2.2,2.2,0,0,0,0,1.557,1.865,1.865,0,0,0,.392.613,1.8,1.8,0,0,0,1.307.546,1.473,1.473,0,0,0,.68-.146,1.418,1.418,0,0,0,.477-.392v.442h.8V648.1h-.8Zm-.031,1.864a1.119,1.119,0,0,1-.227.373,1.055,1.055,0,0,1-.35.248,1.2,1.2,0,0,1-.921,0,1.041,1.041,0,0,1-.348-.254,1.124,1.124,0,0,1-.219-.375,1.4,1.4,0,0,1,0-.915,1.124,1.124,0,0,1,.219-.375,1.039,1.039,0,0,1,.348-.254,1.194,1.194,0,0,1,.921,0,1.052,1.052,0,0,1,.35.248,1.119,1.119,0,0,1,.227.373,1.4,1.4,0,0,1,0,.938Z" transform="translate(-207.936 -646.599)"/><path class="a" d="M243.129,649.948a1.986,1.986,0,0,0-.942-.352l-.381-.058q-.127-.019-.238-.044a.773.773,0,0,1-.192-.067.366.366,0,0,1-.129-.108.265.265,0,0,1-.048-.161.367.367,0,0,1,.183-.317.924.924,0,0,1,.513-.121,1.878,1.878,0,0,1,.34.031,2.77,2.77,0,0,1,.317.077,2.3,2.3,0,0,1,.481.207l.346-.626a2.364,2.364,0,0,0-.673-.286,3.189,3.189,0,0,0-.819-.1,2.249,2.249,0,0,0-.634.083,1.455,1.455,0,0,0-.478.234,1.023,1.023,0,0,0-.3.371,1.118,1.118,0,0,0-.106.492.907.907,0,0,0,.317.721,1.767,1.767,0,0,0,.932.359l.384.05a1.209,1.209,0,0,1,.484.148.3.3,0,0,1,.154.259.367.367,0,0,1-.211.329,1.288,1.288,0,0,1-.626.121,2.414,2.414,0,0,1-.405-.031,2.041,2.041,0,0,1-.327-.083,1.578,1.578,0,0,1-.265-.119,1.947,1.947,0,0,1-.217-.144l-.373.6a1.975,1.975,0,0,0,.419.242,2.878,2.878,0,0,0,.431.144,2.715,2.715,0,0,0,.4.069q.188.017.331.017a2.615,2.615,0,0,0,.709-.088,1.6,1.6,0,0,0,.526-.248,1.1,1.1,0,0,0,.327-.38,1.051,1.051,0,0,0,.113-.486A.88.88,0,0,0,243.129,649.948Z" transform="translate(-229.072 -646.617)"/><path class="a" d="M284.6,648.535a1.574,1.574,0,0,0-.55-.4,1.743,1.743,0,0,0-.705-.14,1.914,1.914,0,0,0-.744.14,1.673,1.673,0,0,0-.578.4,1.8,1.8,0,0,0-.377.613,2.219,2.219,0,0,0-.134.788,2.189,2.189,0,0,0,.138.8,1.766,1.766,0,0,0,.388.611,1.719,1.719,0,0,0,.6.392,2.029,2.029,0,0,0,.761.139,2.721,2.721,0,0,0,.8-.115,2,2,0,0,0,.717-.4l-.4-.573a1.8,1.8,0,0,1-.509.286,1.606,1.606,0,0,1-.555.1,1.31,1.31,0,0,1-.377-.054.987.987,0,0,1-.327-.167,1.008,1.008,0,0,1-.25-.29,1.2,1.2,0,0,1-.142-.427h2.721q.008-.069.012-.146t0-.154a2.291,2.291,0,0,0-.129-.786A1.85,1.85,0,0,0,284.6,648.535Zm-2.247,1.086a1.381,1.381,0,0,1,.108-.367.989.989,0,0,1,.2-.288.831.831,0,0,1,.288-.186,1.041,1.041,0,0,1,.382-.065.855.855,0,0,1,.626.238,1.149,1.149,0,0,1,.308.669Z" transform="translate(-263.018 -646.599)"/><path class="a" d="M344.973,648.541a1.439,1.439,0,0,0-.477-.394,1.457,1.457,0,0,0-.68-.148,1.8,1.8,0,0,0-1.307.546,1.863,1.863,0,0,0-.392.613,2.2,2.2,0,0,0,0,1.557,1.865,1.865,0,0,0,.392.613,1.8,1.8,0,0,0,1.307.546,1.473,1.473,0,0,0,.68-.146,1.417,1.417,0,0,0,.477-.392v.442h.8V648.1h-.8Zm-.031,1.864a1.119,1.119,0,0,1-.227.373,1.055,1.055,0,0,1-.35.248,1.2,1.2,0,0,1-.921,0,1.041,1.041,0,0,1-.348-.254,1.125,1.125,0,0,1-.219-.375,1.4,1.4,0,0,1,0-.915,1.124,1.124,0,0,1,.219-.375,1.039,1.039,0,0,1,.348-.254,1.194,1.194,0,0,1,.921,0,1.052,1.052,0,0,1,.35.248,1.118,1.118,0,0,1,.227.373,1.4,1.4,0,0,1,0,.938Z" transform="translate(-312.723 -646.599)"/><path class="a" d="M264.371,646.339a1.083,1.083,0,0,1-.382.073.665.665,0,0,1-.229-.038.472.472,0,0,1-.184-.121.584.584,0,0,1-.125-.213.952.952,0,0,1-.046-.315v-1.6h1.29v-.73H263.4v-1.115H262.6v1.115h-.734v.73h.734v1.618a1.475,1.475,0,0,0,.348,1.082,1.317,1.317,0,0,0,.974.348,1.735,1.735,0,0,0,.628-.108,2.624,2.624,0,0,0,.343-.161l-.275-.673A2.091,2.091,0,0,1,264.371,646.339Z" transform="translate(-246.869 -641.895)"/><path class="a" d="M308.4,648a1.473,1.473,0,0,0-.611.123,1.3,1.3,0,0,0-.457.456V648.1H306.6v3.682h.737v-2.026a1.25,1.25,0,0,1,.065-.419.9.9,0,0,1,.181-.311.748.748,0,0,1,.277-.192.934.934,0,0,1,.354-.065,1.571,1.571,0,0,1,.315.035,1.294,1.294,0,0,1,.161.043l.238-.769a1.456,1.456,0,0,0-.2-.049A2,2,0,0,0,308.4,648Z" transform="translate(-283.643 -646.599)"/><path class="a" d="M371.135,648a1.472,1.472,0,0,0-.611.123,1.3,1.3,0,0,0-.457.456V648.1h-.729v3.682h.737v-2.026a1.25,1.25,0,0,1,.065-.419.906.906,0,0,1,.18-.311.75.75,0,0,1,.277-.192.934.934,0,0,1,.354-.065,1.567,1.567,0,0,1,.315.035,1.3,1.3,0,0,1,.161.043l.238-.769a1.453,1.453,0,0,0-.2-.049A1.993,1.993,0,0,0,371.135,648Z" transform="translate(-335.215 -646.599)"/><path class="a" d="M386.672,640.131v1.942a1.44,1.44,0,0,0-.476-.394,1.458,1.458,0,0,0-.68-.148,1.8,1.8,0,0,0-1.307.546,1.861,1.861,0,0,0-.392.613,2.2,2.2,0,0,0,0,1.556,1.864,1.864,0,0,0,.392.613,1.8,1.8,0,0,0,1.307.546,1.473,1.473,0,0,0,.68-.146,1.417,1.417,0,0,0,.476-.392v.442h.8v-5.179Zm-.031,3.806a1.119,1.119,0,0,1-.227.373,1.054,1.054,0,0,1-.35.248,1.195,1.195,0,0,1-.92,0,1.04,1.04,0,0,1-.348-.254,1.124,1.124,0,0,1-.219-.375,1.4,1.4,0,0,1,0-.915,1.123,1.123,0,0,1,.219-.375,1.039,1.039,0,0,1,.348-.254,1.194,1.194,0,0,1,.92,0,1.053,1.053,0,0,1,.35.248,1.119,1.119,0,0,1,.227.373,1.4,1.4,0,0,1,0,.938Z" transform="translate(-347 -640.131)"/><path class="a" d="M322.157,649.085a1.08,1.08,0,0,1,.365-.242,1.2,1.2,0,0,1,.457-.087h0a1.433,1.433,0,0,1,.5.087,1.208,1.208,0,0,1,.39.232l.387-.643a1.969,1.969,0,0,0-.49-.285,2.181,2.181,0,0,0-1.58,0,1.9,1.9,0,0,0-.626.407,1.883,1.883,0,0,0-.413.613,2.045,2.045,0,0,0,0,1.537,1.881,1.881,0,0,0,.413.613,1.9,1.9,0,0,0,.626.408,2.182,2.182,0,0,0,1.58,0,1.969,1.969,0,0,0,.49-.285l-.387-.643a1.211,1.211,0,0,1-.39.232,1.434,1.434,0,0,1-.5.086h0a1.2,1.2,0,0,1-.457-.086,1.078,1.078,0,0,1-.365-.242,1.127,1.127,0,0,1-.242-.373,1.339,1.339,0,0,1,0-.957A1.129,1.129,0,0,1,322.157,649.085Z" transform="translate(-295.481 -646.599)"/></g><g transform="translate(208.913 508.105)"><path class="a" d="M412.747,666.2a.383.383,0,0,1,.151.03.392.392,0,0,1,.122.081.38.38,0,0,1,.082.119.366.366,0,0,1,0,.291.384.384,0,0,1-.082.12.389.389,0,0,1-.122.081.381.381,0,0,1-.151.03.392.392,0,0,1-.153-.03.385.385,0,0,1-.123-.081.378.378,0,0,1-.082-.12.374.374,0,0,1,0-.291.373.373,0,0,1,.082-.119.387.387,0,0,1,.123-.081A.394.394,0,0,1,412.747,666.2Zm0,.647a.263.263,0,0,0,.105-.021.274.274,0,0,0,.143-.356.264.264,0,0,0-.057-.086.272.272,0,0,0-.086-.058.263.263,0,0,0-.105-.021.271.271,0,0,0-.108.021.278.278,0,0,0-.086.058.263.263,0,0,0-.058.086.28.28,0,0,0,0,.212.268.268,0,0,0,.058.086.274.274,0,0,0,.086.058A.271.271,0,0,0,412.747,666.842Zm.022-.438a.156.156,0,0,1,.1.03.1.1,0,0,1,.036.082.091.091,0,0,1-.026.066.13.13,0,0,1-.074.035l.1.12H412.8l-.093-.116H412.7v.116H412.6V666.4Zm-.072.081v.061h.07a.07.07,0,0,0,.033-.007.025.025,0,0,0,.012-.023.026.026,0,0,0-.012-.023.061.061,0,0,0-.033-.008Z" transform="translate(-412.359 -666.195)"/></g><g transform="translate(164.862 473.875)"><path class="b" d="M182.077,487.751a13.848,13.848,0,0,1,5.269-10.88,13.876,13.876,0,1,0,0,21.761A13.848,13.848,0,0,1,182.077,487.751Z" transform="translate(-164.862 -473.875)"/><ellipse class="c" cx="5.269" cy="10.88" rx="5.269" ry="10.88" transform="translate(17.215 2.996)"/><path class="d" d="M411.464,591.618v-.406H411.3V591.1h.45v.112h-.164v.406Zm.87,0v-.359l-.116.31h-.129l-.117-.309v.358h-.121V591.1h.174l.129.332.128-.332h.174v.518Z" transform="translate(-367.438 -570.236)"/><path class="d" d="M299.792,473.875a13.814,13.814,0,0,0-8.607,3,13.868,13.868,0,0,1,0,21.761,13.875,13.875,0,1,0,8.607-24.757Z" transform="translate(-268.701 -473.875)"/></g></g></svg>