<svg xmlns="http://www.w3.org/2000/svg" width="53.346" height="17.268" viewBox="0 0 53.346 17.268"><defs><style>.a{fill:#0023a0;}.b{fill:#ffab00;}</style></defs><g transform="translate(-1.017 -0.983)"><path class="a" d="M55,.983c-4.273,0-7.275,2.272-7.3,5.52-.027,2.406,2.147,3.748,3.781,4.548,1.687.818,2.25,1.343,2.244,2.075-.017,1.121-1.35,1.632-2.588,1.632a8.658,8.658,0,0,1-4.062-.874l-.561-.267-.6,3.744a13.085,13.085,0,0,0,4.815.891c4.535,0,7.485-2.246,7.52-5.713.018-1.909-1.136-3.353-3.631-4.546C53.1,7.217,52.172,6.7,52.186,5.917c0-.694.781-1.438,2.475-1.438a7.551,7.551,0,0,1,3.233.643l.385.192.588-3.627A10.674,10.674,0,0,0,55,.983Zm-13.414.292L38.879,18H43.2L45.9,1.275H41.582Zm-6.326.016-4.228,11.4-.451-2.317c-1.053-2.841-3.333-5.821-5.987-7.028l3.868,14.641,4.572,0,6.8-16.695H35.255Zm31.354,0a2.139,2.139,0,0,0-2.267,1.389L57.93,18.009h4.537s.742-2.063.91-2.515c.5,0,4.9.01,5.53.01.134.583.526,2.505.526,2.505h4.011l-3.5-16.717H66.609Zm.305,4.51L67.2,7.245s.83,3.992,1,4.828H64.619c.359-.96,1.721-4.676,1.721-4.676-.027.045.354-.968.574-1.594Z" transform="translate(-19.081 0)"/><path class="b" d="M8.024,2.554H1.058l-.041.288c5.417,1.385,8.99,4.787,10.478,8.81L9.981,3.963A1.813,1.813,0,0,0,8.024,2.554" transform="translate(0 -1.271)"/></g></svg>