<svg xmlns="http://www.w3.org/2000/svg" width="21.476" height="25.124" viewBox="0 0 21.476 25.124"><defs><style>.a{fill:#a32a68;stroke:#a32a68;stroke-width:0.2px;}</style></defs><g transform="translate(-37.366 0.1)"><g transform="translate(37.466)"><path class="a" d="M151.337,146.946a5.58,5.58,0,1,0,5.58-5.58A5.587,5.587,0,0,0,151.337,146.946Zm5.58,4.85a4.838,4.838,0,0,1-3.555-1.555,3.6,3.6,0,0,1,2.191-2.663,2.248,2.248,0,0,0,2.729,0,3.6,3.6,0,0,1,2.191,2.663,4.838,4.838,0,0,1-3.555,1.555Zm-1.524-6.011a1.524,1.524,0,1,1,1.524,1.524,1.526,1.526,0,0,1-1.524-1.524Zm6.375,1.161a4.821,4.821,0,0,1-.736,2.565,4.324,4.324,0,0,0-2.225-2.5,2.255,2.255,0,1,0-3.78,0,4.324,4.324,0,0,0-2.225,2.5,4.849,4.849,0,1,1,8.965-2.565Z" transform="translate(-145.794 -134.484)"/><path class="a" d="M58.742,6.231V3.065a1.388,1.388,0,0,0-1.386-1.386h-.531A1.988,1.988,0,0,0,54.864,0H39.451a1.987,1.987,0,0,0-1.985,1.985V22.939a1.987,1.987,0,0,0,1.985,1.985H54.864a1.987,1.987,0,0,0,1.985-1.985V21.692a.365.365,0,1,0-.73,0v1.247a1.256,1.256,0,0,1-1.255,1.255H41.491V5.5a.365.365,0,0,0-.73,0V24.194h-1.31A1.256,1.256,0,0,1,38.2,22.939V1.985A1.256,1.256,0,0,1,39.451.73h1.31V3.794a.365.365,0,0,0,.73,0V.73H54.864a1.256,1.256,0,0,1,1.255,1.255v18a.365.365,0,1,0,.73,0V18.035h.507a1.388,1.388,0,0,0,1.386-1.386V13.482a1.383,1.383,0,0,0-.45-1.021,1.382,1.382,0,0,0,.45-1.021V8.273a1.383,1.383,0,0,0-.45-1.021,1.383,1.383,0,0,0,.45-1.021Zm-.73,10.417a.657.657,0,0,1-.656.656h-.507V12.826h.507a.657.657,0,0,1,.656.656Zm0-5.209a.657.657,0,0,1-.656.656h-.507V7.617h.507a.657.657,0,0,1,.656.656Zm0-5.209a.657.657,0,0,1-.656.656h-.507V2.409h.507a.657.657,0,0,1,.656.656Z" transform="translate(-37.466)"/></g></g></svg>