<svg xmlns="http://www.w3.org/2000/svg" width="21.278" height="18.618" viewBox="0 0 21.278 18.618"><defs><style>.a{fill:#a32a68;}</style></defs><g transform="translate(0 -32.004)"><g transform="translate(0 35.993)"><path class="a" d="M20.613,135.975a.665.665,0,0,0-.665.665v4.655H1.33v-7.979H8.644a.665.665,0,1,0,0-1.33H1.33v-2.66H8.644a.665.665,0,1,0,0-1.33H1.33A1.33,1.33,0,0,0,0,129.326v11.969a1.33,1.33,0,0,0,1.33,1.33H19.948a1.33,1.33,0,0,0,1.33-1.33V136.64A.665.665,0,0,0,20.613,135.975Z" transform="translate(0 -127.996)"/></g><g transform="translate(10.639 32.004)"><path class="a" d="M266.236,34.052l-4.655-1.995a.679.679,0,0,0-.525,0L256.4,34.052a.667.667,0,0,0-.4.612v2.66c0,3.659,1.352,5.8,4.988,7.892a.669.669,0,0,0,.662,0c3.636-2.089,4.988-4.228,4.988-7.892v-2.66A.666.666,0,0,0,266.236,34.052Zm-.927,3.272c0,3.071-1.016,4.761-3.99,6.543-2.974-1.786-3.99-3.476-3.99-6.543V35.1l3.99-1.71,3.99,1.71Z" transform="translate(-256 -32.004)"/></g><g transform="translate(13.299 35.994)"><path class="a" d="M325.082,128.16a.669.669,0,0,0-.935.1l-2.091,2.615-.827-1.237a.665.665,0,0,0-1.107.737l1.33,1.995a.67.67,0,0,0,.525.3h.028a.665.665,0,0,0,.52-.25l2.66-3.325A.665.665,0,0,0,325.082,128.16Z" transform="translate(-320.011 -128.016)"/></g></g></svg>