<svg xmlns="http://www.w3.org/2000/svg" width="21.577" height="20.875" viewBox="0 0 21.577 20.875"><defs><style>.a{fill:#a32a68;stroke:#a32a68;stroke-width:0.3px;}</style></defs><g transform="translate(0.15 -0.478)"><path class="a" d="M19.784,5.307H15.238V.977a.349.349,0,0,0-.349-.349h-8.5a.349.349,0,0,0-.349.349V5.307H1.492a.35.35,0,0,0-.348.322L0,20.829a.349.349,0,0,0,.348.374H20.928a.349.349,0,0,0,.348-.375L20.132,5.63A.35.35,0,0,0,19.784,5.307Zm-4.895,2.21a.319.319,0,1,1-.32.318A.319.319,0,0,1,14.889,7.517ZM6.735,1.326h7.806V5.308H6.735ZM6.386,7.517a.319.319,0,1,1-.32.318A.319.319,0,0,1,6.386,7.517ZM.724,20.506l1.091-14.5H6.038v.88a1.017,1.017,0,1,0,.7,0v-.88h7.806v.88a1.017,1.017,0,1,0,.7,0v-.88h4.223l1.091,14.5Z" transform="translate(0)"/></g></svg>