<svg xmlns="http://www.w3.org/2000/svg" width="21.477" height="22.183" viewBox="0 0 21.477 22.183"><defs><style>.a{fill:#a32a68;stroke:#a32a68;stroke-width:0.2px;}</style></defs><g transform="translate(-27.936 -18.88)"><path class="a" d="M112.422,28.991a5.006,5.006,0,1,0-5.006-5.006A5.006,5.006,0,0,0,112.422,28.991Zm0-9.064a4.058,4.058,0,1,1-4.058,4.058A4.059,4.059,0,0,1,112.422,19.927Z" transform="translate(-76.368)"/><path class="a" d="M49.063,300.052l-4.082-2.174a.461.461,0,0,0-.45,0l-3.736,2.046a8,8,0,0,0-10.423.834,8.428,8.428,0,0,0-2.335,5.962.475.475,0,0,0,.473.474l13.175-.024a6.121,6.121,0,0,0,2.32,1.771l.549.242a.438.438,0,0,0,.189.038.54.54,0,0,0,.189-.038l.62-.27a6.133,6.133,0,0,0,3.76-5.659v-2.785A.479.479,0,0,0,49.063,300.052ZM29,306.247a7.428,7.428,0,0,1,2.055-4.826,6.906,6.906,0,0,1,5-2.093h.014a6.92,6.92,0,0,1,4.253,1.426v2.562a6.127,6.127,0,0,0,.739,2.912Zm19.369-2.988a5.186,5.186,0,0,1-3.187,4.788h0l-.431.185-.36-.156a5.2,5.2,0,0,1-3.121-4.764v-2.562l3.5-1.918,3.6,1.923Z" transform="translate(0 -268.262)"/><path class="a" d="M413.538,410.616a.474.474,0,0,0-.72.616l1.075,1.255a.477.477,0,0,0,.36.166.467.467,0,0,0,.3-.1l2.5-2.031a.474.474,0,1,0-.6-.734l-2.141,1.743Z" transform="translate(-370.073 -375.871)"/></g></svg>