<svg xmlns="http://www.w3.org/2000/svg" width="22.276" height="22.229" viewBox="0 0 22.276 22.229"><defs><style>.a{fill:none;stroke:#a32a68;stroke-linecap:round;stroke-miterlimit:10;}</style></defs><g transform="translate(-29.5 -383.373)"><g transform="translate(-649.56 368.167)"><line class="a" x2="8.83" transform="translate(691.957 24.926)"/><path class="a" d="M1080.514,141.211l3.419,3.4a.371.371,0,0,1,0,.526l-3.418,3.382" transform="translate(-383.206 -119.95)"/><path class="a" d="M693.39,21.788V17.665a1.959,1.959,0,0,0-1.959-1.959h-10.55a1.321,1.321,0,0,0-1.321,1.321V33.868a.936.936,0,0,0,.631.885l6.156,2.121a.962.962,0,0,0,1.276-.91V18.754a1.183,1.183,0,0,0-.884-1.145L680.2,15.9" transform="translate(0 0)"/><path class="a" d="M868,283.009v4.815a1.676,1.676,0,0,1-1.676,1.676h-4.067" transform="translate(-174.61 -255.471)"/></g></g></svg>